<?xml version="1.0" encoding="utf-8"?>
<!-- Generator: Adobe Illustrator 22.0.1, SVG Export Plug-In . SVG Version: 6.00 Build 0)  -->
<svg version="1.1" id="Camada_1" xmlns="http://www.w3.org/2000/svg" xmlns:xlink="http://www.w3.org/1999/xlink" x="0px" y="0px"
	 viewBox="0 0 354.1 211.1" style="enable-background:new 0 0 354.1 211.1;" xml:space="preserve">
<style type="text/css">
	.st0{fill:#603813;}
	.st1{fill:#FFFFFF;}
</style>
<path class="st0" d="M380.8-74.2"/>
<path class="st1" d="M348,62.1c-1.9,1-3.2,1.4-4,2.3c-12.5,13.4-24.6,27.1-37.5,40.1c-6.4,6.5-9.2,12.7-8.3,22.3
	c2,23.8-20,43-42.4,38.5c-15.9-3.2-26-12.4-30.3-28c-4-14.5,1.5-26.2,11.7-35.7c5.9-5.5,6.3-8.3,0.2-14.2
	C214,64.9,194,39.8,181.8,9.2c-0.8-2-1-5.4-4.1-4.8c-1.4,0.3-2.7,2.8-3.5,4.6c-12.9,30.1-32.2,55.7-56.6,77.4c-6,5.4-6.8,8.9,0,14.3
	c11.6,9.1,14.4,21.9,11.7,35.8c-3.8,19.3-22.9,31.1-43.4,27.6c-18.3-3.1-31.9-21.4-29.1-40.4c1.2-8-0.4-13.4-6-19
	c-9.9-9.7-18.9-20.4-28.6-30.3c-4.7-4.8-8.3-11-17.1-14.4c2.6,6.5,4.4,11.2,6.2,15.9c15,38,27.6,76.7,31.9,117.5
	c1,9.5,4.2,12.8,11.4,13.7c17.3-0.8,66.2-4.6,116.4-4.3c62.2,0.4,125.9,4.7,131.2,5.1c5.2-0.2,8-2.7,8.6-8.3
	c4.2-43,17.7-83.4,34.2-123C346.6,72.2,349.1,68,348,62.1z"/>
<rect x="852.1" y="-493.4" class="st0" width="1200" height="1200"/>
<g>
	<path class="st1" d="M1655.8-74.2"/>
	<g>
		<path class="st1" d="M1262.6,45.2c1.6,1,3.2,2.7,4.9,5.3c1.7,2.6,3.1,5.3,4.3,8.3c1.2,3,2.1,5.8,2.8,8.5c0.6,2.7,0.8,4.6,0.5,5.8
			c-1.6,7.9-6.1,16.5-13.6,25.8s-16.9,18.4-28.4,27.2c-11.5,8.7-24.4,16.5-38.9,23.4c-14.5,6.9-29.7,11.7-45.5,14.4
			c3.5,5.1,8.4,11,14.7,17.5c6.2,6.6,12.9,12.9,19.8,18.9c7,6,13.7,11.3,20.2,16c6.5,4.6,11.8,7.7,16,9.1c-1.1,1.3-2.9,2.9-5.4,4.8
			c-2.5,1.9-5.2,3.8-8.2,5.5c-3,1.8-5.9,3.2-8.8,4.3c-2.9,1.1-5.2,1.4-7,1c-3.2-1.1-7.3-4-12.1-8.8c-4.9-4.7-10-10.4-15.3-16.9
			c-5.3-6.6-10.5-13.6-15.5-21.1c-5-7.5-9.3-14.7-12.9-21.4c-11.1,18.1-23.1,38.1-36,59.8c-4.8-0.5-8.9-1.4-12.3-2.8
			c-3.4-1.4-5.5-2.6-6.5-3.7c10.7-21.9,21.6-42.9,32.7-62.8s21.5-37.9,31.5-54c9.9-16,18.9-29.6,26.9-40.9c8-11.2,14.3-19,19-23.3
			c1.1,0.2,2.8,0.8,4.9,1.8c2.2,1,4.3,2.4,6.5,4c2.2,1.6,4,3.3,5.5,5.2c1.5,1.8,2.2,3.6,2,5.2c-5.6,6.1-13.4,16.5-23.4,31.4
			c-10,14.8-22.2,33.7-36.4,56.6c14.3-5.9,27.6-13.3,40.1-22.1c12.5-8.8,23.6-18.1,33.2-27.9c9.6-9.8,17.5-19.5,23.8-29.1
			c6.2-9.6,10.3-18.1,12-25.5c0.6,1,1.1,2.4,1.3,4.2c0.2,1.8,0,4-0.6,6.6c-0.6,2.6-1.8,5.6-3.4,9.1c-1.6,3.5-3.9,7.5-7,11.8
			c3.4-3.4,6-6.8,8.1-10.3c2-3.5,3.5-6.7,4.6-9.6c1-2.9,1.6-5.4,1.8-7.5C1262.7,47,1262.7,45.7,1262.6,45.2z M1116,187.7
			c3.5-6.7,7.6-14.2,12.4-22.4c4.7-8.2,9.7-16.5,14.9-25.1c5.2-8.6,10.5-17.1,16-25.7c5.4-8.6,10.6-16.6,15.5-24
			c4.9-7.5,9.4-14.1,13.5-19.9c4.1-5.8,7.4-10.4,10-13.6c-0.6,0-2.4,1.9-5.4,5.6c-3,3.8-6.7,8.9-11.3,15.4
			c-4.6,6.5-9.7,14.1-15.3,22.7c-5.6,8.7-11.4,17.8-17.3,27.5c-5.9,9.7-11.7,19.6-17.4,29.8C1125.8,168.2,1120.6,178.1,1116,187.7z
			 M1185.7,61.3c-0.5,0-2,1.5-4.4,4.4c-2.5,3-5.5,7.1-9.1,12.3c-3.6,5.2-7.7,11.3-12.3,18.1c-4.6,6.9-9.3,14.3-14.1,22.1
			c-4.8,7.9-9.6,16-14.3,24.4c-4.7,8.4-9.1,16.6-13.1,24.6c1.9-3.7,3.9-7.3,6-10.8c2.1-3.5,4.2-7.1,6.5-10.8
			c2.2-3.7,4.6-7.6,7.2-11.7c2.6-4.1,5.4-8.5,8.7-13.3c0.3,0,0.6-0.2,1-0.7c0.3-0.5,0.6-1,0.7-1.4c0.2-0.6,0.2-1.4,0.2-2.2l4.3-3.6
			v-1c0-0.5-0.3-1.3-1-2.4c0.8-0.3,1.8-1,3.1-2.2c1.3-1.1,1.9-2.1,1.9-2.9c0.3-0.3,0.7-0.7,1.1-1.2c0.4-0.5,0.8-1,1.3-1.4
			c0.6-0.5,1.2-1,1.7-1.4c0.8,0,1.1-0.5,1-1.4c-0.2-1-0.2-1.8,0-2.4c0.2-0.3,0.9-0.8,2.2-1.4c0.6-0.3,1.3-0.6,1.9-0.7
			c-0.2-0.5-0.2-0.9-0.1-1.2c0.1-0.3,0.1-0.6,0.1-1v-1c0.6-0.2,1-0.9,1-2.2c0-0.6-0.1-1.2-0.2-1.7c0.3-0.3,1.4-0.5,3.1-0.5h2.6
			l-1.2-5.5c0.3-0.8,0.9-1.2,1.8-1.1c0.9,0.1,1.2-0.3,0.8-1.1c3.7-5.6,6.4-9.7,8.1-12.3C1183.9,64.3,1185,62.4,1185.7,61.3z
			 M1144.1,146.9c2.9-5.3,6.1-10.9,9.7-16.7c3.6-5.8,7.2-11.7,10.9-17.7c3.7-5.9,7.3-11.7,10.9-17.2c3.6-5.5,6.9-10.6,10-15.1
			c3-4.6,5.6-8.4,7.8-11.7s3.7-5.4,4.7-6.7c-0.8-0.2-2.5,1.4-5.2,4.8c-2.6,3.4-5.7,7.7-9.3,13c-3.5,5.3-7.3,11.2-11.4,17.8
			c-4.1,6.6-8,13-11.8,19.3c-3.8,6.3-7.1,12.2-10.1,17.7C1147.5,139.8,1145.4,144,1144.1,146.9z M1150.1,161c1-0.2,3.4-0.7,7.3-1.7
			c3.9-1,8.8-2.4,14.7-4.4c5.8-2,12.4-4.6,19.7-7.9c7.3-3.3,14.8-7.3,22.6-12c7.8-4.7,15.6-10.3,23.4-16.7
			c7.8-6.4,15.3-13.8,22.4-22.1c-6.2,5.9-12.9,11.9-19.9,17.8c-7.1,5.9-15,11.7-23.8,17.2c-8.8,5.5-18.6,10.8-29.4,15.9
			C1176.2,152,1163.9,156.7,1150.1,161z M1205.6,128.4c-13.1,7.7-24.5,13.7-34.1,17.9c-9.6,4.2-16.3,6.9-20.2,7.8
			c3.8-0.5,8.6-1.8,14.2-3.8c5.6-2.1,11.1-4.5,16.6-7.2c5.4-2.7,10.4-5.4,14.8-8.2C1201.2,132.1,1204.2,130,1205.6,128.4z
			 M1225.3,122.8c5.9-4.3,11.4-8.7,16.5-13.2c5-4.5,9.4-8.7,13.1-12.7c3.7-4,6.7-7.7,9-11.1c2.3-3.4,3.9-6.2,4.7-8.7
			c-6.4,7.2-13.2,14.4-20.4,21.6c-7.2,7.2-15.3,14.3-24.3,21.1c-9,6.9-19,13.5-30.2,19.7c-11.1,6.2-23.8,11.9-38.1,17.1
			c13.8-3.7,26.9-8.8,39.4-15.4c0.6-0.6,1-1.1,1.2-1.4c0.2-0.3,0.3-0.6,0.5-0.7l1.4,1.2c0-0.2,0.2-0.4,0.5-0.7
			c0.2-0.2,0.2-0.3,0.2-0.5l1.2,0.2c0.3-0.2,0.7-0.5,1.2-1c0.6-0.6,1.4-1.6,2.2-2.9l2.4-0.5l1.2-2.2c0.8,0,1.8-0.2,3.1-0.7
			c0.6-0.2,1.4-0.4,2.2-0.7l0.5-0.7l2.2-1l0.5-1.4c0.2-0.6,0.4-1.1,0.7-1.4c1,0,2-0.1,3.2-0.4c1.2-0.2,2-0.8,2.3-1.6
			c0.3,0,0.9-0.3,1.8-0.8C1224.4,123.6,1225,123.2,1225.3,122.8z M1254.6,45.7c1-0.5,1.4-0.1,1.3,1.1c-0.1,1.2-0.3,2.1-0.6,2.8
			c-0.3-0.5-0.7-1.1-1.1-1.9C1253.9,46.8,1254,46.2,1254.6,45.7z"/>
		<path class="st1" d="M1274.8,177.9c3.5-3.7,6.3-5.1,8.4-4.3c2.1,0.8,2.2,2.7,0.2,5.8c-0.8,1.3-2.4,3.1-4.8,5.5
			c-2.4,2.4-5.2,5-8.5,7.9c-3.3,2.9-6.9,5.8-10.8,8.8c-3.9,3-7.8,5.5-11.7,7.6c1.9-0.8,3.8-1.7,5.6-2.6c1.8-1,3.5-1.9,4.9-2.9
			c-5,4-9.8,6.8-14.5,8.4c-4.7,1.6-8.5,2.6-11.2,2.9h-0.5h-1.2c-5.8,0-9.7-1.8-11.7-5.3c-2-3.5-2.4-8.2-1.1-13.9
			c1.3-5.8,4.1-12.3,8.4-19.5c4.3-7.2,9.9-14.6,16.8-22.1c1.1-1.3,3.2-2.2,6.2-2.6c3-0.5,6-0.6,8.9-0.4c2.9,0.2,5.2,0.8,7,1.7
			c1.8,0.9,2.1,2,1,3.2c-5,5.6-9.7,11.3-14.1,17.1c-4.4,5.8-8.1,11-11.1,15.7c-3,4.7-5,8.5-6.1,11.4c-1.1,2.9-0.9,4.3,0.7,4.3
			c2.1,0,5-1,8.7-3.1c3.7-2.1,7.5-4.6,11.4-7.5c3.9-2.9,7.6-5.8,11.1-8.8C1270.5,182.2,1273.1,179.8,1274.8,177.9z M1229.6,213.2
			c2.2,0.2,4.7-0.2,7.3-1c2.6-0.8,5.2-1.8,7.7-3.1c2.5-1.3,4.8-2.7,7.1-4.2c2.2-1.5,4.1-3,5.5-4.4c-6.4,5.1-12.3,8.5-17.7,10.2
			C1234.2,212.3,1230.9,213.2,1229.6,213.2z M1240.5,180.3c-0.6,0.3-1,0.9-1,1.7c-1.3,2.4-2.5,4.8-3.7,7.2c-1.2,2.4-2.2,4.6-3,6.5
			c1.9-4.3,4.1-8.5,6.6-12.5c2.5-4,5-7.7,7.6-11.2c2.6-3.4,5-6.5,7.3-9.3c2.3-2.7,4.2-5,5.6-6.7c-0.5-0.3-1.4,0.2-2.9,1.7
			c-1.4,1.4-3.1,3.4-5,5.8c-0.2,0-0.3,0-0.4,0.1c-0.1,0.1-0.2,0.1-0.4,0.1h-0.2v0.2v0.5c-0.3,0-0.6,0.1-0.7,0.2c0,0.2,0,0.4-0.1,0.6
			c-0.1,0.2,0,0.5,0.4,0.8c-0.2,0-0.3,0-0.4-0.1c-0.1-0.1-0.2-0.1-0.4-0.1h-0.2c-0.2,0.2-0.2,0.3-0.2,0.5v0.2v0.7
			c-0.3,0-0.5,0.3-0.5,1c-0.2,0-0.4,0.2-0.7,0.5v0.5c-0.2,0-0.4,0-0.7-0.1c-0.3-0.1-0.6-0.1-0.7-0.1c0,0.3,0,0.7,0,1.1
			c0,0.4,0.1,0.8,0.2,1.1h-0.7h-0.5c-0.2,0.2-0.2,0.4-0.2,0.7v0.5c-0.2,0.2-0.2,0.5-0.2,1c0,0.3-0.1,0.6-0.2,0.7
			c-0.2,0.2-0.5,0.2-1,0.2h-0.5c-0.2,0.2-0.3,0.4-0.5,0.7c-0.3,0.6-0.5,1-0.5,1.2c-0.2,0.2-0.3,0.2-0.5,0.1c-0.2-0.1-0.3,0-0.5,0.1
			c0,0.5,0.1,0.8,0.2,1l0.5,0.5l-1.2,0.7c-0.2,0.2-0.2,0.3-0.1,0.5c0.1,0.2,0,0.3-0.4,0.5C1240.5,179.5,1240.5,179.8,1240.5,180.3z
			 M1259.4,160.3c-1.1,0.5-3,2.4-5.8,5.6c-2.7,3.3-5.5,7-8.4,11.2c-2.9,4.2-5.6,8.3-8.1,12.5c-2.5,4.2-4,7.5-4.4,9.9
			c1.9-4.3,4.1-8.4,6.5-12.4c2.4-3.9,4.8-7.6,7.3-10.9c2.5-3.4,4.9-6.4,7.2-9.1C1256.1,164.3,1258,162.1,1259.4,160.3z
			 M1273.9,141.1c-2.1,2.6-4.4,4.1-7,4.6c-2.6,0.5-4.7,0.2-6.5-0.7c-1.8-1-2.9-2.6-3.4-4.8c-0.5-2.2,0.4-4.9,2.6-7.9
			c1.9-2.7,4.2-4.3,6.7-4.8c2.6-0.5,4.8-0.2,6.6,0.8c1.8,1,3,2.7,3.5,5C1277,135.6,1276.1,138.2,1273.9,141.1z"/>
		<path class="st1" d="M1363.3,177.6c1.8-1.8,3.4-3,4.9-3.6c1.5-0.6,2.7-0.8,3.6-0.6c0.9,0.2,1.4,0.9,1.4,2c0.1,1.1-0.4,2.5-1.6,4.1
			c-1,1.3-2.7,3.2-5.2,5.8c-2.5,2.6-5.4,5.3-8.9,8.2c-3.4,2.9-7.2,5.8-11.2,8.8c-4,3-7.9,5.5-11.8,7.6c-6.1,3.4-11.5,5.2-16.1,5.4
			c-4.6,0.2-8.3-0.6-11.1-2.5c-2.7-1.9-4.4-4.8-4.9-8.5c-0.6-3.8,0.3-8,2.5-12.9c2.2-4.8,4.9-9.3,8.1-13.6c3.1-4.2,6.3-8.4,9.5-12.4
			c-5.3,3-10.6,6.9-15.9,11.5c-5.3,4.6-10.3,9.4-15,14.2c-4.7,4.8-8.9,9.4-12.6,13.7c-3.7,4.3-6.6,7.7-8.7,10.1
			c-0.3,0.3-1.3,0.5-2.9,0.5c-1.6,0-3.3-0.2-5-0.5c-1.8-0.3-3.4-0.8-4.8-1.6c-1.4-0.7-2.2-1.6-2.2-2.5c1.8-4.8,3.9-9.9,6.4-15.1
			c2.5-5.3,5.2-10.5,8.1-15.5c2.9-5,5.9-9.8,9.1-14.3c3.2-4.5,6.4-8.3,9.6-11.5c2.1-1.4,4.7-2.3,7.8-2.6c3.1-0.3,6-0.3,8.7,0
			c2.6,0.3,4.8,0.9,6.4,1.7c1.6,0.8,2,1.7,1.2,2.6c-2.4,2.9-5.2,6.1-8.3,9.7c-3.1,3.6-6.4,7.5-9.7,11.7c2.7-2.7,5.6-5.4,8.8-8
			c3.1-2.6,6.4-5.2,9.7-7.8c6.4-5,12.4-8.2,17.9-9.7c5.5-1.5,10-1.7,13.3-0.6c3.4,1.1,5.2,3.4,5.5,6.8c0.3,3.4-1.4,7.7-5.3,12.6
			c-8.8,11.1-15.1,19.7-18.7,26.1c-3.7,6.3-5,9.4-3.8,9.3c2.1,0,5.1-1.1,9-3.4c3.9-2.2,8-4.9,12.1-7.9c4.2-3,8.1-6.2,11.8-9.4
			C1358.8,182.1,1361.5,179.5,1363.3,177.6z M1269.5,213.9c3.8-7.2,7.9-14,12.1-20.3c4.2-6.3,8.3-12,12.1-17.1
			c3.8-5,7.3-9.3,10.3-12.7c3-3.4,5.3-5.9,6.7-7.3c-2.1,1.8-4.8,4.5-8.3,8.3c-3.4,3.8-7.2,8.2-11.2,13.3c-4,5.1-7.9,10.8-11.8,16.9
			C1275.8,201.2,1272.4,207.5,1269.5,213.9z M1304.1,162c-1.8,1.4-4.1,3.8-7,7c-2.9,3.2-5.9,6.9-9.1,11.2c-3.2,4.2-6.4,8.9-9.6,13.9
			c-3.2,5-5.9,10.3-8.2,15.7c3-5.9,6.3-11.5,9.9-16.8c3.5-5.3,6.9-10,10.1-14.2c3.2-4.2,6-7.7,8.5-10.6
			C1301.2,165.4,1303,163.3,1304.1,162z M1272.2,210.8c5.4-8.8,10.8-16.3,16.1-22.6c5.3-6.2,10.3-11.5,14.9-15.9
			c4.6-4.3,8.9-7.8,12.9-10.5c3.9-2.6,7.2-4.8,9.7-6.6c-6.4,3.5-12.2,7.4-17.3,11.5c-5.1,4.2-9.8,8.6-14.1,13.3
			c-4.2,4.7-8.2,9.7-11.8,14.9C1279,200.3,1275.5,205.5,1272.2,210.8z M1307.3,171.4c1.6-1.6,3.1-3,4.6-4.3c1.4-1.3,2.8-2.5,4.1-3.6
			c-2.6,1.8-5.2,3.8-7.8,6.1c-2.6,2.3-5.2,4.7-7.8,7.2c-2.6,2.5-5,5-7.2,7.6c-2.2,2.6-4.2,4.9-5.8,7c1.3-1.6,2.7-3.2,4.2-4.8
			c1.5-1.6,3.3-3.4,5.4-5.3h0.2c0.2,0,0.3-0.1,0.5-0.2c0.2-0.2,0.4-0.3,0.7-0.5l-0.2-1h0.7h0.5v-1c0.3-0.3,0.5-0.6,0.5-0.7
			c0.5,0,1-0.4,1.4-1.2c0.6-0.2,1-0.5,1-1h1.2v-1h1l0.7-1.2c0-0.3,0.2-0.5,0.5-0.5c0.3,0,0.6-0.2,1-0.5c0.2-0.3,0.3-0.5,0.5-0.6
			C1307.2,171.9,1307.3,171.7,1307.3,171.4z M1333,180.3c-2.2,2.2-4.3,4.6-6.1,7.1c-1.8,2.5-3.4,4.8-4.8,7c-1.4,2.2-2.3,4.1-2.9,5.9
			c-0.6,1.8-0.7,3.1-0.4,4.1c-0.3-0.8,0.1-2.4,1.3-4.7c1.2-2.3,2.6-4.8,4.3-7.5c1.7-2.6,3.3-5.1,4.9-7.3
			C1331,182.6,1332.2,181.1,1333,180.3z M1320.2,202.4c-0.8,2.4-0.6,3.8,0.5,4.3c-0.3-1.3,0.4-3.6,2.2-7c1.8-3.4,3.9-6.9,6.4-10.7
			c2.5-3.8,4.9-7.3,7.3-10.7s4.1-5.6,5-6.7c-3.7,4.3-6.8,8.2-9.4,11.7c-2.6,3.4-4.7,6.5-6.5,9.3c-0.8,0.5-1,1-0.7,1.7h-0.5
			c-0.2,0-0.3,0-0.5,0.1c-0.2,0.1-0.3,0.1-0.5,0.1l1,1.2h-1v0.5c0,0.3,0.1,0.6,0.2,0.7l-1.4,0.2v0.2c0,0.3,0.2,0.6,0.5,1l-1-0.2v0.2
			v0.5l-1,0.2v1.2c-0.2,0.2-0.2,0.6-0.2,1.2v0.7c0,0.2,0.1,0.3,0.2,0.5h-0.2c-0.2,0-0.2,0-0.2-0.1
			C1320.5,202.4,1320.4,202.4,1320.2,202.4z"/>
		<path class="st1" d="M1449.8,177.6c1.8-1.8,3.4-3,4.9-3.6c1.5-0.6,2.7-0.8,3.5-0.6c0.8,0.2,1.2,0.9,1.3,2c0.1,1.1-0.4,2.5-1.6,4.1
			c-1.1,1.8-3.7,4.6-7.7,8.4c-4,3.8-8.6,7.7-13.7,11.7c-5.1,3.9-10.5,7.4-16.1,10.5c-5.6,3-10.6,4.6-14.9,4.6h-1
			c-1.3,2.4-3,4.9-5.2,7.5c-2.2,2.6-3.6,4.3-4.4,5.3c-5.8,5.9-11.8,10.2-18,12.9c-6.2,2.6-12,4-17.3,4c-5.3,0-9.7-1-13.3-3.1
			c-3.6-2.1-5.6-5-5.9-8.7c-0.3-2.2,0.3-4.3,1.8-6.1c1.5-1.8,3.6-3.5,6.1-4.9c2.6-1.4,5.6-2.7,9-3.7c3.4-1,7-1.8,10.7-2.3
			c-3.4-1.1-6.2-3-8.5-5.6c-2.3-2.6-3.8-5.9-4.4-9.7c-0.6-3.8-0.2-8.2,1.2-13.2c1.4-5,4.2-10.4,8.4-16.3c4.5-6.4,9.5-11.5,15.1-15.3
			c5.6-3.8,11-6.3,16.2-7.7c5.2-1.4,9.8-1.5,13.8-0.5c4,1,6.7,3.2,8.2,6.4c0.6-0.8,1.3-1.7,2-2.6c0.7-1,1.6-2,2.5-3.1
			c0.5-0.5,1.4-0.8,2.8-1.1c1.4-0.2,2.8-0.3,4.2-0.1c1.4,0.2,2.7,0.4,3.7,0.6c1,0.2,1.4,0.6,1.1,1.1c-0.3,0.5-0.9,1.6-1.7,3.2
			c-0.8,1.7-1.7,3.6-2.8,5.8c-1,2.2-2.1,4.3-3.1,6.4c-1,2.1-1.9,3.8-2.5,5c0.6-1.1,1.5-2.6,2.6-4.4c1.1-1.8,2.2-3.6,3.1-5.4
			c1-1.8,1.8-3.4,2.6-4.8c0.8-1.4,1.3-2.3,1.4-2.6c0.2,0.5-0.1,1.5-0.8,3.1c-0.7,1.6-1.6,3.5-2.8,5.8l-0.5,0.7v0.2
			c0,0.2-0.1,0.2-0.2,0.2c-0.2,0-0.3,0.1-0.5,0.2v1c-0.3,0.2-0.5,0.4-0.5,0.7l-0.5,0.5l0.2,0.5h-0.2h-0.5v0.5l-0.5,0.5
			c-0.2,0-0.2,0.1-0.2,0.2v0.2v0.2c0,0.2,0,0.3-0.1,0.4c-0.1,0.1-0.1,0.2-0.1,0.4c-0.8,1.4-1.7,3.2-2.8,5.2c-1,2-2.1,4.1-3.1,6.3
			c-1,2.2-2.1,4.1-3.1,5.9c-1,1.8-1.8,3.1-2.3,4.1c1.8-2.4,3.7-5.5,5.9-9.4c2.2-3.8,4.2-7.7,6.2-11.5c2-3.8,3.8-7.4,5.4-10.6
			c1.6-3.2,2.7-5.4,3.4-6.5c0.3-0.6,0.8-0.9,1.3-0.7c0.6,0.2,1,0.5,1.4,1c0.4,0.5,0.6,1,0.7,1.6c0.1,0.6-0.1,0.9-0.6,1.1
			c-1,1.9-2.3,4.7-4.1,8.4c-1.8,3.7-3.9,7.8-6.4,12.4c-2.5,4.6-5.2,9.4-8.1,14.5c-2.9,5.1-5.9,10.1-8.9,14.9
			c2.1-0.2,4.9-1.2,8.4-3.1c3.5-1.9,7.2-4.2,10.9-7c3.8-2.7,7.3-5.5,10.7-8.3C1445.4,181.9,1448,179.5,1449.8,177.6z M1345.2,232.4
			c0.3,1.3,1.2,2.2,2.8,2.8c1.5,0.6,3.3,0.8,5.3,0.7c2-0.1,4.2-0.4,6.7-1c2.5-0.6,4.8-1.3,7.1-2.3c-3.8,1.4-7.1,2.3-9.7,2.6
			c-2.6,0.3-4.8,0.4-6.6,0.1c-1.8-0.2-3.1-0.7-4-1.3C1345.9,233.5,1345.4,232.9,1345.2,232.4z M1360.6,233.1
			c-4.2,1.1-7.7,1.2-10.6,0.2c-2.9-1-4.3-1.8-4.3-2.6c0,0.8,0.6,1.6,1.7,2.4c-0.2,0.2-0.2,0.3-0.2,0.5h0.5h0.5
			c0,0.6,0.2,0.8,0.5,0.5h1c0.2,0,0.3-0.1,0.5-0.2v0.5c0.2,0.3,0.5,0.5,1.1,0.5c0.6,0,1-0.2,1.3-0.5
			C1355.3,234.8,1358.1,234.4,1360.6,233.1z M1348.1,227.4c0,1.6,0.9,2.7,2.8,3.4c1.8,0.6,4.1,0.9,6.8,0.7c2.7-0.2,5.6-0.7,8.8-1.6
			c3.1-0.9,5.9-2,8.3-3.5c-4.2,1.8-7.9,3-11.2,3.6c-3.3,0.6-6,0.9-8.3,0.7c-2.2-0.2-4-0.6-5.2-1.2
			C1349,228.9,1348.3,228.2,1348.1,227.4z M1349.3,227.4c0.2,0.8,1.3,1.4,3.4,1.9c2.1,0.5,4.7,0.6,7.9,0.2c3.2-0.3,6.7-1.3,10.6-2.9
			c3.8-1.6,7.7-4.2,11.5-7.7c-4.3-0.2-8.5,0-12.5,0.5c-4,0.5-7.6,1.2-10.7,2c-3.1,0.9-5.6,1.9-7.6,3
			C1350,225.6,1349.2,226.6,1349.3,227.4z M1357.5,220.9c-1.3,0.5-2.5,1-3.6,1.7c0.5-0.2,1.4-0.5,2.8-1c1.4-0.5,3-1,4.9-1.4
			c2.7-0.6,5.8-1.2,9.1-1.7c3.4-0.5,7-0.6,10.8-0.2c-3.7-0.5-8-0.5-13,0h-1.4c-0.2,0.2-0.3,0.2-0.5,0.2c-0.2,0-0.3,0.1-0.5,0.2
			c-0.6-0.3-1.1-0.3-1.4,0c-0.3,0-0.5,0.2-0.5,0.7l-0.2-0.2h-1c-0.2,0-0.4,0.2-0.7,0.5l-0.2-0.2h-0.2l-0.2,0.5l-0.2-0.2h-0.7
			l-0.2,0.2c-0.6,0-1,0.1-1.2,0.2h-0.5c-0.2,0.2-0.3,0.2-0.5,0.2C1357.7,220.9,1357.5,221,1357.5,220.9z M1397.9,195.9
			c5-7.7,8-14.1,9-19.1c1-5,0.6-8.3-1.3-9.6c-1.9-1.4-5-0.7-9.4,2c-4.3,2.7-9.4,7.9-15.1,15.6c-4.6,6.2-7.2,11.4-7.6,15.4
			c-0.4,4,0.4,6.7,2.5,8.2c2.4,1.3,5.4,1.1,8.9-0.5c3.5-1.6,6.5-4.4,8.9-8.4c-0.2,0.6-0.4,1.2-0.6,1.8c-0.2,0.6-0.5,1.1-0.8,1.6
			c0.8-1,1.7-2,2.6-3.1C1395.9,198.6,1396.9,197.3,1397.9,195.9z M1392.3,198.8c0-0.3,0.1-0.5,0.2-0.5c0.2,0,0.3,0.2,0.5,0.5
			c0.2,0.3,0.1,0.5-0.2,0.5C1392.5,199.2,1392.3,199.1,1392.3,198.8z M1395,195.9c0.6,0,0.8,0.4,0.5,1.1c-0.3,0.7-0.6,1.2-1,1.3
			c-0.2-0.3-0.2-0.8-0.2-1.3C1394.3,196.4,1394.5,196,1395,195.9z M1408.7,173.8c1-3.5,0.8-6.2-0.5-8.2l1.4,1.4
			c-0.8-2.1-2-3.2-3.6-3.5c-1.6-0.2-2.9-0.1-3.8,0.4c1.3-0.3,2.2-0.3,2.9,0h-0.2c-0.2,0-0.3,0.1-0.5,0.2h-0.5
			c-0.8,0-1.5,0.2-2.2,0.6c-0.6,0.4-1.4,0.8-2.4,1.3c1-0.3,2-0.6,3.2-0.8c1.2-0.2,2.3-0.1,3.2,0.4c1,0.5,1.7,1.3,2.3,2.5
			C1408.6,169.3,1408.8,171.2,1408.7,173.8z M1403.9,162.7c1.6,0,3.1,0.5,4.4,1.4c1.4,1,2.3,2.6,2.8,5c-0.2-2.9-1-4.8-2.6-5.8
			C1406.8,162.5,1405.3,162.2,1403.9,162.7z"/>
		<path class="st1" d="M1518.7,177.6c1.8-1.9,3.4-3.2,4.9-3.7c1.5-0.6,2.7-0.6,3.6-0.2c0.9,0.4,1.3,1.2,1.3,2.3
			c0,1.1-0.6,2.5-1.9,4.1c-0.8,1.1-2.3,2.9-4.6,5.3c-2.2,2.4-5,5-8.2,7.9c-3.2,2.9-6.8,5.8-10.7,8.7c-3.9,2.9-8.1,5.4-12.4,7.7
			c-6.6,3.5-12.6,5.5-18,6c-5.4,0.5-10.1,0-13.8-1.4c-3.8-1.4-6.6-3.6-8.5-6.6c-1.9-3-2.7-6.3-2.4-10c1.3-4.6,3.7-8.2,7.2-10.6
			c3.5-2.4,6.4-3.4,8.7-2.9c-2.7,1.6-4.2,3.8-4.4,6.5c-0.2,2.7,0.1,5,1.1,6.7c-0.6-1.8-0.8-3.3-0.6-4.7c0.2-1.4,0.6-2.5,1.2-3.5
			c0.6-1,1.2-1.7,1.9-2.3c0.7-0.6,1.3-0.9,1.8-1.1c-1.6,1.1-2.7,2.6-3.2,4.3c-0.6,1.8-0.7,3.5-0.4,5.2c0.3,1.7,1,3.1,2.2,4.3
			c1.1,1.2,2.6,1.8,4.6,1.8c4.6,0,7.5-3,8.7-9.1c1.1-6.1-0.8-15.1-5.8-26.9c-2.6,3-5.5,6.3-8.8,9.9c-3.3,3.5-5.9,6.2-7.8,8.2
			c-0.8,0.8-1.7,1.1-2.6,1c-1-0.2-1.8-0.5-2.4-1.1c-0.6-0.6-1-1.4-1.2-2.4c-0.2-1,0.2-2,1.2-3c1-1,2.4-2.6,4.3-4.8
			c1.9-2.2,3.9-4.6,5.9-7.1c2-2.5,3.8-4.7,5.4-6.6c1.6-1.9,2.6-3,2.9-3.4c2.9-3.4,5.7-6.6,8.4-9.7c2.7-3.1,5.4-5.7,8.1-7.7
			c2.6-2,5.1-3.2,7.3-3.5c2.2-0.3,4.3,0.7,6.2,3.1c1.8,2.2,2,4.2,0.8,6c-1.2,1.8-2.8,3.3-4.9,4.6c-2.4,1.6-5.4,3-8.9,4.1
			c6.1,9.1,9.9,17.3,11.4,24.6c1.5,7.3,1.9,13.3,1.1,18.1c4.3-3,8.5-6.2,12.5-9.6C1513.9,182.7,1516.8,179.9,1518.7,177.6z
			 M1460.1,206c3.5,1.6,7.6,1.4,12.3-0.5c-3.8,1.3-7,1.6-9.4,0.8c-2.4-0.7-4.2-1.8-5.5-3.4c-1.3-1.5-2.1-3.2-2.5-5
			c-0.4-1.8-0.6-3.3-0.6-4.4c-0.8,3-0.6,5.6,0.7,7.7c-0.2,0.2-0.2,0.4-0.2,0.7c0,0.2,0.1,0.2,0.2,0.2l-0.2,1.2l1.2-0.2
			c-0.2,0.2-0.2,0.4-0.2,0.7c0,0.2-0.1,0.3-0.2,0.5h0.7c0.6,0,1.1-0.1,1.4-0.2c0,0.3,0,0.6-0.1,1c-0.1,0.3,0,0.5,0.4,0.5
			c0,0.5,0.2,0.5,0.7,0l0.5-0.5l0.2,1.2C1459.7,206.7,1459.9,206.6,1460.1,206z M1458.2,193.5c-0.3,3,0.3,5.4,1.8,7.2
			c1.5,1.8,3.3,2.9,5.4,3.4c2.1,0.5,4.2,0.3,6.4-0.5c2.2-0.8,3.7-2.3,4.7-4.6c-1.6,1.9-3.4,3.2-5.4,3.8c-2,0.6-3.9,0.7-5.8,0.1
			c-1.8-0.6-3.4-1.6-4.8-3.2C1459.1,198.1,1458.3,196,1458.2,193.5z M1465.4,183.6c0.2,0.3,0.2,0.6,0,0.7c-0.2,0.2-0.4,0.2-0.7,0.2
			c-0.2-0.2-0.2-0.4,0-0.8C1464.8,183.4,1465.1,183.3,1465.4,183.6z M1494.5,196.6c1-5.8,0.8-11.3-0.5-16.6c0.5,1.4,1.1,4.3,1.9,8.7
			c-0.2-4.6-0.9-9.3-2.3-13.8c-1.4-4.6-2.8-7.9-4.4-10c1,1.9,1.9,4,2.8,6.4c0.9,2.3,1.2,3.6,0.8,4c-1.3-3.8-2.7-7.3-4.2-10.3
			c-1.5-3-2.9-5.4-4.2-7.2c3.7,6.4,6.3,12.8,7.9,19.2C1493.9,183.3,1494.6,189.9,1494.5,196.6z M1494.7,145.7
			c-1.1,1.3-2.8,2.4-5,3.4c2.4-1,4.1-2,5.2-3.1c1-1.1,1.6-2.2,1.7-3.2c0.1-1-0.1-1.9-0.6-2.6c-0.5-0.7-1-1.2-1.4-1.6
			c1.4,1.1,2,2.6,1.7,4.6c-0.3,0.2-0.6,0.3-0.7,0.5l-0.2,0.2l0.2,0.7l-0.2,0.2l-0.5-0.2V145.7z M1489.9,149.7c5-2.1,7.6-4.3,7.8-6.6
			c0.2-2.3-0.4-4.1-2-5.4c1.3,1.8,1.8,3.7,1.4,5.9C1496.8,145.8,1494.4,147.8,1489.9,149.7z"/>
		<path class="st1" d="M1814.8,177.6c1.8-1.8,3.4-3,4.9-3.6c1.5-0.6,2.7-0.8,3.6-0.6c0.9,0.2,1.4,0.9,1.4,2c0.1,1.1-0.4,2.5-1.6,4.1
			c-1,1.3-2.7,3.2-5.2,5.8c-2.5,2.6-5.4,5.3-8.9,8.2c-3.4,2.9-7.2,5.8-11.2,8.8c-4,3-7.9,5.5-11.8,7.6c-6.1,3.4-11.5,5.2-16.1,5.4
			c-4.6,0.2-8.3-0.6-11.1-2.5c-2.7-1.9-4.4-4.8-4.9-8.5c-0.6-3.8,0.3-8,2.5-12.9c2.2-4.8,4.9-9.3,8.1-13.6c3.1-4.2,6.3-8.4,9.5-12.4
			c-5.3,3-10.6,6.9-15.9,11.5c-5.3,4.6-10.3,9.4-15,14.2c-4.7,4.8-8.9,9.4-12.6,13.7c-3.7,4.3-6.6,7.7-8.7,10.1
			c-0.3,0.3-1.3,0.5-2.9,0.5c-1.6,0-3.3-0.2-5-0.5c-1.8-0.3-3.4-0.8-4.8-1.6c-1.4-0.7-2.2-1.6-2.2-2.5c1.8-4.8,3.9-9.9,6.4-15.1
			c2.5-5.3,5.2-10.5,8-15.5c2.9-5,5.9-9.8,9.1-14.3c3.2-4.5,6.4-8.3,9.6-11.5c2.1-1.4,4.7-2.3,7.8-2.6c3.1-0.3,6-0.3,8.7,0
			c2.6,0.3,4.8,0.9,6.4,1.7c1.6,0.8,2,1.7,1.2,2.6c-2.4,2.9-5.2,6.1-8.3,9.7c-3.1,3.6-6.4,7.5-9.7,11.7c2.7-2.7,5.6-5.4,8.8-8
			c3.1-2.6,6.4-5.2,9.7-7.8c6.4-5,12.4-8.2,17.9-9.7c5.5-1.5,10-1.7,13.3-0.6c3.4,1.1,5.2,3.4,5.5,6.8c0.3,3.4-1.4,7.7-5.3,12.6
			c-8.8,11.1-15.1,19.7-18.7,26.1c-3.7,6.3-5,9.4-3.8,9.3c2.1,0,5.1-1.1,9-3.4c3.9-2.2,8-4.9,12.1-7.9c4.2-3,8.1-6.2,11.8-9.4
			C1810.3,182.1,1813,179.5,1814.8,177.6z M1721.1,213.9c3.8-7.2,7.9-14,12.1-20.3c4.2-6.3,8.3-12,12.1-17.1
			c3.8-5,7.3-9.3,10.3-12.7c3-3.4,5.3-5.9,6.7-7.3c-2.1,1.8-4.8,4.5-8.3,8.3c-3.4,3.8-7.2,8.2-11.2,13.3c-4,5.1-7.9,10.8-11.8,16.9
			C1727.3,201.2,1724,207.5,1721.1,213.9z M1755.7,162c-1.8,1.4-4.1,3.8-7,7c-2.9,3.2-5.9,6.9-9.1,11.2c-3.2,4.2-6.4,8.9-9.6,13.9
			c-3.2,5-5.9,10.3-8.2,15.7c3-5.9,6.3-11.5,9.9-16.8c3.5-5.3,6.9-10,10.1-14.2c3.2-4.2,6-7.7,8.5-10.6
			C1752.8,165.4,1754.6,163.3,1755.7,162z M1723.7,210.8c5.4-8.8,10.8-16.3,16.1-22.6c5.3-6.2,10.3-11.5,14.9-15.9
			c4.6-4.3,8.9-7.8,12.9-10.5c3.9-2.6,7.2-4.8,9.7-6.6c-6.4,3.5-12.2,7.4-17.3,11.5c-5.1,4.2-9.8,8.6-14.1,13.3
			c-4.2,4.7-8.2,9.7-11.8,14.9C1730.6,200.3,1727.1,205.5,1723.7,210.8z M1758.8,171.4c1.6-1.6,3.1-3,4.6-4.3
			c1.4-1.3,2.8-2.5,4.1-3.6c-2.6,1.8-5.2,3.8-7.8,6.1c-2.6,2.3-5.2,4.7-7.8,7.2c-2.6,2.5-5,5-7.2,7.6c-2.2,2.6-4.2,4.9-5.8,7
			c1.3-1.6,2.7-3.2,4.2-4.8c1.5-1.6,3.3-3.4,5.4-5.3h0.2c0.2,0,0.3-0.1,0.5-0.2c0.2-0.2,0.4-0.3,0.7-0.5l-0.2-1h0.7h0.5v-1
			c0.3-0.3,0.5-0.6,0.5-0.7c0.5,0,1-0.4,1.4-1.2c0.6-0.2,1-0.5,1-1h1.2v-1h1l0.7-1.2c0-0.3,0.2-0.5,0.5-0.5c0.3,0,0.6-0.2,1-0.5
			c0.2-0.3,0.3-0.5,0.5-0.6C1758.7,171.9,1758.8,171.7,1758.8,171.4z M1784.5,180.3c-2.2,2.2-4.3,4.6-6.1,7.1
			c-1.8,2.5-3.4,4.8-4.8,7c-1.4,2.2-2.3,4.1-2.9,5.9c-0.6,1.8-0.7,3.1-0.4,4.1c-0.3-0.8,0.1-2.4,1.3-4.7c1.2-2.3,2.6-4.8,4.3-7.5
			c1.7-2.6,3.3-5.1,4.9-7.3C1782.5,182.6,1783.7,181.1,1784.5,180.3z M1771.8,202.4c-0.8,2.4-0.6,3.8,0.5,4.3
			c-0.3-1.3,0.4-3.6,2.2-7c1.8-3.4,3.9-6.9,6.4-10.7c2.5-3.8,4.9-7.3,7.3-10.7c2.4-3.4,4.1-5.6,5-6.7c-3.7,4.3-6.8,8.2-9.4,11.7
			c-2.6,3.4-4.7,6.5-6.5,9.3c-0.8,0.5-1,1-0.7,1.7h-0.5c-0.2,0-0.3,0-0.5,0.1c-0.2,0.1-0.3,0.1-0.5,0.1l1,1.2h-1v0.5
			c0,0.3,0.1,0.6,0.2,0.7l-1.4,0.2v0.2c0,0.3,0.2,0.6,0.5,1l-1-0.2v0.2v0.5l-1,0.2v1.2c-0.2,0.2-0.2,0.6-0.2,1.2v0.7
			c0,0.2,0.1,0.3,0.2,0.5h-0.2c-0.2,0-0.2,0-0.2-0.1C1772,202.4,1772,202.4,1771.8,202.4z"/>
		<path class="st1" d="M1648.3,173.4c-0.8-0.2-2,0-3.5,0.6c-1.5,0.6-3.2,1.8-4.9,3.6c-1.9,1.9-4.7,4.5-8.4,7.7
			c-3.7,3.2-7.6,6.3-11.8,9.3c-4.2,3-8.2,5.6-12,7.8c-3.8,2.2-6.8,3.4-8.9,3.4c-0.5,0-0.2-1,0.7-2.9c1-1.9,2.6-4.6,4.8-8.2
			c2.2-3.5,5-7.7,8.4-12.5c3.4-4.8,7.2-10,11.5-15.6c3.8-5,5.4-9.1,4.8-12.5c-0.6-3.4-2.7-5.6-6.1-6.7c-3.4-1.1-7.9-0.8-13.5,0.8
			c-5.5,1.7-11.2,5-16.9,10c-3.8,3.4-7.5,6.7-10.8,10.1c1.4-3.5,1.7-6.3,0.7-8.3c-1-2-2.8-3.1-5.6-3.2c-2.8-0.2-6.5,0.7-10.9,2.5
			c-4.5,1.8-9.5,4.9-15.1,9.3c-4.6,3.7-8.7,7.1-12.3,10.1c3.7-4.5,7.2-8.7,10.5-12.5c3.3-3.8,6.2-7.3,8.8-10.3
			c0.6-0.8,0.5-1.5-0.4-2.2c-0.9-0.6-2.2-1.1-4-1.4c-0.8,0.8-1.7,1.8-2.8,3.1c-1,1.3-2.1,2.6-3.2,3.8c-1.1,1.3-2.2,2.6-3.1,3.8
			c-1,1.3-1.8,2.2-2.4,2.9c0.6-0.8,1.4-2,2.4-3.5c1-1.5,2-3.1,3.1-4.7c1.1-1.8,2.4-3.7,3.8-5.8c-0.3,0.3-0.7,0.7-1.2,1.1
			c-0.5,0.4-0.9,0.8-1.2,1.1c-0.5,0.5-0.9,0.8-1.2,1c0.6-0.8,1.1-1.5,1.3-2.2c0.2-0.6,0.5-1.1,0.8-1.4c-2.7-0.3-5.6-0.3-8.5,0.1
			c-3,0.4-5.6,1.2-7.8,2.5c-3.2,3.2-6.4,7.1-9.6,11.5c-3.2,4.5-6.2,9.3-9.1,14.3c-2.9,5-5.6,10.2-8.1,15.5
			c-2.5,5.3-4.6,10.3-6.4,15.1c0,1,0.7,1.8,2,2.5c1.4,0.7,2.9,1.2,4.6,1.6c1.7,0.3,3.2,0.5,4.7,0.5s2.3-0.2,2.6-0.5
			c7.2-8.7,15-16.7,23.4-24c8.4-7.4,16.2-13.1,23.4-17.3c-1.6,2.2-3.3,4.9-5.2,8.1c-1.8,3.1-3.7,6.3-5.5,9.5c-1.8,3.2-3.5,6.3-5,9.3
			c-1.5,3-2.8,5.5-3.7,7.6c1.8,3.5,3.5,5.8,5.2,6.7c1.7,1,3.4,1,5.2,0.2c8.8-11.5,17.6-22,26.3-31.4c8.7-9.4,16.7-16.6,23.9-21.7
			c-3.2,3.8-6.8,8.5-10.9,14.1s-7.3,10.7-9.5,15.5c-2.2,4.8-3.1,9.1-2.5,12.9c0.6,3.8,2.2,6.6,4.9,8.5c2.7,1.9,6.4,2.8,11.1,2.5
			c4.6-0.2,10-2,16.1-5.2c3.8-2.1,7.8-4.6,11.8-7.6c4-3,7.7-5.9,11.1-8.8c3.4-2.9,6.3-5.6,8.8-8c2.5-2.5,4.2-4.4,5.2-5.9
			c1.1-1.6,1.6-3,1.6-4.1C1649.5,174.3,1649.1,173.7,1648.3,173.4z M1589.4,166.1c2.9-2.4,5.5-4.5,7.9-6.2c0-0.2,0-0.3,0.1-0.4
			c0.1-0.1,0.1-0.2,0.1-0.4v-0.2l0.2,0.5l0.5-0.5l0.5-1c0.2,0.2,0.3,0.2,0.4,0.2s0.2,0.1,0.4,0.2c0.2,0.2,0.3,0.2,0.5,0.2
			c0-0.3-0.1-0.6-0.2-0.7c-0.2-0.2-0.1-0.3,0.2-0.5c0.3-0.2,0.4-0.3,0.2-0.4c-0.2-0.1-0.1-0.3,0.2-0.6c0.3-0.2,0.5-0.2,0.6,0
			c0.1,0.2,0.3,0.3,0.6,0.5c0.2-0.2,0.3-0.3,0.4-0.5c0.1-0.2,0.2-0.3,0.4-0.5l0.5-0.5c0.2,0,0.4,0.2,0.7,0.5
			c0.2,0.2,0.3,0.2,0.5,0.2c0-0.2,0-0.3,0.1-0.5c0.1-0.2,0.1-0.4,0.1-0.7v-0.7c0.3,0,0.6,0.1,1,0.2c0.3,0.2,0.5,0.2,0.5,0
			c0-0.3,0.3-0.6,0.8-0.7c0.6-0.2,1-0.2,1.3-0.2c0.3-0.5,0.7-0.6,1.2-0.5c2.7-1,4.8-1.3,6.4-1.1c1.5,0.2,2.4,0.7,2.8,1.3
			c-3.5-0.5-7.3,0.2-11.2,1.9c-3.9,1.8-7.7,3.9-11.2,6.5c-3.5,2.6-6.7,5.2-9.6,7.8c-2.9,2.6-5,4.4-6.2,5.4
			C1583.4,171.5,1586.5,168.5,1589.4,166.1z M1529,193.2c2.6-2.7,5.4-5.3,8.4-7.8c3-2.5,5.9-4.8,8.8-6.9c2.9-2.1,5.4-3.6,7.5-4.6
			c-2.9,1.8-6,4-9.4,6.6c-3.4,2.6-6.5,5.3-9.5,8.1c-3,2.7-5.5,5.2-7.7,7.5c-2.2,2.2-3.6,3.8-4.2,4.6
			C1524.3,198.4,1526.3,196,1529,193.2z M1548.4,180c-5.2,4-10.1,8.1-14.8,12.4c-4.6,4.2-8.7,8.3-12.1,12c-2.8,3.1-4.9,5.4-6.2,6.9
			c-0.2,0.3-0.5,0.6-0.7,0.9c0.2-0.2,0.4-0.5,0.7-0.9c5.1-6.4,10.3-12.3,15.6-17.6c0-0.2,0.1-0.3,0.2-0.5c0-0.2,0.1-0.3,0.2-0.5
			l0.7,0.2v-0.7V192l0.2-0.2c0.2,0.2,0.3,0.2,0.5,0.2h0.2v-0.7c0.2,0,0.3-0.1,0.5-0.2c0.2,0,0.3,0,0.4-0.1c0.1-0.1,0.2-0.1,0.4-0.1
			c0.5-0.5,0.6-0.7,0.5-0.7v-0.5c0-0.2,0.1-0.2,0.2-0.2l0.2,0.7c0.3-0.3,0.5-0.6,0.5-0.7v-0.5l0.2-0.5l0.5,0.2V188h0.2
			c0.2,0,0.3,0,0.4-0.1c0.1-0.1,0.2-0.1,0.4-0.1h0.7c0.2-0.3,0.3-0.7,0.5-1.1c0.2-0.4,0.4-0.6,0.7-0.6l0.5-0.5h0.2
			c0-0.2,0.2-0.5,0.7-1l0.5-0.5h0.5l0.2-0.7l0.2-0.2l0.2-0.5c0.2,0,0.3-0.1,0.5-0.2c0.2,0,0.3,0,0.4-0.1c0.1-0.1,0.2-0.1,0.4-0.1
			c3.8-3.2,7.4-5.8,10.8-7.7c3.4-1.9,6.2-3,8.6-3.4C1558.6,173.1,1553.6,176,1548.4,180z M1575.2,185.4c-4,4.2-7.7,8.3-11.1,12.1
			c-3.4,3.8-6.2,7.2-8.5,10.2c-2.3,3-3.9,5-4.7,6.1c1.1-2.1,3.2-5,6.1-8.9c3-3.8,6.3-7.9,10-12.1c3.7-4.2,7.4-8.2,11.1-11.8
			c3.7-3.6,6.7-6.2,9.1-7.8C1583.2,177.1,1579.2,181.2,1575.2,185.4z M1594.3,164c-0.7,0.5-1.1,0.8-1.3,0.9
			C1593.4,164.6,1593.8,164.3,1594.3,164c0.5-0.3,1-0.8,1.7-1.3c1.7-1.3,3.6-2.6,5.9-4c2.2-1.4,4.6-2.6,7.1-3.6
			c2.5-1,4.8-1.5,6.9-1.3c-0.5,0.2-1.2,0.4-2.3,0.6c-1,0.2-2.5,0.7-4.3,1.4c-1.8,0.7-4.1,1.8-6.7,3.1
			C1600.2,160.2,1597.4,161.9,1594.3,164z M1581.2,207.7c-1-2.4-1.3-4.9-1.1-7.5c0.2-2.6,0.9-5,1.9-7.3c1-2.3,2-4.1,3-5.4
			c-1,1.9-1.8,3.8-2.4,5.8c-0.6,1.9-1.1,3.8-1.4,5.8c-0.2,0.2-0.3,0.2-0.5,0.2c-0.2,0-0.2,0.1-0.2,0.2l1,0.2l-0.2,0.5l-0.2,0.2
			c0.3,0,0.5,0.1,0.5,0.2c0,0.6-0.1,1-0.2,1.2c0.2,0.2,0.2,0.4,0.2,0.6c0,0.2-0.1,0.4-0.2,0.4v0.7h0.5c-0.2,0.3-0.2,0.6-0.2,1v0.2
			l-0.2,0.5c0.2,0,0.2,0.1,0.2,0.2c1.1,3.2,2.9,5.7,5.3,7.5C1584,211.8,1582.2,210.1,1581.2,207.7z M1583,207.4
			c-0.9-2.4-1.2-4.9-1-7.6c0.2-2.6,0.8-5.1,1.8-7.5c1-2.3,2-4.1,3.1-5.4c-1.1,1.8-2,3.6-2.8,5.6c-0.7,2-1.2,4-1.6,6.1l0.2-0.2
			l0.2-0.2c0-0.8,0.2-1.8,0.5-2.9c0.3-1.1,0.7-1.9,1.2-2.4c-0.2,0.5-0.4,1.3-0.6,2.5c-0.2,1.2-0.4,2.5-0.6,4c-0.2,1.4-0.2,3,0,4.7
			c0.2,1.7,0.6,3.2,1.4,4.7c-0.5-0.5-0.9-1.3-1.3-2.4c-0.4-1.1-0.7-2.2-0.8-3.1c-0.2-0.2-0.3-0.2-0.5-0.2c0.5,4.5,2.6,7.8,6.2,9.9
			C1585.8,211.7,1583.9,209.8,1583,207.4z"/>
		<g>
			<path class="st1" d="M1671.3,209.1c0,0.2,0,0.5,0.1,0.7c0,0,0.1,0,0.1,0C1671.5,209.6,1671.4,209.4,1671.3,209.1z"/>
			<path class="st1" d="M1696.7,211c0.1,0.1,0.2,0.1,0.3,0.2c0.6-0.4,1.2-0.9,1.8-1.3C1698,210.2,1697.3,210.6,1696.7,211z"/>
			<path class="st1" d="M1677.6,146.1c0.5-0.2,0.7-0.4,0.6-0.8c-0.1-0.4-0.3-0.5-0.6-0.4c-0.5,0-0.7,0.2-0.7,0.6
				C1676.9,145.9,1677.1,146.1,1677.6,146.1z"/>
			<path class="st1" d="M1681.8,145.5c0.9-0.1,1.2-0.6,1.1-1.6c-0.2-1.1-0.7-1.4-1.6-0.7c-0.9,0.6-1.2,1.1-1.1,1.4
				C1680.4,145.3,1680.9,145.6,1681.8,145.5z"/>
			<path class="st1" d="M1636.5,215.6c1.6,1.1,3.4,2,5.4,2.6c0.3-0.3,0.6-0.5,0.9-0.8C1640.7,217.1,1638.6,216.5,1636.5,215.6z"/>
			<path class="st1" d="M1693.5,172c0.3-0.4,0.6-0.8,1-1.3C1694.2,170.8,1693.9,171.3,1693.5,172z"/>
			<path class="st1" d="M1644.3,216.2c0.4-0.3,0.8-0.7,1.3-1c-1.7-0.2-3.2-0.7-4.4-1.4c-1.8-1-3.4-2.2-4.6-3.6
				c-1.2-1.4-2.1-2.7-2.6-4.1c-0.6-1.4-0.8-2.4-0.8-3.2c0.8,2.2,2.4,4.8,4.7,7.6c1.9,2.3,4.6,3.8,8,4.6c5.1-4,9.9-6,15.2-6.5
				c0.8-0.1,1.6-0.1,2.4-0.1c2.4,0,4.7,0.3,6.8,1c0.6-0.6,1.1-1.3,1.6-2c0.2,1.1,0.7,2.2,1.2,3.1c0.5,0.2,0.9,0.5,1.4,0.7
				c2.3-1.3,4.8-2.2,7.4-2.6c1.4-0.2,2.7-0.3,4-0.3c3.6,0,7,0.8,10.1,2.2c0.2-0.1,0.4-0.2,0.6-0.3c5.5-3,10.9-6.5,16.1-10.5
				c5.2-3.9,9.9-7.9,13.9-11.9c4.1-4,6.8-7,8-8.9c1-1.3,1.4-2.4,1.2-3.5c-0.2-1-0.7-1.7-1.6-2c-0.9-0.3-2-0.2-3.4,0.4
				c-1.4,0.6-2.8,1.6-4.4,3.2c-1.9,2.2-5,5.1-9.4,8.7c-4.3,3.5-8.8,6.8-13.5,9.9c1.6-1.4,2.9-2.8,3.8-4.1c-2.7,2.4-5.5,4.6-8.4,6.7
				c-2.9,2.1-5.4,3.6-7.7,4.6c-2.2,1-3.8,1.1-4.8,0.5c-1-0.6-0.8-2.6,0.5-5.8c3-6.9,7.3-13.6,12.7-20.2c5.4-6.6,10.8-12,16.1-16.3
				c0.2-0.5-0.4-1.4-1.6-2.9c-1.2-1.4-2.4-2.8-3.7-4.1c-2.1,0.8-4.6,2.6-7.4,5.5c-2.9,2.9-5.2,5.9-7,9.1c0.8-1.1,2-2.5,3.5-4.1
				c1.5-1.6,2.5-2.5,3-2.6c-1.4,1.6-2.8,3.3-4.2,5c-1.4,1.8-2.6,3.4-3.8,4.8c-1.2,1.4-2.2,2.7-3,3.8c-0.8,1.1-1.3,1.8-1.4,2.2
				c0.3-0.8,1-2.1,2.2-4c0.5-0.8,0.9-1.4,1.2-1.9c-0.4,0.5-0.8,1-1.1,1.4c-0.6,0.7-1.2,1.5-1.8,2.3c0.6-1.1,1.3-2.2,1.9-3.4
				c0.6-1.1,1.6-2.6,2.9-4.3c0-0.3,0.2-0.6,0.5-1l0.5-0.5c0.2,0,0.2-0.1,0.2-0.2c0-0.2,0.1-0.3,0.2-0.5c0.2-0.2,0.2-0.3,0.2-0.5h1
				c0-0.2,0.1-0.3,0.2-0.5c0-0.2,0.1-0.2,0.2-0.2c-0.2-0.2-0.2-0.4-0.2-0.7c0-0.2,0.1-0.2,0.2-0.2h0.7c0.2-0.2,0.2-0.3,0.2-0.5v-0.5
				l0.5-0.2v-0.7c0-0.2,0.1-0.2,0.2-0.2c0.2-0.2,0.2-0.4,0.1-0.7c-0.1-0.3,0-0.4,0.4-0.2c0.2,0,0.3,0,0.5-0.1c0.2-0.1,0.4,0,0.7,0.1
				c0.2-0.3,0.2-0.6,0.1-0.8c-0.1-0.2,0-0.4,0.4-0.4c0.2-0.2,0.3-0.4,0.5-0.6c0.2-0.2,0.4-0.4,0.7-0.4c2.1-2.4,4-4.1,5.8-5
				c-1.3-0.8-2.6-1.4-4.1-1.8c-1.4-0.4-2.8-0.4-4.1,0.1c-1.4,0.5-3.3,1.5-5.5,3.1c-1.3-1.8-3.5-3-6.6-3.8c-3.1-0.8-6-0.9-8.5-0.2
				c1.8-0.5,3.7-0.8,5.9-1c2.2-0.2,4.4,0,6.9,0.5c-1.9-2.1-4.8-3.2-8.5-3.5c-3.8-0.2-6.9,0-9.3,0.8c1.3-1.6,1-2.6-0.8-3.1
				c-1.8-0.5-4.5,0-8,1.6c-3.5,1.5-7.5,4.2-12,8.2c-4.5,3.9-8.8,9.4-13,16.5c-6.1,10.4-9.2,19.1-9.4,26.1c-0.2,7,1.4,12.1,4.8,15.5
				C1639,214.2,1641.5,215.6,1644.3,216.2z M1691.9,176.2c2-3,4.1-5.9,6.4-8.6c2.2-2.7,4.4-5.1,6.5-7.1c2.1-2,3.8-3.2,5-3.7
				c-1.6,1.4-3.4,3.2-5.4,5.3c-2,2.1-4,4.4-6,6.9c-2,2.5-4,5.1-5.9,7.8c-1.9,2.7-3.7,5.4-5.3,7.9
				C1688.3,182,1689.9,179.2,1691.9,176.2z M1686.5,155.4c2.9,0.2,5.4,0.5,7.7,0.8l-2.4,2.4c-2.1-2.1-6.2-2.9-12.5-2.4
				C1681.2,155.4,1683.6,155.1,1686.5,155.4z M1669.2,168.6c2.9-2.8,5.6-4.9,8-6.2c2.5-1.4,4.8-2.2,6.9-2.4c2.1-0.2,3.9-0.1,5.5,0.4
				c-2.9,3.8-5.2,7.4-7.1,10.7c-1.8,3.3-3.5,6.3-5,9.1c-1.5,2.8-3,5.4-4.4,7.9c-1.4,2.5-3.1,4.8-5,7.1c-3,3.7-5.9,6-8.4,6.9
				c-2.6,0.9-4.4,0.6-5.5-1c-1.1-1.5-1.3-4.1-0.6-7.7c0.7-3.6,2.8-8.1,6.4-13.3C1663.2,175.2,1666.3,171.4,1669.2,168.6z
				 M1651.2,194.3c0.5-2.5,2.1-5.6,4.8-9.5c-2.2,3.5-3.6,6.7-4,9.6c-0.4,2.9-0.2,5.2,0.6,6.8c0.8,1.7,2.2,2.6,4.2,2.6
				c2,0.1,4.4-0.9,7.3-3c-3.2,3.5-5.9,5.3-8.2,5.3c-0.2,0.2-0.4,0.2-0.7,0.1c-0.3-0.1-0.6-0.1-0.7-0.1c0-0.2,0-0.3-0.1-0.4
				c-0.1-0.1-0.1-0.2-0.1-0.4c-0.2,0-0.2,0-0.2,0.1c0,0.1-0.1,0.1-0.2,0.1h-0.2l-0.5-0.5h-0.5v-1c0-0.2-0.1-0.2-0.2-0.2
				c-0.3,0-0.5-0.1-0.5-0.2c0-0.2,0-0.3-0.1-0.4c-0.1-0.1-0.1-0.2-0.1-0.4h-0.2v-0.7c-0.2-0.2-0.2-0.3-0.2-0.5v-0.7
				C1650.7,199.1,1650.7,196.8,1651.2,194.3z"/>
		</g>
	</g>
	<path class="st1" d="M1691.2,32.3"/>
	<g>
		<path class="st1" d="M1553.2,101.2c9,14.6,19.1,27.2,32.6,35.3c3.4,2,6,4.2,8.1,6.6c4.1-2.6,8.2-4.5,12.3-5.7
			c4.4-1.3,8.4-2,12.1-2c2.9,0,5.6,0.4,8.1,1.2c7.4,2.4,12.4,8,13.8,15.4c0,0.2,0.1,0.4,0.1,0.6c2.2-2.6,4.4-4.9,6.7-6.9
			c5.4-4.7,10.3-8,15-10.1c4.2-1.8,7.8-2.7,11.1-2.7c1,0,2,0.1,2.9,0.2c2.4-1.3,4.6-1.6,6.1-1.6c4,0,7.5,1.9,9.7,5
			c3.1,1,5.6,2.4,7.4,3.8c1.3-0.3,2.7-0.5,4-0.5c1.6,0,3.3,0.2,4.9,0.7c2.5,0.7,4.9,1.7,7.1,3.1c0.2,0.1,0.3,0.2,0.4,0.3
			c1,0.5,1.9,1.2,2.8,2c1.5,1.5,3,3.2,4.4,4.8c0.5,0.6,1.5,1.8,2.3,3.3c2.3-2.9,4.6-5.5,7-7.9c0.5-0.5,1-0.9,1.6-1.3
			c3.7-2.5,8.1-4.1,13.1-4.6c2-0.2,3.9-0.3,5.7-0.3c1.9,0,3.7,0.1,5.5,0.3c4,0.5,7.3,1.4,10.1,2.8c0.8,0.4,1.5,0.8,2.2,1.3
			c3.1-1.6,6.2-2.8,9.3-3.6c2.5-0.7,4.7-1.1,6.9-1.4c-3.5-18.7-21.8-24-34.4-16.4c-0.7-10.6-6.9-17.6-15.9-21.9
			c-7.7-3.6-15.7-6.9-23.9-8.8c-41.1-9.4-82.4-8.1-123.6-0.9c-4.7,0.8-9.3,2.5-14.5,3.9c7,2.8,13,5.2,18.9,7.6
			C1579.7,107.9,1567,104,1553.2,101.2z M1703.9,111.9c-8.3-2.1-14.1-3.2-17.3-3.5c3.2-0.1,7.1,0.2,11.9,1.1
			c4.8,0.9,9.6,2.1,14.3,3.5c4.8,1.4,9.1,2.9,13,4.5c3.9,1.6,6.6,2.9,8,4C1722.2,117.2,1712.2,113.9,1703.9,111.9z M1669.8,96.4
			c2.3-0.1,5.2,0,8.8,0.2c3.5,0.2,7.6,0.6,12.1,1.3c4.5,0.7,9.3,1.7,14.3,3.1c5,1.4,10.2,3.3,15.5,5.6c5.3,2.3,10.6,5.2,15.8,8.7
			c-4.4-2.3-9-4.5-13.8-6.7c-4.8-2.2-10.1-4.1-15.8-5.8c-5.7-1.7-11.9-3.1-18.7-4.2c-6.7-1.1-14.3-1.8-22.5-2
			C1666.1,96.6,1667.5,96.5,1669.8,96.4z M1658,100.3c0.7,0.2,1.2,0.4,1.4,0.6c0.2,0.2,0.4,0.3,0.6,0.3l0.6-1.4
			c0.1,0.1,0.3,0.2,0.6,0.3c0.2,0.1,0.3,0.1,0.4,0.3l0.8-0.6c0.3,0,0.7,0.1,1.2,0.2c0.7,0.2,1.6,0.6,2.7,1.2l1.9-0.6l1.7,1.1
			c0.6-0.3,1.4-0.5,2.5-0.7c0.5-0.1,1.1-0.2,1.8-0.3l0.6,0.3l1.9-0.1l0.9,0.9c0.4,0.4,0.7,0.7,1.1,0.8c0.7-0.4,1.5-0.7,2.5-1
			c1-0.3,1.7-0.2,2.2,0.2c0.2-0.1,0.8-0.2,1.6-0.1c0.8,0.1,1.4,0.2,1.8,0.3c5.9,0.8,11.6,1.9,16.9,3.2c5.4,1.3,10.1,2.7,14.3,4.2
			c4.2,1.5,7.8,3,10.7,4.5c3,1.5,5.2,3,6.7,4.4c-7.4-2.7-15.1-5.3-23-7.7s-16.5-4.4-25.6-5.9c-9.1-1.5-18.9-2.4-29.3-2.6
			c-10.4-0.2-21.7,0.5-34,2.3C1635,101.7,1646.5,100.4,1658,100.3z"/>
		<path class="st1" d="M1629.2,226.2c0-1-0.1-2-0.9-2.6c-0.5-0.4-1.3-0.4-1.9-0.3c-1.7,0.3-3.3,1.3-4.2,2.8
			c-1.1,1.9-1.2,4.4,0.2,6.1c1.5,1.9,4.2,2.1,6.5,1.7c4.6-0.8,8.2-3.5,11.7-6.3c3.1-2.5,6-5.2,9.2-7.6c3.5-2.7,7.3-4.8,11.9-5.2
			c4.5-0.4,8.5,0.7,12,3.5c0.3,0.2,0.6,0.4,0.9,0.6c2.4-2.1,5.1-3.6,8.2-4c4.4-0.6,8.6,0,12.2,2.4c3.7,2.5,7.2,5.3,10.7,8.1
			c3.5,2.8,6.7,5.9,10.9,7.5c1.9,0.7,4,1.1,6,1.1c4.4,0,5.5-3.1,4.8-6.5c-0.4-2.3-3.2-4.2-5.6-4.2c-1.6,0-1.9,0.4-2.2,3
			c-0.9-1.1-1.6-2.2-1-3.4c0.4-0.8,1.5-1.6,2.3-1.7c5.2-0.7,11.8,5.5,11.6,10.8c-0.1,2.5-1.3,4.5-3.1,6.1
			c-5.9,5.1-12.8,7.6-20.5,7.8c-8.1,0.3-16-0.2-23.8-2.6c-4-1.2-7.6-3.2-10.5-6.3c-1.7,1.3-3.3,2.7-5.1,3.8
			c-3.9,2.5-8.4,3.4-12.9,4.1c-6.9,1.1-13.8,1.5-20.7,0.6c-6.3-0.9-12-3.3-16.7-7.7c-3.8-3.6-3.9-9,0-12.5c2.1-1.9,7-5.7,10-3.8
			c0.8,0.5,1.2,1.4,1.2,2.4C1630.4,224.7,1629.9,225.6,1629.2,226.2z"/>
		<path class="st1" d="M1735.1,49.1c-0.5,0.2-0.9,0.3-1.1,0.5c-3.6,3.1-7,6.2-10.7,9.2c-1.8,1.5-2.7,3-2.7,5.5
			c-0.1,6.1-6.3,10.4-11.9,8.7c-4-1.2-6.3-3.9-7-8c-0.6-3.8,1.1-6.6,4-8.8c1.7-1.2,1.8-1.9,0.4-3.6c-5.3-6.4-9.8-13.3-12-21.5
			c-0.2-0.5-0.1-1.4-0.9-1.3c-0.4,0-0.8,0.6-1,1.1c-4.1,7.3-9.7,13.3-16.6,18.2c-1.7,1.2-2,2.1-0.4,3.6c2.7,2.6,3.1,6,2,9.4
			c-1.5,4.8-6.7,7.3-11.8,5.8c-4.6-1.3-7.6-6.3-6.3-11.1c0.5-2,0.3-3.4-1-5c-2.3-2.8-4.2-5.7-6.5-8.5c-1.1-1.3-1.8-3-4-4.1
			c0.5,1.7,0.8,3,1.1,4.2c2.8,10.1,4.9,20.3,4.9,30.8c0,2.4,0.7,3.4,2.5,3.8c4.4,0.3,17,0.6,29.8,2.1c15.8,1.8,32,4.7,33.3,4.9
			c1.3,0.1,2.1-0.5,2.4-1.9c2.2-10.9,6.8-20.8,12.1-30.4C1734.4,51.6,1735.2,50.6,1735.1,49.1z"/>
	</g>
	<g>
		<g>
			<path class="st1" d="M1320.6,261.8h11.5c2.9,0,5.2,0.8,6.7,2.3c1.1,1.1,1.7,2.5,1.7,4.3v0.1c0,3.1-1.8,4.7-3.7,5.7
				c3,1,5.1,2.8,5.1,6.2v0.1c0,4.6-3.8,7-9.5,7h-11.9V261.8z M1336.1,269c0-2-1.6-3.3-4.5-3.3h-6.5v6.8h6.2
				C1334.1,272.6,1336.1,271.4,1336.1,269L1336.1,269z M1332.2,276.4h-7.1v7h7.5c3.1,0,5-1.2,5-3.5v-0.1
				C1337.5,277.7,1335.8,276.4,1332.2,276.4z"/>
			<path class="st1" d="M1361.3,261.6h4.2l11.3,25.9h-4.8l-2.6-6.2h-12.1l-2.6,6.2h-4.6L1361.3,261.6z M1367.8,277.2l-4.4-10.3
				l-4.4,10.3H1367.8z"/>
			<path class="st1" d="M1386.4,261.8h11.4c3.2,0,5.8,1,7.4,2.6c1.4,1.4,2.1,3.3,2.1,5.5v0.1c0,4.2-2.5,6.7-6.1,7.8l6.9,9.7h-5.4
				l-6.3-8.9h-5.6v8.9h-4.5V261.8z M1397.5,274.5c3.2,0,5.3-1.7,5.3-4.3v-0.1c0-2.8-2-4.3-5.3-4.3h-6.6v8.6H1397.5z"/>
			<path class="st1" d="M1418,261.8h11.5c2.9,0,5.2,0.8,6.7,2.3c1.1,1.1,1.7,2.5,1.7,4.3v0.1c0,3.1-1.8,4.7-3.7,5.7
				c3,1,5.1,2.8,5.1,6.2v0.1c0,4.6-3.8,7-9.5,7H1418V261.8z M1433.4,269c0-2-1.6-3.3-4.5-3.3h-6.5v6.8h6.2
				C1431.5,272.6,1433.4,271.4,1433.4,269L1433.4,269z M1429.6,276.4h-7.1v7h7.5c3.1,0,5-1.2,5-3.5v-0.1
				C1434.9,277.7,1433.1,276.4,1429.6,276.4z"/>
			<path class="st1" d="M1449.6,261.8h19v4h-14.5v6.7h12.9v4h-12.9v6.9h14.7v4h-19.2V261.8z"/>
			<path class="st1" d="M1488.4,261.6h4.2l11.3,25.9h-4.8l-2.6-6.2h-12.1l-2.6,6.2h-4.6L1488.4,261.6z M1494.9,277.2l-4.4-10.3
				l-4.4,10.3H1494.9z"/>
			<path class="st1" d="M1513.4,261.8h11.4c3.2,0,5.8,1,7.4,2.6c1.4,1.4,2.1,3.3,2.1,5.5v0.1c0,4.2-2.5,6.7-6.1,7.8l6.9,9.7h-5.4
				l-6.3-8.9h-5.6v8.9h-4.5V261.8z M1524.5,274.5c3.2,0,5.3-1.7,5.3-4.3v-0.1c0-2.8-2-4.3-5.3-4.3h-6.6v8.6H1524.5z"/>
			<path class="st1" d="M1545.3,261.8h4.5v25.7h-4.5V261.8z"/>
			<path class="st1" d="M1570.9,261.6h4.2l11.3,25.9h-4.8l-2.6-6.2h-12.1l-2.6,6.2h-4.6L1570.9,261.6z M1577.4,277.2l-4.4-10.3
				l-4.4,10.3H1577.4z"/>
		</g>
		<rect x="1282.6" y="274.9" class="st1" width="19" height="4"/>
		<rect x="1602.6" y="274.9" class="st1" width="19" height="4"/>
	</g>
</g>
</svg>
