<?xml version="1.0" encoding="utf-8"?>
<!-- Generator: Adobe Illustrator 22.0.1, SVG Export Plug-In . SVG Version: 6.00 Build 0)  -->
<svg version="1.1" id="Camada_1" xmlns="http://www.w3.org/2000/svg" xmlns:xlink="http://www.w3.org/1999/xlink" x="0px" y="0px"
	 viewBox="0 0 743.1 266" style="enable-background:new 0 0 743.1 266;" xml:space="preserve">
<style type="text/css">
	.st0{fill:#25375B;}
	.st1{fill:#603813;}
	.st2{fill:#FFFFFF;}
</style>
<g>
	<g>
		<path class="st0" d="M184.4,21.8c1.6,0.9,3.2,2.7,4.8,5.2s3.1,5.2,4.2,8.1c1.2,2.9,2.1,5.7,2.7,8.4c0.6,2.7,0.8,4.6,0.5,5.7
			c-1.6,7.7-6,16.1-13.3,25.3s-16.6,18.1-27.8,26.6c-11.2,8.6-24,16.2-38.2,23s-29.1,11.5-44.7,14.1c3.5,5,8.3,10.8,14.4,17.2
			s12.6,12.6,19.4,18.5s13.4,11.1,19.8,15.7c6.4,4.6,11.6,7.5,15.7,9c-1.1,1.3-2.9,2.8-5.3,4.7c-2.4,1.9-5.1,3.7-8,5.4
			c-2.9,1.7-5.8,3.1-8.6,4.2c-2.8,1.1-5.1,1.4-6.8,0.9c-3.1-1.1-7.1-4-11.9-8.6s-9.8-10.2-15-16.6c-5.2-6.4-10.3-13.4-15.2-20.7
			c-4.9-7.4-9.2-14.4-12.6-21c-10.8,17.8-22.6,37.3-35.4,58.7c-4.7-0.5-8.7-1.4-12-2.7s-5.4-2.6-6.4-3.7
			c10.5-21.5,21.2-42.1,32.1-61.7s21.1-37.2,30.9-52.9C77.4,69,86.2,55.7,94.1,44.7s14.1-18.6,18.6-22.9c1.1,0.2,2.7,0.7,4.8,1.8
			c2.1,1,4.2,2.3,6.4,3.9c2.1,1.6,3.9,3.3,5.4,5.1s2.2,3.5,2,5.1c-5.5,6-13.2,16.2-23,30.8c-9.8,14.5-21.7,33-35.7,55.5
			c14-5.8,27.1-13,39.4-21.7c12.3-8.6,23.1-17.8,32.5-27.3c9.4-9.6,17.2-19.1,23.3-28.5s10.1-17.8,11.8-25c0.6,0.9,1.1,2.3,1.3,4.1
			c0.2,1.8,0,4-0.6,6.5s-1.7,5.5-3.3,9s-3.9,7.3-6.8,11.6c3.3-3.3,5.9-6.7,7.9-10.1c2-3.5,3.5-6.6,4.5-9.4c1-2.8,1.6-5.3,1.8-7.3
			C184.5,23.5,184.5,22.3,184.4,21.8z M40.6,161.6c3.5-6.6,7.5-13.9,12.1-21.9s9.5-16.2,14.6-24.6S77.6,98.3,83,89.9
			c5.3-8.4,10.4-16.3,15.2-23.6c4.8-7.3,9.2-13.8,13.2-19.6c4-5.7,7.3-10.2,9.8-13.3c-0.6,0-2.4,1.8-5.3,5.5s-6.6,8.7-11.1,15.1
			s-9.5,13.8-15,22.3s-11.2,17.5-17,27s-11.5,19.3-17.1,29.2C50.2,142.5,45.1,152.2,40.6,161.6z M108.9,37.6c-0.5,0-1.9,1.5-4.4,4.4
			c-2.4,2.9-5.4,6.9-9,12c-3.5,5.1-7.5,11-12,17.8s-9.1,14-13.8,21.7c-4.7,7.7-9.4,15.7-14,23.9c-4.6,8.3-8.9,16.3-12.8,24.2
			c1.9-3.6,3.8-7.1,5.9-10.6c2-3.5,4.2-7,6.4-10.6s4.6-7.4,7.1-11.4c2.5-4,5.3-8.4,8.5-13.1c0.3,0,0.6-0.2,0.9-0.7s0.5-0.9,0.7-1.4
			c0.2-0.6,0.2-1.3,0.2-2.1l4.2-3.5v-0.9c0-0.5-0.3-1.3-0.9-2.4c0.8-0.3,1.8-1,3.1-2.1c1.3-1.1,1.9-2,1.9-2.8
			c0.3-0.3,0.7-0.7,1.1-1.2s0.8-0.9,1.3-1.4c0.6-0.5,1.2-0.9,1.6-1.4c0.8,0,1.1-0.5,0.9-1.4s-0.2-1.7,0-2.4c0.2-0.3,0.9-0.8,2.1-1.4
			c0.6-0.3,1.3-0.5,1.9-0.7c-0.2-0.5-0.2-0.9-0.1-1.2c0.1-0.3,0.1-0.6,0.1-0.9v-0.9c0.6-0.2,0.9-0.9,0.9-2.1c0-0.6-0.1-1.2-0.2-1.6
			c0.3-0.3,1.3-0.5,3.1-0.5h2.6L95,57.2c0.3-0.8,0.9-1.1,1.8-1.1c0.9,0.1,1.1-0.3,0.8-1.1c3.6-5.5,6.2-9.5,7.9-12
			C107.2,40.5,108.3,38.7,108.9,37.6z M68.1,121.5c2.8-5.2,6-10.6,9.5-16.4c3.5-5.7,7.1-11.5,10.7-17.3C92,82,95.6,76.4,99.1,71
			s6.8-10.4,9.8-14.9s5.5-8.3,7.7-11.4c2.1-3.1,3.7-5.3,4.6-6.6c-0.8-0.2-2.5,1.4-5.1,4.7s-5.6,7.5-9.1,12.7s-7.2,11-11.2,17.4
			s-7.9,12.8-11.6,19s-7,12-9.9,17.3C71.5,114.6,69.4,118.7,68.1,121.5z M74,135.4c0.9-0.2,3.3-0.7,7.2-1.6
			c3.8-0.9,8.6-2.4,14.4-4.4c5.7-2,12.2-4.6,19.3-7.8c7.1-3.2,14.5-7.1,22.2-11.8c7.6-4.6,15.3-10.1,23-16.4s15-13.5,21.9-21.7
			c-6.1,5.8-12.7,11.6-19.6,17.4c-6.9,5.8-14.7,11.4-23.3,16.9c-8.6,5.4-18.3,10.6-28.9,15.6C99.6,126.6,87.6,131.2,74,135.4z
			 M128.5,103.4c-12.9,7.5-24,13.4-33.5,17.6c-9.4,4.2-16,6.7-19.8,7.7c3.8-0.5,8.4-1.7,13.9-3.8c5.5-2,10.9-4.4,16.3-7.1
			c5.3-2.7,10.2-5.3,14.5-8S127.1,104.9,128.5,103.4z M147.8,98c5.8-4.2,11.2-8.6,16.1-13c5-4.4,9.2-8.6,12.8-12.5s6.6-7.5,8.8-10.8
			c2.3-3.3,3.8-6.1,4.6-8.5c-6.3,7.1-13,14.1-20,21.2c-7.1,7.1-15,14-23.8,20.7c-8.8,6.8-18.7,13.2-29.6,19.3
			c-10.9,6.1-23.4,11.7-37.4,16.7c13.5-3.6,26.4-8.6,38.7-15.1c0.6-0.6,1-1.1,1.2-1.4s0.3-0.5,0.5-0.7l1.4,1.2
			c0-0.2,0.2-0.4,0.5-0.7c0.2-0.2,0.2-0.3,0.2-0.5l1.2,0.2c0.3-0.2,0.7-0.5,1.2-0.9c0.6-0.6,1.3-1.6,2.1-2.8l2.4-0.5l1.2-2.1
			c0.8,0,1.8-0.2,3.1-0.7c0.6-0.2,1.3-0.4,2.1-0.7l0.5-0.7l2.1-0.9l0.5-1.4c0.2-0.6,0.4-1.1,0.7-1.4c0.9,0,2-0.1,3.2-0.4
			c1.2-0.2,1.9-0.7,2.2-1.5c0.3,0,0.9-0.3,1.8-0.8C146.9,98.7,147.5,98.3,147.8,98z M176.6,22.3c0.9-0.5,1.4-0.1,1.3,1.1
			c-0.1,1.2-0.3,2.1-0.6,2.7c-0.3-0.5-0.7-1.1-1.1-1.9C175.8,23.4,176,22.7,176.6,22.3z"/>
		<path class="st0" d="M196.4,151.9c3.5-3.6,6.2-5,8.3-4.2c2,0.8,2.1,2.7,0.2,5.7c-0.8,1.3-2.4,3.1-4.7,5.4c-2.4,2.4-5.1,5-8.4,7.8
			c-3.2,2.8-6.8,5.7-10.6,8.6c-3.9,2.9-7.7,5.4-11.4,7.4c1.9-0.8,3.7-1.6,5.5-2.6c1.8-0.9,3.4-1.9,4.8-2.8
			c-4.9,3.9-9.6,6.7-14.3,8.2c-4.6,1.6-8.3,2.5-11,2.8h-0.5h-1.2c-5.7,0-9.5-1.7-11.4-5.2c-2-3.5-2.3-8-1.1-13.7
			c1.3-5.7,4-12,8.3-19.1c4.2-7.1,9.7-14.3,16.5-21.7c1.1-1.3,3.1-2.1,6.1-2.6s5.9-0.6,8.7-0.4s5.1,0.8,6.8,1.6
			c1.7,0.9,2,1.9,0.9,3.2c-4.9,5.5-9.5,11.1-13.8,16.7c-4.3,5.7-7.9,10.8-10.8,15.4c-2.9,4.6-4.9,8.4-6,11.2s-0.9,4.2,0.7,4.2
			c2,0,4.9-1,8.5-3.1c3.6-2,7.3-4.5,11.2-7.3c3.8-2.8,7.5-5.7,10.8-8.6C192.1,156.2,194.7,153.8,196.4,151.9z M152.1,186.6
			c2.2,0.2,4.6-0.2,7.2-0.9c2.6-0.8,5.1-1.8,7.5-3.1s4.8-2.6,7-4.1s4-2.9,5.4-4.4c-6.3,5-12.1,8.4-17.3,10
			C156.6,185.8,153.3,186.6,152.1,186.6z M162.7,154.3c-0.6,0.3-0.9,0.9-0.9,1.6c-1.3,2.4-2.5,4.7-3.7,7.1c-1.2,2.4-2.2,4.5-2.9,6.4
			c1.9-4.2,4-8.3,6.5-12.3c2.4-3.9,4.9-7.6,7.4-11s4.9-6.4,7.2-9.1c2.3-2.7,4.1-4.9,5.5-6.6c-0.5-0.3-1.4,0.2-2.8,1.6
			c-1.4,1.4-3.1,3.3-4.9,5.7c-0.2,0-0.3,0-0.4,0.1c-0.1,0.1-0.2,0.1-0.4,0.1h-0.2v0.2v0.5c-0.3,0-0.6,0.1-0.7,0.2
			c0,0.2,0,0.4-0.1,0.6c-0.1,0.2,0,0.5,0.4,0.8c-0.2,0-0.3,0-0.4-0.1c-0.1-0.1-0.2-0.1-0.4-0.1h-0.2c-0.2,0.2-0.2,0.3-0.2,0.5v0.2
			v0.7c-0.3,0-0.5,0.3-0.5,0.9c-0.2,0-0.4,0.2-0.7,0.5v0.5c-0.2,0-0.4,0-0.7-0.1s-0.6-0.1-0.7-0.1c0,0.3,0,0.7,0,1.1
			c0,0.4,0.1,0.7,0.2,1.1h-0.7h-0.5c-0.2,0.2-0.2,0.4-0.2,0.7v0.5c-0.2,0.2-0.2,0.5-0.2,0.9c0,0.3-0.1,0.6-0.2,0.7
			c-0.2,0.2-0.5,0.2-0.9,0.2h-0.5c-0.2,0.2-0.3,0.4-0.5,0.7c-0.3,0.6-0.5,1-0.5,1.2c-0.2,0.2-0.3,0.2-0.5,0.1
			c-0.2-0.1-0.3,0-0.5,0.1c0,0.5,0.1,0.8,0.2,0.9l0.5,0.5l-1.2,0.7c-0.2,0.2-0.2,0.3-0.1,0.5c0.1,0.2,0,0.3-0.4,0.5
			C162.8,153.6,162.7,153.8,162.7,154.3z M181.3,134.7c-1.1,0.5-3,2.3-5.7,5.5s-5.4,6.9-8.3,11c-2.8,4.1-5.5,8.2-7.9,12.3
			s-3.9,7.3-4.4,9.7c1.9-4.2,4-8.3,6.4-12.1s4.8-7.4,7.2-10.7s4.8-6.3,7.1-9C178,138.7,179.9,136.5,181.3,134.7z M195.5,115.9
			c-2,2.5-4.3,4-6.8,4.5s-4.6,0.2-6.4-0.7c-1.7-0.9-2.8-2.5-3.3-4.7s0.4-4.8,2.6-7.8c1.9-2.7,4.1-4.2,6.6-4.7s4.7-0.2,6.5,0.8
			s2.9,2.7,3.4,5C198.5,110.5,197.7,113,195.5,115.9z"/>
		<path class="st0" d="M283.2,151.7c1.7-1.7,3.3-2.9,4.8-3.5s2.7-0.8,3.5-0.6c0.9,0.2,1.3,0.9,1.4,2s-0.4,2.4-1.5,4
			c-0.9,1.3-2.6,3.1-5.1,5.7c-2.4,2.5-5.3,5.2-8.7,8c-3.4,2.8-7,5.7-11,8.6c-3.9,2.9-7.8,5.4-11.6,7.4c-6,3.3-11.2,5.1-15.8,5.3
			s-8.2-0.6-10.8-2.5c-2.7-1.9-4.3-4.7-4.8-8.4c-0.6-3.7,0.3-7.9,2.5-12.6c2.2-4.7,4.8-9.2,7.9-13.3c3.1-4.2,6.2-8.2,9.3-12.1
			c-5.2,3-10.4,6.8-15.6,11.3c-5.2,4.6-10.1,9.2-14.7,13.9c-4.6,4.7-8.8,9.2-12.4,13.4c-3.6,4.2-6.4,7.5-8.5,9.9
			c-0.3,0.3-1.3,0.5-2.8,0.5c-1.6,0-3.2-0.2-4.9-0.5s-3.3-0.8-4.7-1.5s-2.1-1.5-2.1-2.5c1.7-4.7,3.8-9.7,6.2-14.9s5.1-10.3,7.9-15.2
			c2.8-4.9,5.8-9.6,9-14c3.1-4.4,6.3-8.2,9.4-11.3c2-1.4,4.6-2.3,7.7-2.6c3.1-0.3,5.9-0.3,8.5,0s4.7,0.9,6.2,1.6
			c1.6,0.8,2,1.6,1.2,2.6c-2.4,2.8-5.1,6-8.1,9.5c-3.1,3.5-6.2,7.3-9.5,11.4c2.7-2.7,5.5-5.3,8.6-7.9c3.1-2.6,6.2-5.1,9.5-7.7
			c6.3-4.9,12.1-8.1,17.6-9.5c5.4-1.5,9.8-1.7,13.1-0.6s5.1,3.3,5.4,6.7c0.3,3.4-1.4,7.5-5.2,12.4c-8.6,10.8-14.8,19.4-18.4,25.6
			c-3.6,6.2-4.9,9.2-3.8,9.1c2,0,5-1.1,8.8-3.3s7.8-4.8,11.9-7.8s7.9-6,11.6-9.2C278.7,156.1,281.4,153.6,283.2,151.7z M191.2,187.3
			c3.8-7.1,7.7-13.7,11.9-19.9s8.1-11.8,11.9-16.7c3.8-5,7.1-9.1,10.1-12.5s5.2-5.8,6.6-7.2c-2,1.7-4.8,4.4-8.1,8.1
			c-3.4,3.7-7,8.1-11,13.1c-3.9,5-7.8,10.6-11.6,16.6C197.3,174.9,194,181,191.2,187.3z M225.2,136.4c-1.7,1.4-4,3.7-6.8,6.8
			s-5.8,6.8-9,11c-3.1,4.2-6.3,8.7-9.4,13.7c-3.1,5-5.8,10.1-8,15.4c3-5.8,6.2-11.3,9.7-16.5s6.8-9.8,9.9-13.9
			c3.1-4.1,5.9-7.5,8.4-10.4C222.3,139.7,224.1,137.6,225.2,136.4z M193.8,184.2c5.3-8.6,10.6-16,15.8-22.2
			c5.2-6.1,10.1-11.3,14.6-15.6c4.6-4.2,8.8-7.7,12.6-10.3s7-4.8,9.5-6.5c-6.3,3.5-11.9,7.2-17,11.3c-5,4.1-9.6,8.5-13.8,13.1
			s-8,9.5-11.6,14.6C200.5,173.9,197.1,179.1,193.8,184.2z M228.2,145.6c1.6-1.6,3.1-3,4.5-4.2c1.4-1.3,2.7-2.4,4-3.5
			c-2.5,1.7-5.1,3.7-7.7,6c-2.6,2.3-5.1,4.6-7.7,7.1c-2.5,2.4-4.9,4.9-7.1,7.4c-2.2,2.5-4.1,4.8-5.7,6.8c1.3-1.6,2.6-3.1,4.1-4.7
			c1.5-1.6,3.3-3.3,5.3-5.2h0.2c0.2,0,0.3-0.1,0.5-0.2c0.2-0.2,0.4-0.3,0.7-0.5l-0.2-0.9h0.7h0.5v-0.9c0.3-0.3,0.5-0.6,0.5-0.7
			c0.5,0,0.9-0.4,1.4-1.2c0.6-0.2,0.9-0.5,0.9-0.9h1.2v-0.9h0.9l0.7-1.2c0-0.3,0.2-0.5,0.5-0.5s0.6-0.2,0.9-0.5
			c0.2-0.3,0.3-0.5,0.5-0.6C228.1,146.1,228.2,145.9,228.2,145.6z M253.4,154.3c-2.2,2.2-4.2,4.5-6,7c-1.8,2.4-3.4,4.7-4.7,6.8
			s-2.3,4-2.8,5.8c-0.6,1.7-0.7,3.1-0.4,4c-0.3-0.8,0.1-2.3,1.3-4.6s2.6-4.7,4.2-7.3c1.6-2.6,3.3-5,4.8-7.2
			C251.5,156.6,252.7,155.1,253.4,154.3z M241,176c-0.8,2.4-0.6,3.8,0.5,4.2c-0.3-1.3,0.4-3.5,2.1-6.8c1.7-3.3,3.8-6.8,6.2-10.5
			s4.8-7.2,7.2-10.5s4-5.5,5-6.6c-3.6,4.2-6.7,8.1-9.2,11.4c-2.5,3.4-4.6,6.4-6.4,9.1c-0.8,0.5-1,1-0.7,1.6h-0.5
			c-0.2,0-0.3,0-0.5,0.1s-0.3,0.1-0.5,0.1l0.9,1.2h-0.9v0.5c0,0.3,0.1,0.6,0.2,0.7l-1.4,0.2v0.2c0,0.3,0.2,0.6,0.5,0.9l-0.9-0.2v0.2
			v0.5l-0.9,0.2v1.2c-0.2,0.2-0.2,0.6-0.2,1.2v0.7c0,0.2,0.1,0.3,0.2,0.5h-0.2c-0.2,0-0.2,0-0.2-0.1C241.2,176,241.1,176,241,176z"
			/>
		<path class="st0" d="M368,151.7c1.7-1.7,3.3-2.9,4.8-3.5s2.6-0.8,3.4-0.6s1.2,0.9,1.3,2c0.1,1.1-0.4,2.4-1.5,4
			c-1.1,1.7-3.6,4.5-7.5,8.2c-3.9,3.8-8.4,7.6-13.4,11.4c-5,3.9-10.3,7.3-15.8,10.3s-10.4,4.5-14.6,4.5h-0.9
			c-1.3,2.4-2.9,4.8-5.1,7.3c-2.1,2.5-3.6,4.2-4.4,5.2c-5.7,5.8-11.6,10-17.7,12.6s-11.8,3.9-17,3.9s-9.5-1-13.1-3.1
			c-3.5-2-5.5-4.9-5.8-8.5c-0.3-2.2,0.3-4.2,1.8-6s3.5-3.4,6-4.8c2.5-1.4,5.5-2.6,8.8-3.7c3.4-1,6.9-1.8,10.5-2.2
			c-3.3-1.1-6.1-2.9-8.4-5.5s-3.7-5.8-4.4-9.5c-0.6-3.8-0.2-8.1,1.2-13c1.4-4.9,4.2-10.2,8.3-16c4.4-6.3,9.3-11.3,14.9-15
			c5.5-3.7,10.8-6.2,15.9-7.5s9.6-1.5,13.6-0.5c3.9,1,6.6,3.1,8,6.2c0.6-0.8,1.3-1.6,2-2.6c0.7-0.9,1.5-2,2.5-3.1
			c0.5-0.5,1.4-0.8,2.7-1.1c1.3-0.2,2.7-0.3,4.1-0.1s2.6,0.4,3.7,0.6c1,0.2,1.4,0.6,1.1,1.1s-0.9,1.5-1.7,3.2
			c-0.8,1.6-1.7,3.5-2.7,5.7c-1,2.1-2,4.2-3.1,6.2c-1,2-1.8,3.7-2.5,4.9c0.6-1.1,1.5-2.6,2.6-4.4c1.1-1.8,2.1-3.6,3.1-5.3
			c0.9-1.7,1.8-3.3,2.6-4.7c0.8-1.4,1.3-2.3,1.4-2.6c0.2,0.5-0.1,1.5-0.8,3.1c-0.7,1.6-1.6,3.5-2.7,5.7l-0.5,0.7v0.2
			c0,0.2-0.1,0.2-0.2,0.2c-0.2,0-0.3,0.1-0.5,0.2v0.9c-0.3,0.2-0.5,0.4-0.5,0.7L347,138l0.2,0.5H347h-0.5v0.5l-0.5,0.5
			c-0.2,0-0.2,0.1-0.2,0.2v0.2v0.2c0,0.2,0,0.3-0.1,0.4c-0.1,0.1-0.1,0.2-0.1,0.4c-0.8,1.4-1.7,3.1-2.7,5.1s-2,4-3.1,6.1
			c-1,2.1-2,4-3.1,5.8c-1,1.7-1.8,3.1-2.2,4c1.7-2.4,3.7-5.4,5.8-9.2c2.1-3.8,4.2-7.5,6.1-11.3c2-3.8,3.7-7.2,5.3-10.4
			c1.6-3.1,2.7-5.3,3.3-6.4c0.3-0.6,0.7-0.9,1.3-0.7c0.5,0.2,1,0.5,1.4,0.9c0.4,0.5,0.6,1,0.7,1.5c0.1,0.6-0.1,0.9-0.6,1.1
			c-0.9,1.9-2.3,4.6-4,8.2s-3.8,7.7-6.2,12.1c-2.4,4.5-5.1,9.2-7.9,14.3c-2.8,5-5.7,9.9-8.7,14.6c2-0.2,4.8-1.2,8.3-3.1
			c3.5-1.9,7-4.2,10.7-6.8c3.7-2.7,7.2-5.4,10.5-8.1C363.8,155.9,366.3,153.6,368,151.7z M265.5,205.5c0.3,1.3,1.2,2.2,2.7,2.7
			s3.2,0.8,5.2,0.7s4.2-0.4,6.6-0.9c2.4-0.6,4.8-1.3,7-2.2c-3.8,1.4-7,2.3-9.5,2.6c-2.6,0.3-4.8,0.4-6.5,0.1c-1.7-0.2-3-0.7-3.9-1.3
			C266.1,206.5,265.6,205.9,265.5,205.5z M280.6,206.2c-4.1,1.1-7.5,1.2-10.4,0.2c-2.8-0.9-4.2-1.8-4.2-2.6c0,0.8,0.6,1.6,1.6,2.4
			c-0.2,0.2-0.2,0.3-0.2,0.5h0.5h0.5c0,0.6,0.2,0.8,0.5,0.5h0.9c0.2,0,0.3-0.1,0.5-0.2v0.5c0.2,0.3,0.5,0.5,1.1,0.5s1-0.2,1.3-0.5
			C275.4,207.8,278,207.4,280.6,206.2z M268.3,200.5c0,1.6,0.9,2.7,2.7,3.3c1.8,0.6,4,0.9,6.7,0.7s5.5-0.7,8.6-1.5
			c3.1-0.9,5.8-2,8.1-3.4c-4.1,1.7-7.7,2.9-11,3.5c-3.2,0.6-5.9,0.9-8.1,0.7s-3.9-0.6-5.1-1.2C269.1,202,268.5,201.3,268.3,200.5z
			 M269.5,200.5c0.2,0.8,1.3,1.4,3.3,1.9s4.6,0.5,7.8,0.2c3.1-0.3,6.6-1.3,10.4-2.8c3.8-1.6,7.5-4.1,11.3-7.5
			c-4.2-0.2-8.3,0-12.3,0.5c-3.9,0.5-7.4,1.1-10.5,2s-5.5,1.8-7.4,2.9C270.2,198.8,269.3,199.7,269.5,200.5z M277.5,194.1
			c-1.3,0.5-2.4,1-3.5,1.6c0.5-0.2,1.4-0.5,2.7-0.9c1.3-0.5,2.9-0.9,4.8-1.4c2.7-0.6,5.7-1.2,9-1.6c3.3-0.5,6.8-0.6,10.6-0.2
			c-3.6-0.5-7.9-0.5-12.7,0H287c-0.2,0.2-0.3,0.2-0.5,0.2s-0.3,0.1-0.5,0.2c-0.6-0.3-1.1-0.3-1.4,0c-0.3,0-0.5,0.2-0.5,0.7l-0.2-0.2
			H283c-0.2,0-0.4,0.2-0.7,0.5l-0.2-0.2h-0.2l-0.2,0.5l-0.2-0.2h-0.7l-0.2,0.2c-0.6,0-1,0.1-1.2,0.2h-0.5c-0.2,0.2-0.3,0.2-0.5,0.2
			C277.7,194.1,277.5,194.3,277.5,194.1z M317.1,169.6c4.9-7.5,7.8-13.8,8.8-18.7c1-5,0.6-8.1-1.3-9.4c-1.9-1.3-4.9-0.7-9.2,2
			c-4.2,2.7-9.2,7.8-14.9,15.3c-4.6,6.1-7,11.2-7.4,15.1c-0.4,3.9,0.4,6.6,2.5,8c2.4,1.3,5.3,1.1,8.7-0.5c3.5-1.6,6.4-4.3,8.7-8.3
			c-0.2,0.6-0.4,1.2-0.6,1.8s-0.5,1.1-0.8,1.5c0.8-0.9,1.6-2,2.6-3.1C315.2,172.3,316.2,171,317.1,169.6z M311.7,172.5
			c0-0.3,0.1-0.5,0.2-0.5c0.2,0,0.3,0.2,0.5,0.5s0.1,0.5-0.2,0.5C311.8,172.9,311.7,172.8,311.7,172.5z M314.3,169.6
			c0.6,0,0.8,0.4,0.5,1.1c-0.3,0.7-0.6,1.1-0.9,1.3c-0.2-0.3-0.2-0.7-0.2-1.3C313.6,170.1,313.8,169.8,314.3,169.6z M327.7,147.9
			c0.9-3.5,0.8-6.1-0.5-8l1.4,1.4c-0.8-2-2-3.2-3.5-3.4c-1.6-0.2-2.8-0.1-3.8,0.4c1.3-0.3,2.2-0.3,2.8,0h-0.2
			c-0.2,0-0.3,0.1-0.5,0.2H323c-0.8,0-1.5,0.2-2.1,0.6c-0.6,0.4-1.4,0.8-2.4,1.3c0.9-0.3,2-0.6,3.2-0.8s2.2-0.1,3.2,0.4
			c0.9,0.5,1.7,1.3,2.2,2.5C327.7,143.6,327.9,145.4,327.7,147.9z M323,137.1c1.6,0,3,0.5,4.4,1.4c1.3,0.9,2.2,2.6,2.7,5
			c-0.2-2.8-1-4.7-2.6-5.7C325.9,136.9,324.4,136.6,323,137.1z"/>
		<path class="st0" d="M435.7,151.7c1.7-1.9,3.3-3.1,4.8-3.7c1.5-0.5,2.7-0.6,3.5-0.2c0.9,0.4,1.3,1.1,1.3,2.2c0,1.1-0.6,2.4-1.9,4
			c-0.8,1.1-2.3,2.8-4.5,5.2s-4.9,5-8,7.8s-6.6,5.7-10.5,8.5s-7.9,5.3-12.1,7.5c-6.4,3.5-12.3,5.4-17.7,5.9c-5.3,0.5-9.9,0-13.6-1.4
			s-6.5-3.6-8.4-6.5s-2.7-6.2-2.4-9.8c1.3-4.6,3.6-8,7.1-10.4s6.3-3.3,8.5-2.8c-2.7,1.6-4.1,3.7-4.4,6.4c-0.2,2.7,0.1,4.9,1.1,6.6
			c-0.6-1.7-0.8-3.3-0.6-4.6c0.2-1.3,0.6-2.5,1.2-3.4c0.5-0.9,1.2-1.7,1.9-2.2c0.7-0.6,1.3-0.9,1.8-1.1c-1.6,1.1-2.6,2.5-3.2,4.2
			s-0.7,3.4-0.4,5.1c0.3,1.6,1,3.1,2.1,4.2c1.1,1.2,2.6,1.8,4.5,1.8c4.6,0,7.4-3,8.5-9s-0.8-14.8-5.7-26.4c-2.5,3-5.4,6.2-8.6,9.7
			s-5.8,6.1-7.7,8c-0.8,0.8-1.6,1.1-2.6,0.9c-0.9-0.2-1.7-0.5-2.4-1.1c-0.6-0.5-1-1.3-1.2-2.4c-0.2-1,0.2-2,1.2-2.9
			c0.9-0.9,2.4-2.5,4.2-4.7c1.9-2.2,3.8-4.5,5.8-7c2-2.4,3.7-4.6,5.3-6.5c1.6-1.9,2.5-3,2.8-3.3c2.8-3.3,5.6-6.5,8.3-9.5
			c2.7-3.1,5.3-5.6,7.9-7.5c2.6-2,5-3.1,7.2-3.4s4.2,0.7,6.1,3.1c1.7,2.2,2,4.2,0.8,5.9c-1.2,1.7-2.8,3.2-4.8,4.5
			c-2.4,1.6-5.3,2.9-8.7,4c6,9,9.7,17,11.2,24.2c1.5,7.2,1.8,13.1,1.1,17.8c4.2-3,8.3-6.1,12.3-9.4
			C430.9,156.7,433.8,153.9,435.7,151.7z M378.2,179.5c3.5,1.6,7.5,1.4,12-0.5c-3.8,1.3-6.8,1.5-9.2,0.8c-2.4-0.7-4.2-1.8-5.4-3.3
			c-1.3-1.5-2.1-3.1-2.5-4.9c-0.4-1.8-0.6-3.3-0.6-4.4c-0.8,3-0.6,5.5,0.7,7.5c-0.2,0.2-0.2,0.4-0.2,0.7c0,0.2,0.1,0.2,0.2,0.2
			l-0.2,1.2l1.2-0.2c-0.2,0.2-0.2,0.4-0.2,0.7c0,0.2-0.1,0.3-0.2,0.5h0.7c0.6,0,1.1-0.1,1.4-0.2c0,0.3,0,0.6-0.1,0.9
			c-0.1,0.3,0,0.5,0.4,0.5c0,0.5,0.2,0.5,0.7,0l0.5-0.5l0.2,1.2C377.8,180.2,378,180.2,378.2,179.5z M376.3,167.3
			c-0.3,3,0.3,5.3,1.8,7.1c1.5,1.7,3.3,2.8,5.3,3.3s4.1,0.3,6.2-0.5s3.7-2.3,4.6-4.5c-1.6,1.9-3.3,3.1-5.3,3.8
			c-2,0.6-3.9,0.7-5.7,0.1c-1.8-0.5-3.4-1.6-4.7-3.2C377.2,171.8,376.4,169.8,376.3,167.3z M383.3,157.6c0.2,0.3,0.2,0.6,0,0.7
			c-0.2,0.2-0.4,0.2-0.7,0.2c-0.2-0.2-0.2-0.4,0-0.8C382.8,157.3,383,157.3,383.3,157.6z M411.9,170.3c0.9-5.7,0.8-11.1-0.5-16.3
			c0.5,1.4,1.1,4.2,1.9,8.5c-0.2-4.6-0.9-9.1-2.2-13.6c-1.3-4.5-2.8-7.7-4.4-9.8c0.9,1.9,1.8,4,2.7,6.2c0.9,2.3,1.1,3.6,0.8,3.9
			c-1.3-3.8-2.6-7.1-4.1-10.1s-2.9-5.3-4.1-7.1c3.6,6.3,6.2,12.6,7.8,18.9C411.3,157.3,412,163.7,411.9,170.3z M412.1,120.4
			c-1.1,1.3-2.8,2.4-5,3.3c2.4-0.9,4-2,5.1-3.1c1-1.1,1.6-2.2,1.6-3.2c0.1-1-0.1-1.9-0.6-2.6s-0.9-1.2-1.4-1.5
			c1.4,1.1,2,2.6,1.6,4.5c-0.3,0.2-0.6,0.3-0.7,0.5l-0.2,0.2l0.2,0.7l-0.2,0.2l-0.5-0.2v1.2H412.1z M407.4,124.4
			c4.9-2,7.4-4.2,7.7-6.5c0.2-2.3-0.4-4-2-5.3c1.3,1.7,1.7,3.7,1.4,5.8C414.1,120.5,411.8,122.5,407.4,124.4z"/>
		<path class="st0" d="M726.1,151.7c1.7-1.7,3.3-2.9,4.8-3.5s2.7-0.8,3.5-0.6c0.9,0.2,1.3,0.9,1.4,2c0.1,1.1-0.4,2.4-1.5,4
			c-0.9,1.3-2.6,3.1-5.1,5.7c-2.4,2.5-5.3,5.2-8.7,8s-7,5.7-11,8.6c-3.9,2.9-7.8,5.4-11.6,7.4c-6,3.3-11.2,5.1-15.8,5.3
			s-8.2-0.6-10.8-2.5c-2.7-1.9-4.3-4.7-4.8-8.4c-0.6-3.7,0.3-7.9,2.5-12.6c2.2-4.7,4.8-9.2,7.9-13.3c3.1-4.2,6.2-8.2,9.3-12.1
			c-5.2,3-10.4,6.8-15.6,11.3c-5.2,4.6-10.1,9.2-14.7,13.9c-4.6,4.7-8.8,9.2-12.4,13.4c-3.6,4.2-6.4,7.5-8.5,9.9
			c-0.3,0.3-1.3,0.5-2.8,0.5c-1.6,0-3.2-0.2-5-0.5c-1.7-0.3-3.3-0.8-4.7-1.5s-2.1-1.5-2.1-2.5c1.7-4.7,3.8-9.7,6.2-14.9
			s5.1-10.3,7.9-15.2c2.8-4.9,5.8-9.6,9-14c3.1-4.4,6.3-8.2,9.4-11.3c2-1.4,4.6-2.3,7.7-2.6c3.1-0.3,5.9-0.3,8.5,0s4.7,0.9,6.2,1.6
			c1.6,0.8,2,1.6,1.2,2.6c-2.4,2.8-5.1,6-8.1,9.5c-3.1,3.5-6.2,7.3-9.5,11.4c2.7-2.7,5.5-5.3,8.6-7.9c3.1-2.6,6.2-5.1,9.5-7.7
			c6.3-4.9,12.1-8.1,17.6-9.5c5.4-1.5,9.8-1.7,13.1-0.6s5.1,3.3,5.4,6.7c0.3,3.4-1.4,7.5-5.2,12.4c-8.6,10.8-14.8,19.4-18.4,25.6
			c-3.6,6.2-4.9,9.2-3.8,9.1c2,0,5-1.1,8.8-3.3s7.8-4.8,11.9-7.8c4.1-3,7.9-6,11.6-9.2C721.7,156.1,724.4,153.6,726.1,151.7z
			 M634.2,187.3c3.8-7.1,7.7-13.7,11.9-19.9s8.1-11.8,11.9-16.7c3.8-5,7.2-9.1,10.1-12.5c3-3.4,5.2-5.8,6.6-7.2
			c-2,1.7-4.8,4.4-8.1,8.1c-3.4,3.7-7,8.1-11,13.1c-3.9,5-7.8,10.6-11.6,16.6C640.3,174.9,637,181,634.2,187.3z M668.1,136.4
			c-1.7,1.4-4,3.7-6.8,6.8s-5.8,6.8-9,11c-3.1,4.2-6.3,8.7-9.4,13.7c-3.1,5-5.8,10.1-8,15.4c3-5.8,6.2-11.3,9.7-16.5
			s6.8-9.8,9.9-13.9c3.1-4.1,5.9-7.5,8.4-10.4C665.3,139.7,667,137.6,668.1,136.4z M636.8,184.2c5.3-8.6,10.6-16,15.8-22.2
			c5.2-6.1,10.1-11.3,14.6-15.6c4.6-4.2,8.8-7.7,12.6-10.3s7-4.8,9.5-6.5c-6.3,3.5-11.9,7.2-17,11.3c-5,4.1-9.6,8.5-13.8,13.1
			s-8,9.5-11.6,14.6C643.5,173.9,640.1,179.1,636.8,184.2z M671.2,145.6c1.6-1.6,3.1-3,4.5-4.2c1.4-1.3,2.8-2.4,4-3.5
			c-2.5,1.7-5.1,3.7-7.7,6c-2.6,2.3-5.1,4.6-7.7,7.1c-2.5,2.4-4.9,4.9-7.1,7.4c-2.2,2.5-4.1,4.8-5.7,6.8c1.3-1.6,2.6-3.1,4.1-4.7
			c1.5-1.6,3.3-3.3,5.3-5.2h0.2c0.2,0,0.3-0.1,0.5-0.2c0.2-0.2,0.4-0.3,0.7-0.5l-0.2-0.9h0.7h0.5v-0.9c0.3-0.3,0.5-0.6,0.5-0.7
			c0.5,0,0.9-0.4,1.4-1.2c0.6-0.2,0.9-0.5,0.9-0.9h1.2v-0.9h0.9l0.7-1.2c0-0.3,0.2-0.5,0.5-0.5s0.6-0.2,0.9-0.5
			c0.2-0.3,0.3-0.5,0.5-0.6C671.1,146.1,671.2,145.9,671.2,145.6z M696.4,154.3c-2.2,2.2-4.2,4.5-6,7c-1.8,2.4-3.4,4.7-4.7,6.8
			s-2.3,4-2.8,5.8c-0.6,1.7-0.7,3.1-0.4,4c-0.3-0.8,0.1-2.3,1.3-4.6s2.6-4.7,4.2-7.3c1.7-2.6,3.3-5,4.8-7.2
			C694.5,156.6,695.6,155.1,696.4,154.3z M683.9,176c-0.8,2.4-0.6,3.8,0.5,4.2c-0.3-1.3,0.4-3.5,2.1-6.8c1.7-3.3,3.8-6.8,6.2-10.5
			s4.8-7.2,7.2-10.5s4-5.5,5-6.6c-3.6,4.2-6.7,8.1-9.2,11.4c-2.5,3.4-4.6,6.4-6.4,9.1c-0.8,0.5-1,1-0.7,1.6h-0.5
			c-0.2,0-0.3,0-0.5,0.1s-0.3,0.1-0.5,0.1l0.9,1.2h-0.9v0.5c0,0.3,0.1,0.6,0.2,0.7l-1.4,0.2v0.2c0,0.3,0.2,0.6,0.5,0.9l-0.9-0.2v0.2
			v0.5l-0.9,0.2v1.2c-0.2,0.2-0.2,0.6-0.2,1.2v0.7c0,0.2,0.1,0.3,0.2,0.5h-0.2c-0.2,0-0.2,0-0.2-0.1C684.2,176,684.1,176,683.9,176z
			"/>
		<path class="st0" d="M562.8,147.6c-0.8-0.2-1.9,0-3.4,0.6s-3.1,1.8-4.8,3.5c-1.9,1.9-4.6,4.4-8.3,7.5c-3.6,3.1-7.5,6.2-11.6,9.1
			c-4.1,2.9-8,5.5-11.8,7.7s-6.7,3.3-8.7,3.3c-0.5,0-0.2-0.9,0.7-2.8c0.9-1.9,2.5-4.6,4.7-8c2.2-3.5,5-7.5,8.3-12.3
			c3.3-4.7,7.1-9.8,11.3-15.3c3.8-4.9,5.3-9,4.7-12.3s-2.6-5.5-6-6.6s-7.8-0.8-13.2,0.8c-5.4,1.6-11,4.9-16.6,9.8
			c-3.8,3.3-7.3,6.6-10.6,9.9c1.4-3.5,1.6-6.2,0.7-8.1c-0.9-2-2.8-3-5.5-3.2c-2.8-0.2-6.3,0.7-10.7,2.5c-4.4,1.8-9.4,4.8-14.9,9.1
			c-4.6,3.6-8.6,6.9-12,9.9c3.6-4.4,7-8.5,10.3-12.3c3.2-3.8,6.1-7.1,8.6-10.1c0.6-0.8,0.5-1.5-0.4-2.1c-0.9-0.6-2.2-1.1-3.9-1.4
			c-0.8,0.8-1.7,1.8-2.7,3.1s-2.1,2.5-3.2,3.8s-2.1,2.5-3.1,3.8c-0.9,1.3-1.7,2.2-2.4,2.8c0.6-0.8,1.4-1.9,2.4-3.4
			c0.9-1.5,2-3,3.1-4.6c1.1-1.7,2.4-3.6,3.8-5.7c-0.3,0.3-0.7,0.7-1.2,1.1s-0.9,0.7-1.2,1.1c-0.5,0.5-0.9,0.8-1.2,0.9
			c0.6-0.8,1.1-1.5,1.3-2.1c0.2-0.6,0.5-1.1,0.8-1.4c-2.7-0.3-5.5-0.3-8.4,0.1s-5.5,1.2-7.7,2.5c-3.1,3.1-6.3,6.9-9.4,11.3
			c-3.1,4.4-6.1,9.1-9,14c-2.8,4.9-5.5,10-7.9,15.2s-4.5,10.1-6.2,14.9c0,0.9,0.7,1.8,2,2.5s2.8,1.2,4.5,1.5s3.2,0.5,4.6,0.5
			s2.3-0.2,2.6-0.5c7.1-8.5,14.7-16.3,23-23.6c8.2-7.2,15.9-12.9,23-17c-1.6,2.2-3.3,4.8-5.1,7.9c-1.8,3.1-3.6,6.2-5.4,9.3
			s-3.5,6.2-5,9.1c-1.5,2.9-2.7,5.4-3.7,7.4c1.7,3.5,3.4,5.7,5.1,6.6c1.6,0.9,3.3,1,5.1,0.2c8.6-11.3,17.2-21.6,25.8-30.8
			c8.6-9.2,16.4-16.3,23.5-21.3c-3.1,3.8-6.7,8.4-10.7,13.8c-4,5.4-7.1,10.5-9.3,15.2c-2.2,4.7-3,8.9-2.5,12.6
			c0.5,3.7,2.2,6.5,4.8,8.4c2.7,1.9,6.3,2.7,10.8,2.5c4.6-0.2,9.8-1.9,15.8-5.1c3.8-2,7.6-4.5,11.6-7.4c3.9-2.9,7.5-5.8,10.8-8.6
			s6.2-5.5,8.6-7.9c2.4-2.4,4.1-4.4,5.1-5.8c1.1-1.6,1.6-2.9,1.5-4C564,148.5,563.5,147.8,562.8,147.6z M505,140.4
			c2.8-2.4,5.4-4.4,7.8-6.1c0-0.2,0-0.3,0.1-0.4c0.1-0.1,0.1-0.2,0.1-0.4v-0.2l0.2,0.5l0.5-0.5l0.5-0.9c0.2,0.2,0.3,0.2,0.4,0.2
			c0.1,0,0.2,0.1,0.4,0.2c0.2,0.2,0.3,0.2,0.5,0.2c0-0.3-0.1-0.5-0.2-0.7c-0.2-0.2-0.1-0.3,0.2-0.5s0.4-0.3,0.2-0.4
			c-0.2-0.1-0.1-0.3,0.2-0.6c0.3-0.2,0.5-0.2,0.6,0s0.3,0.3,0.6,0.5c0.2-0.2,0.3-0.3,0.4-0.5c0.1-0.2,0.2-0.3,0.4-0.5l0.5-0.5
			c0.2,0,0.4,0.2,0.7,0.5c0.2,0.2,0.3,0.2,0.5,0.2c0-0.2,0-0.3,0.1-0.5s0.1-0.4,0.1-0.7v-0.7c0.3,0,0.6,0.1,0.9,0.2
			c0.3,0.2,0.5,0.2,0.5,0c0-0.3,0.3-0.6,0.8-0.7c0.5-0.2,1-0.2,1.3-0.2c0.3-0.5,0.7-0.6,1.2-0.5c2.7-0.9,4.8-1.3,6.2-1.1
			c1.5,0.2,2.4,0.7,2.7,1.3c-3.5-0.5-7.1,0.2-11,1.9c-3.9,1.7-7.5,3.9-11,6.4s-6.6,5.1-9.4,7.7c-2.8,2.6-4.9,4.4-6.1,5.3
			C499.1,145.7,502.2,142.7,505,140.4z M445.7,167c2.6-2.7,5.3-5.2,8.3-7.7c2.9-2.4,5.8-4.7,8.6-6.7c2.8-2,5.3-3.5,7.3-4.5
			c-2.8,1.7-5.9,3.9-9.2,6.5c-3.3,2.6-6.4,5.2-9.3,7.9s-5.4,5.1-7.5,7.3s-3.5,3.7-4.1,4.5C441.1,172.1,443.1,169.7,445.7,167z
			 M464.8,154.1c-5.1,3.9-9.9,8-14.5,12.1c-4.6,4.2-8.5,8.1-11.9,11.8c-2.8,3.1-4.8,5.3-6,6.8c-0.2,0.3-0.5,0.6-0.7,0.8
			c0.2-0.2,0.4-0.5,0.7-0.8c5-6.3,10.1-12,15.3-17.3c0-0.2,0.1-0.3,0.2-0.5c0-0.2,0.1-0.3,0.2-0.5l0.7,0.2V166v-0.2l0.2-0.2
			c0.2,0.2,0.3,0.2,0.5,0.2h0.2v-0.7c0.2,0,0.3-0.1,0.5-0.2c0.2,0,0.3,0,0.4-0.1s0.2-0.1,0.4-0.1c0.5-0.5,0.6-0.7,0.5-0.7v-0.5
			c0-0.2,0.1-0.2,0.2-0.2l0.2,0.7c0.3-0.3,0.5-0.5,0.5-0.7v-0.5l0.2-0.5l0.5,0.2v-0.7h0.2c0.2,0,0.3,0,0.4-0.1s0.2-0.1,0.4-0.1h0.7
			c0.2-0.3,0.3-0.7,0.5-1.1c0.2-0.4,0.4-0.6,0.7-0.6l0.5-0.5h0.2c0-0.2,0.2-0.5,0.7-0.9l0.5-0.5h0.5l0.2-0.7l0.2-0.2l0.2-0.5
			c0.2,0,0.3-0.1,0.5-0.2c0.2,0,0.3,0,0.4-0.1s0.2-0.1,0.4-0.1c3.8-3.1,7.3-5.7,10.6-7.5c3.3-1.9,6.1-3,8.5-3.3
			C474.7,147.2,469.9,150.1,464.8,154.1z M491.1,159.4c-3.9,4.2-7.5,8.1-10.8,11.9c-3.3,3.8-6.1,7.1-8.4,10s-3.8,4.9-4.6,6
			c1.1-2,3.1-5,6-8.7c2.9-3.8,6.2-7.7,9.8-11.9c3.6-4.2,7.2-8,10.8-11.6c3.6-3.5,6.6-6.1,9-7.7C498.9,151.2,495,155.2,491.1,159.4z
			 M509.8,138.4c-0.6,0.5-1.1,0.8-1.2,0.8C509,138.9,509.4,138.7,509.8,138.4c0.5-0.3,1-0.8,1.7-1.3c1.7-1.3,3.6-2.6,5.8-3.9
			c2.2-1.3,4.5-2.5,7-3.5c2.4-1,4.7-1.5,6.7-1.3c-0.5,0.2-1.2,0.4-2.2,0.6c-1,0.2-2.4,0.7-4.2,1.4s-4,1.7-6.6,3.1
			C515.6,134.6,512.8,136.3,509.8,138.4z M497,181.2c-0.9-2.4-1.3-4.8-1.1-7.3c0.2-2.5,0.9-4.9,1.9-7.2s2-4,2.9-5.3
			c-0.9,1.9-1.7,3.8-2.4,5.7c-0.6,1.9-1.1,3.8-1.4,5.7c-0.2,0.2-0.3,0.2-0.5,0.2s-0.2,0.1-0.2,0.2l0.9,0.2l-0.2,0.5l-0.2,0.2
			c0.3,0,0.5,0.1,0.5,0.2c0,0.6-0.1,1-0.2,1.2c0.2,0.2,0.2,0.4,0.2,0.6c0,0.2-0.1,0.4-0.2,0.4v0.7h0.5c-0.2,0.3-0.2,0.6-0.2,0.9v0.2
			l-0.2,0.5c0.2,0,0.2,0.1,0.2,0.2c1.1,3.1,2.8,5.6,5.2,7.3C499.7,185.3,497.9,183.5,497,181.2z M498.7,180.9
			c-0.9-2.4-1.2-4.8-0.9-7.4c0.2-2.6,0.8-5,1.8-7.3c0.9-2.3,2-4,3.1-5.3c-1.1,1.7-2,3.6-2.7,5.5c-0.7,2-1.2,4-1.5,6l0.2-0.2l0.2-0.2
			c0-0.8,0.2-1.7,0.5-2.8s0.7-1.9,1.2-2.4c-0.2,0.5-0.4,1.3-0.6,2.5s-0.4,2.5-0.6,3.9s-0.2,2.9,0,4.6c0.2,1.6,0.6,3.2,1.4,4.6
			c-0.5-0.5-0.9-1.3-1.3-2.4c-0.4-1.1-0.7-2.1-0.8-3.1c-0.2-0.2-0.3-0.2-0.5-0.2c0.5,4.4,2.5,7.6,6.1,9.7
			C501.5,185.1,499.6,183.3,498.7,180.9z"/>
		<g>
			<path class="st0" d="M585.4,182.6c0,0.2,0,0.5,0.1,0.7h0.1C585.5,183.1,585.4,182.8,585.4,182.6z"/>
			<path class="st0" d="M610.2,184.4c0.1,0.1,0.2,0.1,0.3,0.2c0.6-0.4,1.1-0.8,1.7-1.3C611.6,183.7,610.9,184.1,610.2,184.4z"/>
			<path class="st0" d="M591.5,120.8c0.5-0.2,0.7-0.4,0.6-0.8c-0.1-0.4-0.3-0.5-0.6-0.4c-0.5,0-0.7,0.2-0.7,0.6
				S591,120.8,591.5,120.8z"/>
			<path class="st0" d="M595.6,120.2c0.9-0.1,1.2-0.6,1.1-1.5c-0.2-1.1-0.7-1.3-1.5-0.7c-0.9,0.6-1.2,1.1-1.1,1.4
				C594.3,120,594.8,120.3,595.6,120.2z"/>
			<path class="st0" d="M551.2,189c1.6,1.1,3.3,2,5.3,2.6c0.3-0.3,0.6-0.5,0.9-0.8C555.3,190.4,553.3,189.8,551.2,189z"/>
			<path class="st0" d="M607.1,146.2c0.3-0.4,0.6-0.8,0.9-1.3C607.8,145.1,607.5,145.5,607.1,146.2z"/>
			<path class="st0" d="M558.9,189.5c0.4-0.3,0.8-0.7,1.2-1c-1.6-0.2-3.1-0.7-4.3-1.4c-1.8-1-3.3-2.2-4.5-3.5s-2-2.7-2.6-4
				c-0.5-1.3-0.8-2.4-0.8-3.2c0.8,2.2,2.3,4.7,4.6,7.4c1.9,2.3,4.5,3.8,7.9,4.5c5-3.9,9.7-5.9,14.9-6.4c0.8-0.1,1.6-0.1,2.3-0.1
				c2.3,0,4.6,0.3,6.7,1c0.5-0.6,1.1-1.3,1.6-1.9c0.2,1.1,0.6,2.1,1.2,3c0.4,0.2,0.9,0.4,1.3,0.7c2.3-1.3,4.7-2.1,7.2-2.5
				c1.3-0.2,2.7-0.3,4-0.3c3.6,0,6.9,0.7,9.9,2.2c0.2-0.1,0.4-0.2,0.5-0.3c5.4-3,10.7-6.4,15.8-10.3c5.1-3.9,9.7-7.7,13.7-11.7
				c4-3.9,6.6-6.8,7.9-8.7c0.9-1.3,1.3-2.4,1.2-3.4c-0.2-1-0.7-1.7-1.5-2s-2-0.2-3.3,0.4c-1.3,0.6-2.8,1.6-4.4,3.2
				c-1.9,2.2-5,5-9.2,8.5s-8.6,6.7-13.2,9.7c1.6-1.4,2.8-2.7,3.8-4c-2.7,2.4-5.4,4.6-8.2,6.6s-5.3,3.5-7.5,4.5
				c-2.2,0.9-3.8,1.1-4.7,0.5s-0.8-2.5,0.5-5.7c3-6.8,7.2-13.4,12.5-19.8c5.3-6.4,10.6-11.8,15.8-16c0.2-0.5-0.4-1.4-1.5-2.8
				c-1.2-1.4-2.4-2.7-3.7-4c-2,0.8-4.5,2.6-7.3,5.4c-2.8,2.8-5.1,5.8-6.8,9c0.8-1.1,1.9-2.4,3.4-4s2.5-2.4,2.9-2.6
				c-1.4,1.6-2.8,3.2-4.1,4.9s-2.6,3.3-3.8,4.7s-2.2,2.7-2.9,3.8c-0.8,1.1-1.3,1.8-1.4,2.1c0.3-0.8,1-2.1,2.1-3.9
				c0.5-0.8,0.9-1.4,1.2-1.9c-0.4,0.5-0.8,1-1.1,1.4c-0.6,0.7-1.1,1.5-1.8,2.2c0.6-1.1,1.3-2.2,1.9-3.3c0.6-1.1,1.6-2.5,2.8-4.2
				c0-0.3,0.2-0.6,0.5-0.9l0.5-0.5c0.2,0,0.2-0.1,0.2-0.2c0-0.2,0.1-0.3,0.2-0.5c0.2-0.2,0.2-0.3,0.2-0.5h0.9c0-0.2,0.1-0.3,0.2-0.5
				c0-0.2,0.1-0.2,0.2-0.2c-0.2-0.2-0.2-0.4-0.2-0.7c0-0.2,0.1-0.2,0.2-0.2h0.7c0.2-0.2,0.2-0.3,0.2-0.5v-0.5l0.5-0.2v-0.7
				c0-0.2,0.1-0.2,0.2-0.2c0.2-0.2,0.2-0.4,0.1-0.7c-0.1-0.3,0-0.4,0.4-0.2c0.2,0,0.3,0,0.5-0.1s0.4,0,0.7,0.1
				c0.2-0.3,0.2-0.6,0.1-0.8c-0.1-0.2,0-0.4,0.4-0.4c0.2-0.2,0.3-0.4,0.5-0.6c0.2-0.2,0.4-0.4,0.7-0.4c2-2.4,3.9-4,5.7-5
				c-1.3-0.8-2.6-1.4-4-1.8s-2.8-0.4-4,0.1c-1.4,0.5-3.2,1.5-5.4,3.1c-1.3-1.7-3.4-3-6.5-3.8s-5.9-0.9-8.4-0.2
				c1.7-0.5,3.7-0.8,5.8-0.9c2.1-0.2,4.4,0,6.7,0.5c-1.9-2-4.7-3.2-8.4-3.4c-3.7-0.2-6.7,0-9.1,0.8c1.3-1.6,1-2.6-0.8-3.1
				s-4.4,0-7.9,1.5s-7.4,4.2-11.8,8c-4.4,3.9-8.6,9.2-12.7,16.1c-6,10.2-9,18.7-9.2,25.6c-0.2,6.8,1.4,11.9,4.7,15.2
				C553.7,187.6,556.1,188.9,558.9,189.5z M605.5,150.3c2-3,4-5.8,6.2-8.5s4.3-5,6.4-7c2-2,3.7-3.2,5-3.7c-1.6,1.4-3.3,3.1-5.3,5.2
				c-2,2-3.9,4.3-5.9,6.7s-3.9,5-5.8,7.7c-1.9,2.7-3.6,5.3-5.2,7.8C602,156,603.6,153.3,605.5,150.3z M600.2,129.9
				c2.8,0.2,5.3,0.5,7.5,0.8l-2.4,2.4c-2-2-6.1-2.8-12.3-2.4C595.1,129.9,597.4,129.7,600.2,129.9z M583.3,142.9
				c2.8-2.7,5.5-4.8,7.9-6.1s4.7-2.1,6.7-2.4c2-0.2,3.8-0.1,5.4,0.4c-2.8,3.8-5.1,7.3-7,10.5c-1.8,3.2-3.5,6.2-5,9s-2.9,5.3-4.4,7.8
				c-1.4,2.4-3.1,4.8-5,7c-3,3.6-5.7,5.9-8.3,6.7c-2.5,0.9-4.3,0.6-5.4-0.9c-1.1-1.5-1.3-4-0.6-7.5s2.8-7.9,6.2-13.1
				C577.4,149.3,580.4,145.6,583.3,142.9z M565.6,168.1c0.5-2.4,2-5.5,4.7-9.3c-2.2,3.5-3.5,6.6-3.9,9.4c-0.4,2.8-0.2,5.1,0.6,6.7
				c0.8,1.6,2.2,2.5,4.1,2.6c2,0.1,4.4-0.9,7.2-2.9c-3.1,3.5-5.8,5.2-8,5.2c-0.2,0.2-0.4,0.2-0.7,0.1c-0.3-0.1-0.6-0.1-0.7-0.1
				c0-0.2,0-0.3-0.1-0.4c-0.1-0.1-0.1-0.2-0.1-0.4c-0.2,0-0.2,0-0.2,0.1s-0.1,0.1-0.2,0.1h-0.2l-0.5-0.5H567v-0.9
				c0-0.2-0.1-0.2-0.2-0.2c-0.3,0-0.5-0.1-0.5-0.2c0-0.2,0-0.3-0.1-0.4c-0.1-0.1-0.1-0.2-0.1-0.4h-0.2V176c-0.2-0.2-0.2-0.3-0.2-0.5
				v-0.7C565.1,172.8,565.1,170.5,565.6,168.1z"/>
		</g>
	</g>
	<path class="st0" d="M604.8,9.2"/>
	<g>
		<path class="st0" d="M469.5,76.7c8.8,14.3,18.7,26.7,32,34.6c3.3,2,5.9,4.1,7.9,6.4c4-2.5,8.1-4.4,12.1-5.6c4.3-1.3,8.2-2,11.9-2
			c2.8,0,5.5,0.4,8,1.2c7.2,2.4,12.1,7.9,13.5,15.1c0,0.2,0.1,0.4,0.1,0.6c2.1-2.6,4.3-4.8,6.6-6.8c5.3-4.7,10.1-7.9,14.7-9.9
			c4.1-1.8,7.6-2.6,10.9-2.6c1,0,1.9,0.1,2.9,0.2c2.3-1.3,4.5-1.6,6-1.6c3.9,0,7.4,1.9,9.5,4.9c3.1,0.9,5.5,2.3,7.3,3.8
			c1.3-0.3,2.6-0.5,4-0.5c1.6,0,3.2,0.2,4.9,0.7c2.5,0.7,4.8,1.7,6.9,3.1c0.1,0.1,0.3,0.2,0.4,0.3c1,0.5,1.9,1.2,2.7,2
			c1.5,1.5,3,3.1,4.3,4.8c0.5,0.6,1.4,1.7,2.3,3.2c2.3-2.8,4.6-5.4,6.8-7.7c0.5-0.5,1-0.9,1.5-1.3c3.6-2.5,7.9-4,12.9-4.5
			c1.9-0.2,3.8-0.3,5.6-0.3c1.9,0,3.7,0.1,5.4,0.3c3.9,0.5,7.2,1.4,9.9,2.7c0.8,0.4,1.5,0.8,2.1,1.3c3.1-1.6,6.1-2.7,9.1-3.6
			c2.4-0.7,4.7-1.1,6.8-1.4c-3.5-18.4-21.4-23.6-33.7-16c-0.7-10.4-6.7-17.3-15.6-21.5c-7.5-3.5-15.4-6.8-23.5-8.6
			c-40.3-9.2-80.8-7.9-121.3-0.8c-4.6,0.8-9.1,2.4-14.2,3.8c6.9,2.8,12.7,5.1,18.6,7.5C495.5,83.3,483.1,79.5,469.5,76.7z
			 M617.3,87.2c-8.2-2-13.8-3.2-17-3.4c3.1-0.1,7,0.2,11.7,1.1s9.4,2,14.1,3.4c4.7,1.4,8.9,2.9,12.8,4.4c3.8,1.6,6.4,2.9,7.8,3.9
			C635.2,92.4,625.5,89.2,617.3,87.2z M583.9,72c2.3-0.1,5.1,0,8.6,0.2s7.4,0.6,11.9,1.3c4.4,0.7,9.1,1.7,14,3.1s10,3.2,15.2,5.5
			s10.4,5.1,15.5,8.6c-4.3-2.3-8.8-4.4-13.5-6.6c-4.7-2.1-9.9-4-15.5-5.7c-5.6-1.6-11.7-3-18.3-4.1s-14-1.7-22.1-2
			C580.2,72.2,581.6,72.1,583.9,72z M572.3,75.9c0.7,0.2,1.2,0.4,1.4,0.6s0.4,0.3,0.6,0.3l0.6-1.4c0.1,0.1,0.3,0.2,0.6,0.3
			c0.2,0.1,0.3,0.1,0.4,0.2l0.8-0.6c0.3,0,0.7,0.1,1.2,0.2c0.7,0.2,1.6,0.6,2.6,1.2l1.9-0.6l1.7,1.1c0.6-0.3,1.4-0.5,2.5-0.7
			c0.5-0.1,1.1-0.2,1.8-0.3l0.6,0.3l1.9-0.1l0.9,0.8c0.4,0.4,0.7,0.6,1.1,0.7c0.7-0.4,1.5-0.7,2.4-1s1.7-0.2,2.2,0.2
			c0.2-0.1,0.8-0.2,1.6-0.1s1.4,0.1,1.8,0.3c5.8,0.8,11.4,1.9,16.6,3.1c5.3,1.3,9.9,2.6,14,4.1c4.1,1.4,7.6,2.9,10.5,4.4
			s5.1,3,6.6,4.4c-7.2-2.7-14.8-5.2-22.6-7.6s-16.2-4.3-25.1-5.8c-8.9-1.5-18.5-2.4-28.7-2.6s-21.3,0.5-33.3,2.3
			C549.8,77.3,561,75.9,572.3,75.9z"/>
		<path class="st0" d="M544,199.4c0-0.9-0.1-2-0.9-2.6c-0.5-0.4-1.2-0.4-1.9-0.3c-1.7,0.3-3.3,1.3-4.1,2.8c-1.1,1.8-1.2,4.3,0.2,6
			c1.5,1.9,4.2,2.1,6.3,1.7c4.5-0.8,8.1-3.4,11.5-6.2c3-2.5,5.9-5.1,9-7.5c3.4-2.7,7.2-4.7,11.6-5.1c4.4-0.4,8.3,0.7,11.8,3.4
			c0.3,0.2,0.5,0.4,0.9,0.6c2.4-2,5-3.5,8.1-3.9c4.3-0.6,8.4,0,12,2.3c3.7,2.4,7.1,5.2,10.5,8c3.4,2.7,6.5,5.8,10.7,7.3
			c1.8,0.7,3.9,1.1,5.9,1.1c4.3,0,5.4-3,4.7-6.4c-0.4-2.2-3.1-4.2-5.5-4.2c-1.6,0-1.9,0.4-2.1,2.9c-0.9-1.1-1.6-2.2-1-3.3
			c0.4-0.8,1.4-1.6,2.3-1.7c5.1-0.7,11.6,5.4,11.4,10.6c-0.1,2.5-1.3,4.4-3.1,6c-5.8,5-12.6,7.5-20.1,7.7
			c-7.9,0.2-15.7-0.2-23.4-2.5c-4-1.2-7.5-3.1-10.3-6.1c-1.7,1.3-3.3,2.6-5,3.7c-3.8,2.4-8.2,3.3-12.6,4c-6.7,1.1-13.6,1.5-20.3,0.6
			c-6.2-0.8-11.8-3.2-16.4-7.6c-3.8-3.5-3.8-8.8,0-12.3c2-1.8,6.9-5.6,9.8-3.7c0.8,0.5,1.2,1.4,1.2,2.3S544.7,198.8,544,199.4z"/>
		<path class="st0" d="M647.9,25.6c-0.5,0.2-0.8,0.3-1.1,0.5c-3.5,3-6.9,6.1-10.5,9c-1.8,1.4-2.6,2.9-2.7,5.4
			c-0.1,6-6.2,10.2-11.6,8.5c-3.9-1.2-6.2-3.8-6.8-7.8c-0.6-3.7,1.1-6.5,3.9-8.6c1.6-1.2,1.8-1.9,0.4-3.5c-5.2-6.3-9.6-13.1-11.8-21
			c-0.1-0.5-0.1-1.4-0.9-1.3c-0.4,0-0.8,0.6-1,1.1c-4,7.2-9.6,13.1-16.2,17.8c-1.7,1.2-1.9,2.1-0.4,3.6c2.7,2.6,3,5.9,2,9.3
			c-1.5,4.7-6.6,7.2-11.6,5.7c-4.5-1.3-7.4-6.2-6.2-10.9c0.5-2,0.3-3.4-1-4.9c-2.2-2.7-4.2-5.6-6.3-8.4c-1-1.3-1.8-3-3.9-4.1
			c0.5,1.7,0.8,2.9,1.1,4.1c2.7,9.9,4.8,19.9,4.8,30.2c0,2.4,0.7,3.3,2.5,3.7c4.4,0.3,16.7,0.6,29.2,2.1c15.5,1.8,31.4,4.6,32.7,4.8
			c1.3,0.1,2.1-0.5,2.4-1.8c2.2-10.6,6.7-20.4,11.9-29.8C647.3,28.1,648,27.1,647.9,25.6z"/>
	</g>
	<g>
		<g>
			<path class="st0" d="M241.3,234.3h11.3c2.9,0,5.1,0.8,6.6,2.2c1.1,1.1,1.7,2.5,1.7,4.2v0.1c0,3-1.7,4.6-3.6,5.6
				c2.9,1,5,2.7,5,6.1v0.1c0,4.5-3.7,6.9-9.3,6.9h-11.7L241.3,234.3L241.3,234.3z M256.5,241.4c0-2-1.6-3.2-4.4-3.2h-6.4v6.7h6
				C254.6,244.9,256.5,243.7,256.5,241.4L256.5,241.4z M252.7,248.6h-7v6.9h7.3c3,0,4.9-1.2,4.9-3.5l0,0
				C257.9,249.9,256.2,248.6,252.7,248.6z"/>
			<path class="st0" d="M281.3,234.1h4.1l11.1,25.4h-4.7l-2.6-6.1h-11.9l-2.6,6.1h-4.5L281.3,234.1z M287.6,249.4l-4.4-10.1
				l-4.3,10.1H287.6z"/>
			<path class="st0" d="M305.8,234.3H317c3.2,0,5.6,0.9,7.3,2.5c1.3,1.4,2.1,3.2,2.1,5.4v0.1c0,4.1-2.5,6.6-6,7.6l6.8,9.5H322
				l-6.2-8.8h-5.5v8.8h-4.4v-25.1H305.8z M316.7,246.7c3.2,0,5.2-1.7,5.2-4.2v-0.1c0-2.7-1.9-4.2-5.2-4.2h-6.4v8.5H316.7z"/>
			<path class="st0" d="M336.9,234.3h11.3c2.9,0,5.1,0.8,6.6,2.2c1.1,1.1,1.7,2.5,1.7,4.2v0.1c0,3-1.7,4.6-3.6,5.6
				c2.9,1,5,2.7,5,6.1v0.1c0,4.5-3.7,6.9-9.3,6.9h-11.7V234.3z M352,241.4c0-2-1.6-3.2-4.4-3.2h-6.4v6.7h6
				C350.1,244.9,352,243.7,352,241.4L352,241.4z M348.2,248.6h-7v6.9h7.3c3,0,4.9-1.2,4.9-3.5l0,0
				C353.4,249.9,351.7,248.6,348.2,248.6z"/>
			<path class="st0" d="M367.9,234.3h18.7v4h-14.2v6.5H385v4h-12.6v6.8h14.4v4H368v-25.3H367.9z"/>
			<path class="st0" d="M405.9,234.1h4.1l11.1,25.4h-4.7l-2.6-6.1H402l-2.6,6.1h-4.5L405.9,234.1z M412.3,249.4l-4.4-10.1l-4.3,10.1
				H412.3z"/>
			<path class="st0" d="M430.5,234.3h11.2c3.2,0,5.6,0.9,7.3,2.5c1.3,1.4,2.1,3.2,2.1,5.4v0.1c0,4.1-2.5,6.6-6,7.6l6.8,9.5h-5.3
				l-6.2-8.8h-5.5v8.8h-4.4V234.3z M441.4,246.7c3.2,0,5.2-1.7,5.2-4.2v-0.1c0-2.7-1.9-4.2-5.2-4.2H435v8.5H441.4z"/>
			<path class="st0" d="M461.8,234.3h4.4v25.2h-4.4V234.3z"/>
			<path class="st0" d="M486.9,234.1h4.1l11.1,25.4h-4.7l-2.6-6.1h-11.9l-2.6,6.1h-4.5L486.9,234.1z M493.2,249.4l-4.4-10.1
				l-4.3,10.1H493.2z"/>
		</g>
		<rect x="204" y="247.1" class="st0" width="18.6" height="3.9"/>
		<rect x="518" y="247.1" class="st0" width="18.6" height="3.9"/>
	</g>
</g>
<rect x="1046.6" y="-521.4" class="st1" width="1200" height="1200"/>
<g>
	<path class="st2" d="M1850.3-102.2"/>
	<g>
		<path class="st2" d="M1457.1,17.2c1.6,1,3.2,2.7,4.9,5.3c1.7,2.6,3.1,5.3,4.3,8.3c1.2,3,2.1,5.8,2.8,8.5c0.6,2.7,0.8,4.6,0.5,5.8
			c-1.6,7.9-6.1,16.5-13.6,25.8c-7.5,9.4-16.9,18.4-28.4,27.2c-11.5,8.7-24.4,16.5-38.9,23.4s-29.7,11.7-45.5,14.4
			c3.5,5.1,8.4,11,14.7,17.5c6.2,6.6,12.9,12.9,19.8,18.9c7,6,13.7,11.3,20.2,16c6.5,4.6,11.8,7.7,16,9.1c-1.1,1.3-2.9,2.9-5.4,4.8
			c-2.5,1.9-5.2,3.8-8.2,5.5c-3,1.8-5.9,3.2-8.8,4.3s-5.2,1.4-7,1c-3.2-1.1-7.3-4-12.1-8.8c-4.9-4.7-10-10.4-15.3-16.9
			c-5.3-6.6-10.5-13.6-15.5-21.1s-9.3-14.7-12.9-21.4c-11.1,18.1-23.1,38.1-36,59.8c-4.8-0.5-8.9-1.4-12.3-2.8
			c-3.4-1.4-5.5-2.6-6.5-3.7c10.7-21.9,21.6-42.9,32.7-62.8s21.5-37.9,31.5-54c9.9-16,18.9-29.6,26.9-40.9c8-11.2,14.3-19,19-23.3
			c1.1,0.2,2.8,0.8,4.9,1.8c2.2,1,4.3,2.4,6.5,4s4,3.3,5.5,5.2c1.5,1.8,2.2,3.6,2,5.2c-5.6,6.1-13.4,16.5-23.4,31.4
			c-10,14.8-22.2,33.7-36.4,56.6c14.3-5.9,27.6-13.3,40.1-22.1s23.6-18.1,33.2-27.9s17.5-19.5,23.8-29.1c6.2-9.6,10.3-18.1,12-25.5
			c0.6,1,1.1,2.4,1.3,4.2c0.2,1.8,0,4-0.6,6.6s-1.8,5.6-3.4,9.1s-3.9,7.5-7,11.8c3.4-3.4,6-6.8,8.1-10.3c2-3.5,3.5-6.7,4.6-9.6
			c1-2.9,1.6-5.4,1.8-7.5C1457.2,19,1457.2,17.7,1457.1,17.2z M1310.5,159.7c3.5-6.7,7.6-14.2,12.4-22.4c4.7-8.2,9.7-16.5,14.9-25.1
			c5.2-8.6,10.5-17.1,16-25.7c5.4-8.6,10.6-16.6,15.5-24c4.9-7.5,9.4-14.1,13.5-19.9s7.4-10.4,10-13.6c-0.6,0-2.4,1.9-5.4,5.6
			c-3,3.8-6.7,8.9-11.3,15.4s-9.7,14.1-15.3,22.7c-5.6,8.7-11.4,17.8-17.3,27.5s-11.7,19.6-17.4,29.8
			C1320.3,140.2,1315.1,150.1,1310.5,159.7z M1380.2,33.3c-0.5,0-2,1.5-4.4,4.4c-2.5,3-5.5,7.1-9.1,12.3s-7.7,11.3-12.3,18.1
			c-4.6,6.9-9.3,14.3-14.1,22.1c-4.8,7.9-9.6,16-14.3,24.4c-4.7,8.4-9.1,16.6-13.1,24.6c1.9-3.7,3.9-7.3,6-10.8s4.2-7.1,6.5-10.8
			c2.2-3.7,4.6-7.6,7.2-11.7s5.4-8.5,8.7-13.3c0.3,0,0.6-0.2,1-0.7c0.3-0.5,0.6-1,0.7-1.4c0.2-0.6,0.2-1.4,0.2-2.2l4.3-3.6v-1
			c0-0.5-0.3-1.3-1-2.4c0.8-0.3,1.8-1,3.1-2.2c1.3-1.1,1.9-2.1,1.9-2.9c0.3-0.3,0.7-0.7,1.1-1.2s0.8-1,1.3-1.4
			c0.6-0.5,1.2-1,1.7-1.4c0.8,0,1.1-0.5,1-1.4c-0.2-1-0.2-1.8,0-2.4c0.2-0.3,0.9-0.8,2.2-1.4c0.6-0.3,1.3-0.6,1.9-0.7
			c-0.2-0.5-0.2-0.9-0.1-1.2c0.1-0.3,0.1-0.6,0.1-1v-1c0.6-0.2,1-0.9,1-2.2c0-0.6-0.1-1.2-0.2-1.7c0.3-0.3,1.4-0.5,3.1-0.5h2.6
			l-1.2-5.5c0.3-0.8,0.9-1.2,1.8-1.1c0.9,0.1,1.2-0.3,0.8-1.1c3.7-5.6,6.4-9.7,8.1-12.3C1378.4,36.3,1379.5,34.4,1380.2,33.3z
			 M1338.6,118.9c2.9-5.3,6.1-10.9,9.7-16.7s7.2-11.7,10.9-17.7c3.7-5.9,7.3-11.7,10.9-17.2s6.9-10.6,10-15.1
			c3-4.6,5.6-8.4,7.8-11.7c2.2-3.2,3.7-5.4,4.7-6.7c-0.8-0.2-2.5,1.4-5.2,4.8c-2.6,3.4-5.7,7.7-9.3,13c-3.5,5.3-7.3,11.2-11.4,17.8
			s-8,13-11.8,19.3c-3.8,6.3-7.1,12.2-10.1,17.7C1342,111.8,1339.9,116,1338.6,118.9z M1344.6,133c1-0.2,3.4-0.7,7.3-1.7
			s8.8-2.4,14.7-4.4c5.8-2,12.4-4.6,19.7-7.9c7.3-3.3,14.8-7.3,22.6-12c7.8-4.7,15.6-10.3,23.4-16.7c7.8-6.4,15.3-13.8,22.4-22.1
			c-6.2,5.9-12.9,11.9-19.9,17.8c-7.1,5.9-15,11.7-23.8,17.2s-18.6,10.8-29.4,15.9C1370.7,124,1358.4,128.7,1344.6,133z
			 M1400.1,100.4c-13.1,7.7-24.5,13.7-34.1,17.9c-9.6,4.2-16.3,6.9-20.2,7.8c3.8-0.5,8.6-1.8,14.2-3.8c5.6-2.1,11.1-4.5,16.6-7.2
			c5.4-2.7,10.4-5.4,14.8-8.2C1395.7,104.1,1398.7,102,1400.1,100.4z M1419.8,94.8c5.9-4.3,11.4-8.7,16.5-13.2
			c5-4.5,9.4-8.7,13.1-12.7s6.7-7.7,9-11.1c2.3-3.4,3.9-6.2,4.7-8.7c-6.4,7.2-13.2,14.4-20.4,21.6s-15.3,14.3-24.3,21.1
			c-9,6.9-19,13.5-30.2,19.7c-11.1,6.2-23.8,11.9-38.1,17.1c13.8-3.7,26.9-8.8,39.4-15.4c0.6-0.6,1-1.1,1.2-1.4s0.3-0.6,0.5-0.7
			l1.4,1.2c0-0.2,0.2-0.4,0.5-0.7c0.2-0.2,0.2-0.3,0.2-0.5l1.2,0.2c0.3-0.2,0.7-0.5,1.2-1c0.6-0.6,1.4-1.6,2.2-2.9l2.4-0.5l1.2-2.2
			c0.8,0,1.8-0.2,3.1-0.7c0.6-0.2,1.4-0.4,2.2-0.7l0.5-0.7l2.2-1l0.5-1.4c0.2-0.6,0.4-1.1,0.7-1.4c1,0,2-0.1,3.2-0.4
			c1.2-0.2,2-0.8,2.3-1.6c0.3,0,0.9-0.3,1.8-0.8C1418.9,95.6,1419.5,95.2,1419.8,94.8z M1449.1,17.7c1-0.5,1.4-0.1,1.3,1.1
			s-0.3,2.1-0.6,2.8c-0.3-0.5-0.7-1.1-1.1-1.9C1448.4,18.8,1448.5,18.2,1449.1,17.7z"/>
		<path class="st2" d="M1469.3,149.9c3.5-3.7,6.3-5.1,8.4-4.3s2.2,2.7,0.2,5.8c-0.8,1.3-2.4,3.1-4.8,5.5s-5.2,5-8.5,7.9
			s-6.9,5.8-10.8,8.8s-7.8,5.5-11.7,7.6c1.9-0.8,3.8-1.7,5.6-2.6c1.8-1,3.5-1.9,4.9-2.9c-5,4-9.8,6.8-14.5,8.4
			c-4.7,1.6-8.5,2.6-11.2,2.9h-0.5h-1.2c-5.8,0-9.7-1.8-11.7-5.3s-2.4-8.2-1.1-13.9c1.3-5.8,4.1-12.3,8.4-19.5s9.9-14.6,16.8-22.1
			c1.1-1.3,3.2-2.2,6.2-2.6c3-0.5,6-0.6,8.9-0.4s5.2,0.8,7,1.7c1.8,0.9,2.1,2,1,3.2c-5,5.6-9.7,11.3-14.1,17.1s-8.1,11-11.1,15.7
			s-5,8.5-6.1,11.4s-0.9,4.3,0.7,4.3c2.1,0,5-1,8.7-3.1s7.5-4.6,11.4-7.5s7.6-5.8,11.1-8.8C1465,154.2,1467.6,151.8,1469.3,149.9z
			 M1424.1,185.2c2.2,0.2,4.7-0.2,7.3-1c2.6-0.8,5.2-1.8,7.7-3.1s4.8-2.7,7.1-4.2c2.2-1.5,4.1-3,5.5-4.4
			c-6.4,5.1-12.3,8.5-17.7,10.2C1428.7,184.3,1425.4,185.2,1424.1,185.2z M1435,152.3c-0.6,0.3-1,0.9-1,1.7
			c-1.3,2.4-2.5,4.8-3.7,7.2s-2.2,4.6-3,6.5c1.9-4.3,4.1-8.5,6.6-12.5s5-7.7,7.6-11.2c2.6-3.4,5-6.5,7.3-9.3c2.3-2.7,4.2-5,5.6-6.7
			c-0.5-0.3-1.4,0.2-2.9,1.7c-1.4,1.4-3.1,3.4-5,5.8c-0.2,0-0.3,0-0.4,0.1s-0.2,0.1-0.4,0.1h-0.2v0.2v0.5c-0.3,0-0.6,0.1-0.7,0.2
			c0,0.2,0,0.4-0.1,0.6c-0.1,0.2,0,0.5,0.4,0.8c-0.2,0-0.3,0-0.4-0.1s-0.2-0.1-0.4-0.1h-0.2c-0.2,0.2-0.2,0.3-0.2,0.5v0.2v0.7
			c-0.3,0-0.5,0.3-0.5,1c-0.2,0-0.4,0.2-0.7,0.5v0.5c-0.2,0-0.4,0-0.7-0.1c-0.3-0.1-0.6-0.1-0.7-0.1c0,0.3,0,0.7,0,1.1
			c0,0.4,0.1,0.8,0.2,1.1h-0.7h-0.5c-0.2,0.2-0.2,0.4-0.2,0.7v0.5c-0.2,0.2-0.2,0.5-0.2,1c0,0.3-0.1,0.6-0.2,0.7
			c-0.2,0.2-0.5,0.2-1,0.2h-0.5c-0.2,0.2-0.3,0.4-0.5,0.7c-0.3,0.6-0.5,1-0.5,1.2c-0.2,0.2-0.3,0.2-0.5,0.1c-0.2-0.1-0.3,0-0.5,0.1
			c0,0.5,0.1,0.8,0.2,1l0.5,0.5l-1.2,0.7c-0.2,0.2-0.2,0.3-0.1,0.5s0,0.3-0.4,0.5C1435,151.5,1435,151.8,1435,152.3z M1453.9,132.3
			c-1.1,0.5-3,2.4-5.8,5.6c-2.7,3.3-5.5,7-8.4,11.2s-5.6,8.3-8.1,12.5s-4,7.5-4.4,9.9c1.9-4.3,4.1-8.4,6.5-12.4
			c2.4-3.9,4.8-7.6,7.3-10.9c2.5-3.4,4.9-6.4,7.2-9.1C1450.6,136.3,1452.5,134.1,1453.9,132.3z M1468.4,113.1
			c-2.1,2.6-4.4,4.1-7,4.6s-4.7,0.2-6.5-0.7c-1.8-1-2.9-2.6-3.4-4.8c-0.5-2.2,0.4-4.9,2.6-7.9c1.9-2.7,4.2-4.3,6.7-4.8
			c2.6-0.5,4.8-0.2,6.6,0.8c1.8,1,3,2.7,3.5,5C1471.5,107.6,1470.6,110.2,1468.4,113.1z"/>
		<path class="st2" d="M1557.8,149.6c1.8-1.8,3.4-3,4.9-3.6s2.7-0.8,3.6-0.6s1.4,0.9,1.4,2c0.1,1.1-0.4,2.5-1.6,4.1
			c-1,1.3-2.7,3.2-5.2,5.8s-5.4,5.3-8.9,8.2c-3.4,2.9-7.2,5.8-11.2,8.8s-7.9,5.5-11.8,7.6c-6.1,3.4-11.5,5.2-16.1,5.4
			s-8.3-0.6-11.1-2.5c-2.7-1.9-4.4-4.8-4.9-8.5c-0.6-3.8,0.3-8,2.5-12.9c2.2-4.8,4.9-9.3,8.1-13.6c3.1-4.2,6.3-8.4,9.5-12.4
			c-5.3,3-10.6,6.9-15.9,11.5s-10.3,9.4-15,14.2s-8.9,9.4-12.6,13.7s-6.6,7.7-8.7,10.1c-0.3,0.3-1.3,0.5-2.9,0.5s-3.3-0.2-5-0.5
			c-1.8-0.3-3.4-0.8-4.8-1.6c-1.4-0.7-2.2-1.6-2.2-2.5c1.8-4.8,3.9-9.9,6.4-15.1c2.5-5.3,5.2-10.5,8.1-15.5s5.9-9.8,9.1-14.3
			s6.4-8.3,9.6-11.5c2.1-1.4,4.7-2.3,7.8-2.6c3.1-0.3,6-0.3,8.7,0c2.6,0.3,4.8,0.9,6.4,1.7c1.6,0.8,2,1.7,1.2,2.6
			c-2.4,2.9-5.2,6.1-8.3,9.7c-3.1,3.6-6.4,7.5-9.7,11.7c2.7-2.7,5.6-5.4,8.8-8c3.1-2.6,6.4-5.2,9.7-7.8c6.4-5,12.4-8.2,17.9-9.7
			s10-1.7,13.3-0.6c3.4,1.1,5.2,3.4,5.5,6.8s-1.4,7.7-5.3,12.6c-8.8,11.1-15.1,19.7-18.7,26.1c-3.7,6.3-5,9.4-3.8,9.3
			c2.1,0,5.1-1.1,9-3.4c3.9-2.2,8-4.9,12.1-7.9c4.2-3,8.1-6.2,11.8-9.4C1553.3,154.1,1556,151.5,1557.8,149.6z M1464,185.9
			c3.8-7.2,7.9-14,12.1-20.3s8.3-12,12.1-17.1c3.8-5,7.3-9.3,10.3-12.7s5.3-5.9,6.7-7.3c-2.1,1.8-4.8,4.5-8.3,8.3
			c-3.4,3.8-7.2,8.2-11.2,13.3s-7.9,10.8-11.8,16.9C1470.3,173.2,1466.9,179.5,1464,185.9z M1498.6,134c-1.8,1.4-4.1,3.8-7,7
			s-5.9,6.9-9.1,11.2c-3.2,4.2-6.4,8.9-9.6,13.9s-5.9,10.3-8.2,15.7c3-5.9,6.3-11.5,9.9-16.8c3.5-5.3,6.9-10,10.1-14.2
			s6-7.7,8.5-10.6C1495.7,137.4,1497.5,135.3,1498.6,134z M1466.7,182.8c5.4-8.8,10.8-16.3,16.1-22.6c5.3-6.2,10.3-11.5,14.9-15.9
			c4.6-4.3,8.9-7.8,12.9-10.5c3.9-2.6,7.2-4.8,9.7-6.6c-6.4,3.5-12.2,7.4-17.3,11.5c-5.1,4.2-9.8,8.6-14.1,13.3
			c-4.2,4.7-8.2,9.7-11.8,14.9C1473.5,172.3,1470,177.5,1466.7,182.8z M1501.8,143.4c1.6-1.6,3.1-3,4.6-4.3c1.4-1.3,2.8-2.5,4.1-3.6
			c-2.6,1.8-5.2,3.8-7.8,6.1c-2.6,2.3-5.2,4.7-7.8,7.2c-2.6,2.5-5,5-7.2,7.6s-4.2,4.9-5.8,7c1.3-1.6,2.7-3.2,4.2-4.8
			s3.3-3.4,5.4-5.3h0.2c0.2,0,0.3-0.1,0.5-0.2c0.2-0.2,0.4-0.3,0.7-0.5l-0.2-1h0.7h0.5v-1c0.3-0.3,0.5-0.6,0.5-0.7
			c0.5,0,1-0.4,1.4-1.2c0.6-0.2,1-0.5,1-1h1.2v-1h1l0.7-1.2c0-0.3,0.2-0.5,0.5-0.5s0.6-0.2,1-0.5c0.2-0.3,0.3-0.5,0.5-0.6
			C1501.7,143.9,1501.8,143.7,1501.8,143.4z M1527.5,152.3c-2.2,2.2-4.3,4.6-6.1,7.1c-1.8,2.5-3.4,4.8-4.8,7s-2.3,4.1-2.9,5.9
			c-0.6,1.8-0.7,3.1-0.4,4.1c-0.3-0.8,0.1-2.4,1.3-4.7c1.2-2.3,2.6-4.8,4.3-7.5c1.7-2.6,3.3-5.1,4.9-7.3
			C1525.5,154.6,1526.7,153.1,1527.5,152.3z M1514.7,174.4c-0.8,2.4-0.6,3.8,0.5,4.3c-0.3-1.3,0.4-3.6,2.2-7
			c1.8-3.4,3.9-6.9,6.4-10.7s4.9-7.3,7.3-10.7s4.1-5.6,5-6.7c-3.7,4.3-6.8,8.2-9.4,11.7c-2.6,3.4-4.7,6.5-6.5,9.3
			c-0.8,0.5-1,1-0.7,1.7h-0.5c-0.2,0-0.3,0-0.5,0.1s-0.3,0.1-0.5,0.1l1,1.2h-1v0.5c0,0.3,0.1,0.6,0.2,0.7l-1.4,0.2v0.2
			c0,0.3,0.2,0.6,0.5,1l-1-0.2v0.2v0.5l-1,0.2v1.2c-0.2,0.2-0.2,0.6-0.2,1.2v0.7c0,0.2,0.1,0.3,0.2,0.5h-0.2c-0.2,0-0.2,0-0.2-0.1
			C1515,174.4,1514.9,174.4,1514.7,174.4z"/>
		<path class="st2" d="M1644.3,149.6c1.8-1.8,3.4-3,4.9-3.6s2.7-0.8,3.5-0.6s1.2,0.9,1.3,2c0.1,1.1-0.4,2.5-1.6,4.1
			c-1.1,1.8-3.7,4.6-7.7,8.4c-4,3.8-8.6,7.7-13.7,11.7c-5.1,3.9-10.5,7.4-16.1,10.5c-5.6,3-10.6,4.6-14.9,4.6h-1
			c-1.3,2.4-3,4.9-5.2,7.5s-3.6,4.3-4.4,5.3c-5.8,5.9-11.8,10.2-18,12.9c-6.2,2.6-12,4-17.3,4s-9.7-1-13.3-3.1
			c-3.6-2.1-5.6-5-5.9-8.7c-0.3-2.2,0.3-4.3,1.8-6.1s3.6-3.5,6.1-4.9c2.6-1.4,5.6-2.7,9-3.7s7-1.8,10.7-2.3c-3.4-1.1-6.2-3-8.5-5.6
			s-3.8-5.9-4.4-9.7s-0.2-8.2,1.2-13.2c1.4-5,4.2-10.4,8.4-16.3c4.5-6.4,9.5-11.5,15.1-15.3s11-6.3,16.2-7.7
			c5.2-1.4,9.8-1.5,13.8-0.5s6.7,3.2,8.2,6.4c0.6-0.8,1.3-1.7,2-2.6c0.7-1,1.6-2,2.5-3.1c0.5-0.5,1.4-0.8,2.8-1.1
			c1.4-0.2,2.8-0.3,4.2-0.1c1.4,0.2,2.7,0.4,3.7,0.6s1.4,0.6,1.1,1.1s-0.9,1.6-1.7,3.2c-0.8,1.7-1.7,3.6-2.8,5.8
			c-1,2.2-2.1,4.3-3.1,6.4c-1,2.1-1.9,3.8-2.5,5c0.6-1.1,1.5-2.6,2.6-4.4c1.1-1.8,2.2-3.6,3.1-5.4c1-1.8,1.8-3.4,2.6-4.8
			c0.8-1.4,1.3-2.3,1.4-2.6c0.2,0.5-0.1,1.5-0.8,3.1c-0.7,1.6-1.6,3.5-2.8,5.8l-0.5,0.7v0.2c0,0.2-0.1,0.2-0.2,0.2
			c-0.2,0-0.3,0.1-0.5,0.2v1c-0.3,0.2-0.5,0.4-0.5,0.7l-0.5,0.5l0.2,0.5h-0.2h-0.5v0.5l-0.5,0.5c-0.2,0-0.2,0.1-0.2,0.2v0.2v0.2
			c0,0.2,0,0.3-0.1,0.4c-0.1,0.1-0.1,0.2-0.1,0.4c-0.8,1.4-1.7,3.2-2.8,5.2c-1,2-2.1,4.1-3.1,6.3s-2.1,4.1-3.1,5.9
			c-1,1.8-1.8,3.1-2.3,4.1c1.8-2.4,3.7-5.5,5.9-9.4c2.2-3.8,4.2-7.7,6.2-11.5s3.8-7.4,5.4-10.6c1.6-3.2,2.7-5.4,3.4-6.5
			c0.3-0.6,0.8-0.9,1.3-0.7c0.6,0.2,1,0.5,1.4,1s0.6,1,0.7,1.6s-0.1,0.9-0.6,1.1c-1,1.9-2.3,4.7-4.1,8.4c-1.8,3.7-3.9,7.8-6.4,12.4
			c-2.5,4.6-5.2,9.4-8.1,14.5s-5.9,10.1-8.9,14.9c2.1-0.2,4.9-1.2,8.4-3.1c3.5-1.9,7.2-4.2,10.9-7c3.8-2.7,7.3-5.5,10.7-8.3
			C1639.9,153.9,1642.5,151.5,1644.3,149.6z M1539.7,204.4c0.3,1.3,1.2,2.2,2.8,2.8c1.5,0.6,3.3,0.8,5.3,0.7s4.2-0.4,6.7-1
			s4.8-1.3,7.1-2.3c-3.8,1.4-7.1,2.3-9.7,2.6s-4.8,0.4-6.6,0.1c-1.8-0.2-3.1-0.7-4-1.3C1540.4,205.5,1539.9,204.9,1539.7,204.4z
			 M1555.1,205.1c-4.2,1.1-7.7,1.2-10.6,0.2s-4.3-1.8-4.3-2.6c0,0.8,0.6,1.6,1.7,2.4c-0.2,0.2-0.2,0.3-0.2,0.5h0.5h0.5
			c0,0.6,0.2,0.8,0.5,0.5h1c0.2,0,0.3-0.1,0.5-0.2v0.5c0.2,0.3,0.5,0.5,1.1,0.5s1-0.2,1.3-0.5
			C1549.8,206.8,1552.6,206.4,1555.1,205.1z M1542.6,199.4c0,1.6,0.9,2.7,2.8,3.4c1.8,0.6,4.1,0.9,6.8,0.7c2.7-0.2,5.6-0.7,8.8-1.6
			c3.1-0.9,5.9-2,8.3-3.5c-4.2,1.8-7.9,3-11.2,3.6c-3.3,0.6-6,0.9-8.3,0.7c-2.2-0.2-4-0.6-5.2-1.2
			C1543.5,200.9,1542.8,200.2,1542.6,199.4z M1543.8,199.4c0.2,0.8,1.3,1.4,3.4,1.9s4.7,0.6,7.9,0.2c3.2-0.3,6.7-1.3,10.6-2.9
			c3.8-1.6,7.7-4.2,11.5-7.7c-4.3-0.2-8.5,0-12.5,0.5s-7.6,1.2-10.7,2c-3.1,0.9-5.6,1.9-7.6,3
			C1544.5,197.6,1543.7,198.6,1543.8,199.4z M1552,192.9c-1.3,0.5-2.5,1-3.6,1.7c0.5-0.2,1.4-0.5,2.8-1s3-1,4.9-1.4
			c2.7-0.6,5.8-1.2,9.1-1.7c3.4-0.5,7-0.6,10.8-0.2c-3.7-0.5-8-0.5-13,0h-1.4c-0.2,0.2-0.3,0.2-0.5,0.2s-0.3,0.1-0.5,0.2
			c-0.6-0.3-1.1-0.3-1.4,0c-0.3,0-0.5,0.2-0.5,0.7l-0.2-0.2h-1c-0.2,0-0.4,0.2-0.7,0.5l-0.2-0.2h-0.2l-0.2,0.5l-0.2-0.2h-0.7
			l-0.2,0.2c-0.6,0-1,0.1-1.2,0.2h-0.5c-0.2,0.2-0.3,0.2-0.5,0.2C1552.2,192.9,1552,193,1552,192.9z M1592.4,167.9
			c5-7.7,8-14.1,9-19.1s0.6-8.3-1.3-9.6c-1.9-1.4-5-0.7-9.4,2c-4.3,2.7-9.4,7.9-15.1,15.6c-4.6,6.2-7.2,11.4-7.6,15.4
			s0.4,6.7,2.5,8.2c2.4,1.3,5.4,1.1,8.9-0.5s6.5-4.4,8.9-8.4c-0.2,0.6-0.4,1.2-0.6,1.8s-0.5,1.1-0.8,1.6c0.8-1,1.7-2,2.6-3.1
			C1590.4,170.6,1591.4,169.3,1592.4,167.9z M1586.8,170.8c0-0.3,0.1-0.5,0.2-0.5c0.2,0,0.3,0.2,0.5,0.5s0.1,0.5-0.2,0.5
			C1587,171.2,1586.8,171.1,1586.8,170.8z M1589.5,167.9c0.6,0,0.8,0.4,0.5,1.1c-0.3,0.7-0.6,1.2-1,1.3c-0.2-0.3-0.2-0.8-0.2-1.3
			C1588.8,168.4,1589,168,1589.5,167.9z M1603.2,145.8c1-3.5,0.8-6.2-0.5-8.2l1.4,1.4c-0.8-2.1-2-3.2-3.6-3.5
			c-1.6-0.2-2.9-0.1-3.8,0.4c1.3-0.3,2.2-0.3,2.9,0h-0.2c-0.2,0-0.3,0.1-0.5,0.2h-0.5c-0.8,0-1.5,0.2-2.2,0.6
			c-0.6,0.4-1.4,0.8-2.4,1.3c1-0.3,2-0.6,3.2-0.8s2.3-0.1,3.2,0.4c1,0.5,1.7,1.3,2.3,2.5C1603.1,141.3,1603.3,143.2,1603.2,145.8z
			 M1598.4,134.7c1.6,0,3.1,0.5,4.4,1.4c1.4,1,2.3,2.6,2.8,5c-0.2-2.9-1-4.8-2.6-5.8C1601.3,134.5,1599.8,134.2,1598.4,134.7z"/>
		<path class="st2" d="M1713.2,149.6c1.8-1.9,3.4-3.2,4.9-3.7c1.5-0.6,2.7-0.6,3.6-0.2c0.9,0.4,1.3,1.2,1.3,2.3s-0.6,2.5-1.9,4.1
			c-0.8,1.1-2.3,2.9-4.6,5.3c-2.2,2.4-5,5-8.2,7.9s-6.8,5.8-10.7,8.7c-3.9,2.9-8.1,5.4-12.4,7.7c-6.6,3.5-12.6,5.5-18,6
			s-10.1,0-13.8-1.4c-3.8-1.4-6.6-3.6-8.5-6.6s-2.7-6.3-2.4-10c1.3-4.6,3.7-8.2,7.2-10.6c3.5-2.4,6.4-3.4,8.7-2.9
			c-2.7,1.6-4.2,3.8-4.4,6.5c-0.2,2.7,0.1,5,1.1,6.7c-0.6-1.8-0.8-3.3-0.6-4.7c0.2-1.4,0.6-2.5,1.2-3.5s1.2-1.7,1.9-2.3
			c0.7-0.6,1.3-0.9,1.8-1.1c-1.6,1.1-2.7,2.6-3.2,4.3c-0.6,1.8-0.7,3.5-0.4,5.2c0.3,1.7,1,3.1,2.2,4.3c1.1,1.2,2.6,1.8,4.6,1.8
			c4.6,0,7.5-3,8.7-9.1c1.1-6.1-0.8-15.1-5.8-26.9c-2.6,3-5.5,6.3-8.8,9.9c-3.3,3.5-5.9,6.2-7.8,8.2c-0.8,0.8-1.7,1.1-2.6,1
			c-1-0.2-1.8-0.5-2.4-1.1s-1-1.4-1.2-2.4s0.2-2,1.2-3s2.4-2.6,4.3-4.8s3.9-4.6,5.9-7.1s3.8-4.7,5.4-6.6c1.6-1.9,2.6-3,2.9-3.4
			c2.9-3.4,5.7-6.6,8.4-9.7c2.7-3.1,5.4-5.7,8.1-7.7c2.6-2,5.1-3.2,7.3-3.5c2.2-0.3,4.3,0.7,6.2,3.1c1.8,2.2,2,4.2,0.8,6
			s-2.8,3.3-4.9,4.6c-2.4,1.6-5.4,3-8.9,4.1c6.1,9.1,9.9,17.3,11.4,24.6s1.9,13.3,1.1,18.1c4.3-3,8.5-6.2,12.5-9.6
			C1708.4,154.7,1711.3,151.9,1713.2,149.6z M1654.6,178c3.5,1.6,7.6,1.4,12.3-0.5c-3.8,1.3-7,1.6-9.4,0.8c-2.4-0.7-4.2-1.8-5.5-3.4
			c-1.3-1.5-2.1-3.2-2.5-5s-0.6-3.3-0.6-4.4c-0.8,3-0.6,5.6,0.7,7.7c-0.2,0.2-0.2,0.4-0.2,0.7c0,0.2,0.1,0.2,0.2,0.2l-0.2,1.2
			l1.2-0.2c-0.2,0.2-0.2,0.4-0.2,0.7c0,0.2-0.1,0.3-0.2,0.5h0.7c0.6,0,1.1-0.1,1.4-0.2c0,0.3,0,0.6-0.1,1c-0.1,0.3,0,0.5,0.4,0.5
			c0,0.5,0.2,0.5,0.7,0l0.5-0.5l0.2,1.2C1654.2,178.7,1654.4,178.6,1654.6,178z M1652.7,165.5c-0.3,3,0.3,5.4,1.8,7.2
			s3.3,2.9,5.4,3.4s4.2,0.3,6.4-0.5c2.2-0.8,3.7-2.3,4.7-4.6c-1.6,1.9-3.4,3.2-5.4,3.8s-3.9,0.7-5.8,0.1c-1.8-0.6-3.4-1.6-4.8-3.2
			C1653.6,170.1,1652.8,168,1652.7,165.5z M1659.9,155.6c0.2,0.3,0.2,0.6,0,0.7c-0.2,0.2-0.4,0.2-0.7,0.2c-0.2-0.2-0.2-0.4,0-0.8
			C1659.3,155.4,1659.6,155.3,1659.9,155.6z M1689,168.6c1-5.8,0.8-11.3-0.5-16.6c0.5,1.4,1.1,4.3,1.9,8.7
			c-0.2-4.6-0.9-9.3-2.3-13.8c-1.4-4.6-2.8-7.9-4.4-10c1,1.9,1.9,4,2.8,6.4c0.9,2.3,1.2,3.6,0.8,4c-1.3-3.8-2.7-7.3-4.2-10.3
			s-2.9-5.4-4.2-7.2c3.7,6.4,6.3,12.8,7.9,19.2C1688.4,155.3,1689.1,161.9,1689,168.6z M1689.2,117.7c-1.1,1.3-2.8,2.4-5,3.4
			c2.4-1,4.1-2,5.2-3.1c1-1.1,1.6-2.2,1.7-3.2s-0.1-1.9-0.6-2.6s-1-1.2-1.4-1.6c1.4,1.1,2,2.6,1.7,4.6c-0.3,0.2-0.6,0.3-0.7,0.5
			l-0.2,0.2l0.2,0.7l-0.2,0.2l-0.5-0.2v1.1H1689.2z M1684.4,121.7c5-2.1,7.6-4.3,7.8-6.6c0.2-2.3-0.4-4.1-2-5.4
			c1.3,1.8,1.8,3.7,1.4,5.9C1691.3,117.8,1688.9,119.8,1684.4,121.7z"/>
		<path class="st2" d="M2009.3,149.6c1.8-1.8,3.4-3,4.9-3.6s2.7-0.8,3.6-0.6s1.4,0.9,1.4,2c0.1,1.1-0.4,2.5-1.6,4.1
			c-1,1.3-2.7,3.2-5.2,5.8s-5.4,5.3-8.9,8.2c-3.4,2.9-7.2,5.8-11.2,8.8s-7.9,5.5-11.8,7.6c-6.1,3.4-11.5,5.2-16.1,5.4
			s-8.3-0.6-11.1-2.5c-2.7-1.9-4.4-4.8-4.9-8.5c-0.6-3.8,0.3-8,2.5-12.9c2.2-4.8,4.9-9.3,8.1-13.6c3.1-4.2,6.3-8.4,9.5-12.4
			c-5.3,3-10.6,6.9-15.9,11.5s-10.3,9.4-15,14.2s-8.9,9.4-12.6,13.7s-6.6,7.7-8.7,10.1c-0.3,0.3-1.3,0.5-2.9,0.5s-3.3-0.2-5-0.5
			c-1.8-0.3-3.4-0.8-4.8-1.6c-1.4-0.7-2.2-1.6-2.2-2.5c1.8-4.8,3.9-9.9,6.4-15.1c2.5-5.3,5.2-10.5,8-15.5c2.9-5,5.9-9.8,9.1-14.3
			s6.4-8.3,9.6-11.5c2.1-1.4,4.7-2.3,7.8-2.6c3.1-0.3,6-0.3,8.7,0c2.6,0.3,4.8,0.9,6.4,1.7c1.6,0.8,2,1.7,1.2,2.6
			c-2.4,2.9-5.2,6.1-8.3,9.7c-3.1,3.6-6.4,7.5-9.7,11.7c2.7-2.7,5.6-5.4,8.8-8c3.1-2.6,6.4-5.2,9.7-7.8c6.4-5,12.4-8.2,17.9-9.7
			s10-1.7,13.3-0.6c3.4,1.1,5.2,3.4,5.5,6.8s-1.4,7.7-5.3,12.6c-8.8,11.1-15.1,19.7-18.7,26.1c-3.7,6.3-5,9.4-3.8,9.3
			c2.1,0,5.1-1.1,9-3.4c3.9-2.2,8-4.9,12.1-7.9c4.2-3,8.1-6.2,11.8-9.4C2004.8,154.1,2007.5,151.5,2009.3,149.6z M1915.6,185.9
			c3.8-7.2,7.9-14,12.1-20.3s8.3-12,12.1-17.1c3.8-5,7.3-9.3,10.3-12.7s5.3-5.9,6.7-7.3c-2.1,1.8-4.8,4.5-8.3,8.3
			c-3.4,3.8-7.2,8.2-11.2,13.3s-7.9,10.8-11.8,16.9C1921.8,173.2,1918.5,179.5,1915.6,185.9z M1950.2,134c-1.8,1.4-4.1,3.8-7,7
			s-5.9,6.9-9.1,11.2c-3.2,4.2-6.4,8.9-9.6,13.9s-5.9,10.3-8.2,15.7c3-5.9,6.3-11.5,9.9-16.8c3.5-5.3,6.9-10,10.1-14.2
			s6-7.7,8.5-10.6C1947.3,137.4,1949.1,135.3,1950.2,134z M1918.2,182.8c5.4-8.8,10.8-16.3,16.1-22.6c5.3-6.2,10.3-11.5,14.9-15.9
			c4.6-4.3,8.9-7.8,12.9-10.5c3.9-2.6,7.2-4.8,9.7-6.6c-6.4,3.5-12.2,7.4-17.3,11.5c-5.1,4.2-9.8,8.6-14.1,13.3
			c-4.2,4.7-8.2,9.7-11.8,14.9C1925.1,172.3,1921.6,177.5,1918.2,182.8z M1953.3,143.4c1.6-1.6,3.1-3,4.6-4.3
			c1.4-1.3,2.8-2.5,4.1-3.6c-2.6,1.8-5.2,3.8-7.8,6.1c-2.6,2.3-5.2,4.7-7.8,7.2c-2.6,2.5-5,5-7.2,7.6s-4.2,4.9-5.8,7
			c1.3-1.6,2.7-3.2,4.2-4.8s3.3-3.4,5.4-5.3h0.2c0.2,0,0.3-0.1,0.5-0.2c0.2-0.2,0.4-0.3,0.7-0.5l-0.2-1h0.7h0.5v-1
			c0.3-0.3,0.5-0.6,0.5-0.7c0.5,0,1-0.4,1.4-1.2c0.6-0.2,1-0.5,1-1h1.2v-1h1l0.7-1.2c0-0.3,0.2-0.5,0.5-0.5s0.6-0.2,1-0.5
			c0.2-0.3,0.3-0.5,0.5-0.6C1953.2,143.9,1953.3,143.7,1953.3,143.4z M1979,152.3c-2.2,2.2-4.3,4.6-6.1,7.1c-1.8,2.5-3.4,4.8-4.8,7
			s-2.3,4.1-2.9,5.9c-0.6,1.8-0.7,3.1-0.4,4.1c-0.3-0.8,0.1-2.4,1.3-4.7c1.2-2.3,2.6-4.8,4.3-7.5c1.7-2.6,3.3-5.1,4.9-7.3
			C1977,154.6,1978.2,153.1,1979,152.3z M1966.3,174.4c-0.8,2.4-0.6,3.8,0.5,4.3c-0.3-1.3,0.4-3.6,2.2-7c1.8-3.4,3.9-6.9,6.4-10.7
			s4.9-7.3,7.3-10.7s4.1-5.6,5-6.7c-3.7,4.3-6.8,8.2-9.4,11.7c-2.6,3.4-4.7,6.5-6.5,9.3c-0.8,0.5-1,1-0.7,1.7h-0.5
			c-0.2,0-0.3,0-0.5,0.1s-0.3,0.1-0.5,0.1l1,1.2h-1v0.5c0,0.3,0.1,0.6,0.2,0.7l-1.4,0.2v0.2c0,0.3,0.2,0.6,0.5,1l-1-0.2v0.2v0.5
			l-1,0.2v1.2c-0.2,0.2-0.2,0.6-0.2,1.2v0.7c0,0.2,0.1,0.3,0.2,0.5h-0.2c-0.2,0-0.2,0-0.2-0.1
			C1966.5,174.4,1966.5,174.4,1966.3,174.4z"/>
		<path class="st2" d="M1842.8,145.4c-0.8-0.2-2,0-3.5,0.6s-3.2,1.8-4.9,3.6c-1.9,1.9-4.7,4.5-8.4,7.7c-3.7,3.2-7.6,6.3-11.8,9.3
			c-4.2,3-8.2,5.6-12,7.8s-6.8,3.4-8.9,3.4c-0.5,0-0.2-1,0.7-2.9c1-1.9,2.6-4.6,4.8-8.2c2.2-3.5,5-7.7,8.4-12.5s7.2-10,11.5-15.6
			c3.8-5,5.4-9.1,4.8-12.5c-0.6-3.4-2.7-5.6-6.1-6.7s-7.9-0.8-13.5,0.8c-5.5,1.7-11.2,5-16.9,10c-3.8,3.4-7.5,6.7-10.8,10.1
			c1.4-3.5,1.7-6.3,0.7-8.3s-2.8-3.1-5.6-3.2c-2.8-0.2-6.5,0.7-10.9,2.5c-4.5,1.8-9.5,4.9-15.1,9.3c-4.6,3.7-8.7,7.1-12.3,10.1
			c3.7-4.5,7.2-8.7,10.5-12.5s6.2-7.3,8.8-10.3c0.6-0.8,0.5-1.5-0.4-2.2c-0.9-0.6-2.2-1.1-4-1.4c-0.8,0.8-1.7,1.8-2.8,3.1
			c-1,1.3-2.1,2.6-3.2,3.8c-1.1,1.3-2.2,2.6-3.1,3.8c-1,1.3-1.8,2.2-2.4,2.9c0.6-0.8,1.4-2,2.4-3.5s2-3.1,3.1-4.7
			c1.1-1.8,2.4-3.7,3.8-5.8c-0.3,0.3-0.7,0.7-1.2,1.1s-0.9,0.8-1.2,1.1c-0.5,0.5-0.9,0.8-1.2,1c0.6-0.8,1.1-1.5,1.3-2.2
			c0.2-0.6,0.5-1.1,0.8-1.4c-2.7-0.3-5.6-0.3-8.5,0.1c-3,0.4-5.6,1.2-7.8,2.5c-3.2,3.2-6.4,7.1-9.6,11.5c-3.2,4.5-6.2,9.3-9.1,14.3
			s-5.6,10.2-8.1,15.5s-4.6,10.3-6.4,15.1c0,1,0.7,1.8,2,2.5c1.4,0.7,2.9,1.2,4.6,1.6c1.7,0.3,3.2,0.5,4.7,0.5s2.3-0.2,2.6-0.5
			c7.2-8.7,15-16.7,23.4-24c8.4-7.4,16.2-13.1,23.4-17.3c-1.6,2.2-3.3,4.9-5.2,8.1c-1.8,3.1-3.7,6.3-5.5,9.5s-3.5,6.3-5,9.3
			s-2.8,5.5-3.7,7.6c1.8,3.5,3.5,5.8,5.2,6.7c1.7,1,3.4,1,5.2,0.2c8.8-11.5,17.6-22,26.3-31.4c8.7-9.4,16.7-16.6,23.9-21.7
			c-3.2,3.8-6.8,8.5-10.9,14.1s-7.3,10.7-9.5,15.5s-3.1,9.1-2.5,12.9c0.6,3.8,2.2,6.6,4.9,8.5c2.7,1.9,6.4,2.8,11.1,2.5
			c4.6-0.2,10-2,16.1-5.2c3.8-2.1,7.8-4.6,11.8-7.6s7.7-5.9,11.1-8.8c3.4-2.9,6.3-5.6,8.8-8c2.5-2.5,4.2-4.4,5.2-5.9
			c1.1-1.6,1.6-3,1.6-4.1C1844,146.3,1843.6,145.7,1842.8,145.4z M1783.9,138.1c2.9-2.4,5.5-4.5,7.9-6.2c0-0.2,0-0.3,0.1-0.4
			c0.1-0.1,0.1-0.2,0.1-0.4v-0.2l0.2,0.5l0.5-0.5l0.5-1c0.2,0.2,0.3,0.2,0.4,0.2s0.2,0.1,0.4,0.2c0.2,0.2,0.3,0.2,0.5,0.2
			c0-0.3-0.1-0.6-0.2-0.7c-0.2-0.2-0.1-0.3,0.2-0.5c0.3-0.2,0.4-0.3,0.2-0.4c-0.2-0.1-0.1-0.3,0.2-0.6c0.3-0.2,0.5-0.2,0.6,0
			s0.3,0.3,0.6,0.5c0.2-0.2,0.3-0.3,0.4-0.5s0.2-0.3,0.4-0.5l0.5-0.5c0.2,0,0.4,0.2,0.7,0.5c0.2,0.2,0.3,0.2,0.5,0.2
			c0-0.2,0-0.3,0.1-0.5s0.1-0.4,0.1-0.7v-0.7c0.3,0,0.6,0.1,1,0.2c0.3,0.2,0.5,0.2,0.5,0c0-0.3,0.3-0.6,0.8-0.7
			c0.6-0.2,1-0.2,1.3-0.2c0.3-0.5,0.7-0.6,1.2-0.5c2.7-1,4.8-1.3,6.4-1.1c1.5,0.2,2.4,0.7,2.8,1.3c-3.5-0.5-7.3,0.2-11.2,1.9
			c-3.9,1.8-7.7,3.9-11.2,6.5s-6.7,5.2-9.6,7.8s-5,4.4-6.2,5.4C1777.9,143.5,1781,140.5,1783.9,138.1z M1723.5,165.2
			c2.6-2.7,5.4-5.3,8.4-7.8s5.9-4.8,8.8-6.9c2.9-2.1,5.4-3.6,7.5-4.6c-2.9,1.8-6,4-9.4,6.6s-6.5,5.3-9.5,8.1c-3,2.7-5.5,5.2-7.7,7.5
			c-2.2,2.2-3.6,3.8-4.2,4.6C1718.8,170.4,1720.8,168,1723.5,165.2z M1742.9,152c-5.2,4-10.1,8.1-14.8,12.4
			c-4.6,4.2-8.7,8.3-12.1,12c-2.8,3.1-4.9,5.4-6.2,6.9c-0.2,0.3-0.5,0.6-0.7,0.9c0.2-0.2,0.4-0.5,0.7-0.9
			c5.1-6.4,10.3-12.3,15.6-17.6c0-0.2,0.1-0.3,0.2-0.5c0-0.2,0.1-0.3,0.2-0.5l0.7,0.2v-0.7V164l0.2-0.2c0.2,0.2,0.3,0.2,0.5,0.2h0.2
			v-0.7c0.2,0,0.3-0.1,0.5-0.2c0.2,0,0.3,0,0.4-0.1s0.2-0.1,0.4-0.1c0.5-0.5,0.6-0.7,0.5-0.7v-0.5c0-0.2,0.1-0.2,0.2-0.2l0.2,0.7
			c0.3-0.3,0.5-0.6,0.5-0.7V161l0.2-0.5l0.5,0.2V160h0.2c0.2,0,0.3,0,0.4-0.1s0.2-0.1,0.4-0.1h0.7c0.2-0.3,0.3-0.7,0.5-1.1
			c0.2-0.4,0.4-0.6,0.7-0.6l0.5-0.5h0.2c0-0.2,0.2-0.5,0.7-1l0.5-0.5h0.5l0.2-0.7l0.2-0.2l0.2-0.5c0.2,0,0.3-0.1,0.5-0.2
			c0.2,0,0.3,0,0.4-0.1s0.2-0.1,0.4-0.1c3.8-3.2,7.4-5.8,10.8-7.7s6.2-3,8.6-3.4C1753.1,145.1,1748.1,148,1742.9,152z M1769.7,157.4
			c-4,4.2-7.7,8.3-11.1,12.1s-6.2,7.2-8.5,10.2s-3.9,5-4.7,6.1c1.1-2.1,3.2-5,6.1-8.9c3-3.8,6.3-7.9,10-12.1
			c3.7-4.2,7.4-8.2,11.1-11.8s6.7-6.2,9.1-7.8C1777.7,149.1,1773.7,153.2,1769.7,157.4z M1788.8,136c-0.7,0.5-1.1,0.8-1.3,0.9
			C1787.9,136.6,1788.3,136.3,1788.8,136s1-0.8,1.7-1.3c1.7-1.3,3.6-2.6,5.9-4c2.2-1.4,4.6-2.6,7.1-3.6c2.5-1,4.8-1.5,6.9-1.3
			c-0.5,0.2-1.2,0.4-2.3,0.6c-1,0.2-2.5,0.7-4.3,1.4s-4.1,1.8-6.7,3.1C1794.7,132.2,1791.9,133.9,1788.8,136z M1775.7,179.7
			c-1-2.4-1.3-4.9-1.1-7.5c0.2-2.6,0.9-5,1.9-7.3s2-4.1,3-5.4c-1,1.9-1.8,3.8-2.4,5.8c-0.6,1.9-1.1,3.8-1.4,5.8
			c-0.2,0.2-0.3,0.2-0.5,0.2s-0.2,0.1-0.2,0.2l1,0.2l-0.2,0.5l-0.2,0.2c0.3,0,0.5,0.1,0.5,0.2c0,0.6-0.1,1-0.2,1.2
			c0.2,0.2,0.2,0.4,0.2,0.6c0,0.2-0.1,0.4-0.2,0.4v0.7h0.5c-0.2,0.3-0.2,0.6-0.2,1v0.2l-0.2,0.5c0.2,0,0.2,0.1,0.2,0.2
			c1.1,3.2,2.9,5.7,5.3,7.5C1778.5,183.8,1776.7,182.1,1775.7,179.7z M1777.5,179.4c-0.9-2.4-1.2-4.9-1-7.6c0.2-2.6,0.8-5.1,1.8-7.5
			c1-2.3,2-4.1,3.1-5.4c-1.1,1.8-2,3.6-2.8,5.6c-0.7,2-1.2,4-1.6,6.1l0.2-0.2l0.2-0.2c0-0.8,0.2-1.8,0.5-2.9
			c0.3-1.1,0.7-1.9,1.2-2.4c-0.2,0.5-0.4,1.3-0.6,2.5s-0.4,2.5-0.6,4c-0.2,1.4-0.2,3,0,4.7s0.6,3.2,1.4,4.7
			c-0.5-0.5-0.9-1.3-1.3-2.4c-0.4-1.1-0.7-2.2-0.8-3.1c-0.2-0.2-0.3-0.2-0.5-0.2c0.5,4.5,2.6,7.8,6.2,9.9
			C1780.3,183.7,1778.4,181.8,1777.5,179.4z"/>
		<g>
			<path class="st2" d="M1865.8,181.1c0,0.2,0,0.5,0.1,0.7h0.1C1866,181.6,1865.9,181.4,1865.8,181.1z"/>
			<path class="st2" d="M1891.2,183c0.1,0.1,0.2,0.1,0.3,0.2c0.6-0.4,1.2-0.9,1.8-1.3C1892.5,182.2,1891.8,182.6,1891.2,183z"/>
			<path class="st2" d="M1872.1,118.1c0.5-0.2,0.7-0.4,0.6-0.8s-0.3-0.5-0.6-0.4c-0.5,0-0.7,0.2-0.7,0.6
				C1871.4,117.9,1871.6,118.1,1872.1,118.1z"/>
			<path class="st2" d="M1876.3,117.5c0.9-0.1,1.2-0.6,1.1-1.6c-0.2-1.1-0.7-1.4-1.6-0.7c-0.9,0.6-1.2,1.1-1.1,1.4
				C1874.9,117.3,1875.4,117.6,1876.3,117.5z"/>
			<path class="st2" d="M1831,187.6c1.6,1.1,3.4,2,5.4,2.6c0.3-0.3,0.6-0.5,0.9-0.8C1835.2,189.1,1833.1,188.5,1831,187.6z"/>
			<path class="st2" d="M1888,144c0.3-0.4,0.6-0.8,1-1.3C1888.7,142.8,1888.4,143.3,1888,144z"/>
			<path class="st2" d="M1838.8,188.2c0.4-0.3,0.8-0.7,1.3-1c-1.7-0.2-3.2-0.7-4.4-1.4c-1.8-1-3.4-2.2-4.6-3.6
				c-1.2-1.4-2.1-2.7-2.6-4.1c-0.6-1.4-0.8-2.4-0.8-3.2c0.8,2.2,2.4,4.8,4.7,7.6c1.9,2.3,4.6,3.8,8,4.6c5.1-4,9.9-6,15.2-6.5
				c0.8-0.1,1.6-0.1,2.4-0.1c2.4,0,4.7,0.3,6.8,1c0.6-0.6,1.1-1.3,1.6-2c0.2,1.1,0.7,2.2,1.2,3.1c0.5,0.2,0.9,0.5,1.4,0.7
				c2.3-1.3,4.8-2.2,7.4-2.6c1.4-0.2,2.7-0.3,4-0.3c3.6,0,7,0.8,10.1,2.2c0.2-0.1,0.4-0.2,0.6-0.3c5.5-3,10.9-6.5,16.1-10.5
				c5.2-3.9,9.9-7.9,13.9-11.9c4.1-4,6.8-7,8-8.9c1-1.3,1.4-2.4,1.2-3.5c-0.2-1-0.7-1.7-1.6-2s-2-0.2-3.4,0.4
				c-1.4,0.6-2.8,1.6-4.4,3.2c-1.9,2.2-5,5.1-9.4,8.7c-4.3,3.5-8.8,6.8-13.5,9.9c1.6-1.4,2.9-2.8,3.8-4.1c-2.7,2.4-5.5,4.6-8.4,6.7
				c-2.9,2.1-5.4,3.6-7.7,4.6c-2.2,1-3.8,1.1-4.8,0.5s-0.8-2.6,0.5-5.8c3-6.9,7.3-13.6,12.7-20.2c5.4-6.6,10.8-12,16.1-16.3
				c0.2-0.5-0.4-1.4-1.6-2.9c-1.2-1.4-2.4-2.8-3.7-4.1c-2.1,0.8-4.6,2.6-7.4,5.5c-2.9,2.9-5.2,5.9-7,9.1c0.8-1.1,2-2.5,3.5-4.1
				s2.5-2.5,3-2.6c-1.4,1.6-2.8,3.3-4.2,5c-1.4,1.8-2.6,3.4-3.8,4.8c-1.2,1.4-2.2,2.7-3,3.8s-1.3,1.8-1.4,2.2c0.3-0.8,1-2.1,2.2-4
				c0.5-0.8,0.9-1.4,1.2-1.9c-0.4,0.5-0.8,1-1.1,1.4c-0.6,0.7-1.2,1.5-1.8,2.3c0.6-1.1,1.3-2.2,1.9-3.4c0.6-1.1,1.6-2.6,2.9-4.3
				c0-0.3,0.2-0.6,0.5-1l0.5-0.5c0.2,0,0.2-0.1,0.2-0.2c0-0.2,0.1-0.3,0.2-0.5c0.2-0.2,0.2-0.3,0.2-0.5h1c0-0.2,0.1-0.3,0.2-0.5
				c0-0.2,0.1-0.2,0.2-0.2c-0.2-0.2-0.2-0.4-0.2-0.7c0-0.2,0.1-0.2,0.2-0.2h0.7c0.2-0.2,0.2-0.3,0.2-0.5v-0.5l0.5-0.2v-0.7
				c0-0.2,0.1-0.2,0.2-0.2c0.2-0.2,0.2-0.4,0.1-0.7s0-0.4,0.4-0.2c0.2,0,0.3,0,0.5-0.1s0.4,0,0.7,0.1c0.2-0.3,0.2-0.6,0.1-0.8
				s0-0.4,0.4-0.4c0.2-0.2,0.3-0.4,0.5-0.6c0.2-0.2,0.4-0.4,0.7-0.4c2.1-2.4,4-4.1,5.8-5c-1.3-0.8-2.6-1.4-4.1-1.8
				c-1.4-0.4-2.8-0.4-4.1,0.1c-1.4,0.5-3.3,1.5-5.5,3.1c-1.3-1.8-3.5-3-6.6-3.8s-6-0.9-8.5-0.2c1.8-0.5,3.7-0.8,5.9-1
				c2.2-0.2,4.4,0,6.9,0.5c-1.9-2.1-4.8-3.2-8.5-3.5c-3.8-0.2-6.9,0-9.3,0.8c1.3-1.6,1-2.6-0.8-3.1s-4.5,0-8,1.6
				c-3.5,1.5-7.5,4.2-12,8.2c-4.5,3.9-8.8,9.4-13,16.5c-6.1,10.4-9.2,19.1-9.4,26.1c-0.2,7,1.4,12.1,4.8,15.5
				C1833.5,186.2,1836,187.6,1838.8,188.2z M1886.4,148.2c2-3,4.1-5.9,6.4-8.6c2.2-2.7,4.4-5.1,6.5-7.1s3.8-3.2,5-3.7
				c-1.6,1.4-3.4,3.2-5.4,5.3s-4,4.4-6,6.9s-4,5.1-5.9,7.8s-3.7,5.4-5.3,7.9C1882.8,154,1884.4,151.2,1886.4,148.2z M1881,127.4
				c2.9,0.2,5.4,0.5,7.7,0.8l-2.4,2.4c-2.1-2.1-6.2-2.9-12.5-2.4C1875.7,127.4,1878.1,127.1,1881,127.4z M1863.7,140.6
				c2.9-2.8,5.6-4.9,8-6.2c2.5-1.4,4.8-2.2,6.9-2.4s3.9-0.1,5.5,0.4c-2.9,3.8-5.2,7.4-7.1,10.7c-1.8,3.3-3.5,6.3-5,9.1
				s-3,5.4-4.4,7.9s-3.1,4.8-5,7.1c-3,3.7-5.9,6-8.4,6.9c-2.6,0.9-4.4,0.6-5.5-1c-1.1-1.5-1.3-4.1-0.6-7.7c0.7-3.6,2.8-8.1,6.4-13.3
				C1857.7,147.2,1860.8,143.4,1863.7,140.6z M1845.7,166.3c0.5-2.5,2.1-5.6,4.8-9.5c-2.2,3.5-3.6,6.7-4,9.6
				c-0.4,2.9-0.2,5.2,0.6,6.8c0.8,1.7,2.2,2.6,4.2,2.6c2,0.1,4.4-0.9,7.3-3c-3.2,3.5-5.9,5.3-8.2,5.3c-0.2,0.2-0.4,0.2-0.7,0.1
				c-0.3-0.1-0.6-0.1-0.7-0.1c0-0.2,0-0.3-0.1-0.4c-0.1-0.1-0.1-0.2-0.1-0.4c-0.2,0-0.2,0-0.2,0.1s-0.1,0.1-0.2,0.1h-0.2l-0.5-0.5
				h-0.5v-1c0-0.2-0.1-0.2-0.2-0.2c-0.3,0-0.5-0.1-0.5-0.2c0-0.2,0-0.3-0.1-0.4c-0.1-0.1-0.1-0.2-0.1-0.4h-0.2v-0.7
				c-0.2-0.2-0.2-0.3-0.2-0.5v-0.7C1845.2,171.1,1845.2,168.8,1845.7,166.3z"/>
		</g>
	</g>
	<path class="st2" d="M1885.7,4.3"/>
	<g>
		<path class="st2" d="M1747.7,73.2c9,14.6,19.1,27.2,32.6,35.3c3.4,2,6,4.2,8.1,6.6c4.1-2.6,8.2-4.5,12.3-5.7c4.4-1.3,8.4-2,12.1-2
			c2.9,0,5.6,0.4,8.1,1.2c7.4,2.4,12.4,8,13.8,15.4c0,0.2,0.1,0.4,0.1,0.6c2.2-2.6,4.4-4.9,6.7-6.9c5.4-4.7,10.3-8,15-10.1
			c4.2-1.8,7.8-2.7,11.1-2.7c1,0,2,0.1,2.9,0.2c2.4-1.3,4.6-1.6,6.1-1.6c4,0,7.5,1.9,9.7,5c3.1,1,5.6,2.4,7.4,3.8
			c1.3-0.3,2.7-0.5,4-0.5c1.6,0,3.3,0.2,4.9,0.7c2.5,0.7,4.9,1.7,7.1,3.1c0.2,0.1,0.3,0.2,0.4,0.3c1,0.5,1.9,1.2,2.8,2
			c1.5,1.5,3,3.2,4.4,4.8c0.5,0.6,1.5,1.8,2.3,3.3c2.3-2.9,4.6-5.5,7-7.9c0.5-0.5,1-0.9,1.6-1.3c3.7-2.5,8.1-4.1,13.1-4.6
			c2-0.2,3.9-0.3,5.7-0.3c1.9,0,3.7,0.1,5.5,0.3c4,0.5,7.3,1.4,10.1,2.8c0.8,0.4,1.5,0.8,2.2,1.3c3.1-1.6,6.2-2.8,9.3-3.6
			c2.5-0.7,4.7-1.1,6.9-1.4c-3.5-18.7-21.8-24-34.4-16.4c-0.7-10.6-6.9-17.6-15.9-21.9c-7.7-3.6-15.7-6.9-23.9-8.8
			c-41.1-9.4-82.4-8.1-123.6-0.9c-4.7,0.8-9.3,2.5-14.5,3.9c7,2.8,13,5.2,18.9,7.6C1774.2,79.9,1761.5,76,1747.7,73.2z M1898.4,83.9
			c-8.3-2.1-14.1-3.2-17.3-3.5c3.2-0.1,7.1,0.2,11.9,1.1s9.6,2.1,14.3,3.5c4.8,1.4,9.1,2.9,13,4.5s6.6,2.9,8,4
			C1916.7,89.2,1906.7,85.9,1898.4,83.9z M1864.3,68.4c2.3-0.1,5.2,0,8.8,0.2c3.5,0.2,7.6,0.6,12.1,1.3c4.5,0.7,9.3,1.7,14.3,3.1
			s10.2,3.3,15.5,5.6c5.3,2.3,10.6,5.2,15.8,8.7c-4.4-2.3-9-4.5-13.8-6.7s-10.1-4.1-15.8-5.8c-5.7-1.7-11.9-3.1-18.7-4.2
			c-6.7-1.1-14.3-1.8-22.5-2C1860.6,68.6,1862,68.5,1864.3,68.4z M1852.5,72.3c0.7,0.2,1.2,0.4,1.4,0.6c0.2,0.2,0.4,0.3,0.6,0.3
			l0.6-1.4c0.1,0.1,0.3,0.2,0.6,0.3c0.2,0.1,0.3,0.1,0.4,0.3l0.8-0.6c0.3,0,0.7,0.1,1.2,0.2c0.7,0.2,1.6,0.6,2.7,1.2l1.9-0.6
			l1.7,1.1c0.6-0.3,1.4-0.5,2.5-0.7c0.5-0.1,1.1-0.2,1.8-0.3l0.6,0.3l1.9-0.1l0.9,0.9c0.4,0.4,0.7,0.7,1.1,0.8
			c0.7-0.4,1.5-0.7,2.5-1s1.7-0.2,2.2,0.2c0.2-0.1,0.8-0.2,1.6-0.1c0.8,0.1,1.4,0.2,1.8,0.3c5.9,0.8,11.6,1.9,16.9,3.2
			c5.4,1.3,10.1,2.7,14.3,4.2c4.2,1.5,7.8,3,10.7,4.5c3,1.5,5.2,3,6.7,4.4c-7.4-2.7-15.1-5.3-23-7.7s-16.5-4.4-25.6-5.9
			s-18.9-2.4-29.3-2.6s-21.7,0.5-34,2.3C1829.5,73.7,1841,72.4,1852.5,72.3z"/>
		<path class="st2" d="M1823.7,198.2c0-1-0.1-2-0.9-2.6c-0.5-0.4-1.3-0.4-1.9-0.3c-1.7,0.3-3.3,1.3-4.2,2.8
			c-1.1,1.9-1.2,4.4,0.2,6.1c1.5,1.9,4.2,2.1,6.5,1.7c4.6-0.8,8.2-3.5,11.7-6.3c3.1-2.5,6-5.2,9.2-7.6c3.5-2.7,7.3-4.8,11.9-5.2
			c4.5-0.4,8.5,0.7,12,3.5c0.3,0.2,0.6,0.4,0.9,0.6c2.4-2.1,5.1-3.6,8.2-4c4.4-0.6,8.6,0,12.2,2.4c3.7,2.5,7.2,5.3,10.7,8.1
			s6.7,5.9,10.9,7.5c1.9,0.7,4,1.1,6,1.1c4.4,0,5.5-3.1,4.8-6.5c-0.4-2.3-3.2-4.2-5.6-4.2c-1.6,0-1.9,0.4-2.2,3
			c-0.9-1.1-1.6-2.2-1-3.4c0.4-0.8,1.5-1.6,2.3-1.7c5.2-0.7,11.8,5.5,11.6,10.8c-0.1,2.5-1.3,4.5-3.1,6.1
			c-5.9,5.1-12.8,7.6-20.5,7.8c-8.1,0.3-16-0.2-23.8-2.6c-4-1.2-7.6-3.2-10.5-6.3c-1.7,1.3-3.3,2.7-5.1,3.8
			c-3.9,2.5-8.4,3.4-12.9,4.1c-6.9,1.1-13.8,1.5-20.7,0.6c-6.3-0.9-12-3.3-16.7-7.7c-3.8-3.6-3.9-9,0-12.5c2.1-1.9,7-5.7,10-3.8
			c0.8,0.5,1.2,1.4,1.2,2.4S1824.4,197.6,1823.7,198.2z"/>
		<path class="st2" d="M1929.6,21.1c-0.5,0.2-0.9,0.3-1.1,0.5c-3.6,3.1-7,6.2-10.7,9.2c-1.8,1.5-2.7,3-2.7,5.5
			c-0.1,6.1-6.3,10.4-11.9,8.7c-4-1.2-6.3-3.9-7-8c-0.6-3.8,1.1-6.6,4-8.8c1.7-1.2,1.8-1.9,0.4-3.6c-5.3-6.4-9.8-13.3-12-21.5
			c-0.2-0.5-0.1-1.4-0.9-1.3c-0.4,0-0.8,0.6-1,1.1c-4.1,7.3-9.7,13.3-16.6,18.2c-1.7,1.2-2,2.1-0.4,3.6c2.7,2.6,3.1,6,2,9.4
			c-1.5,4.8-6.7,7.3-11.8,5.8c-4.6-1.3-7.6-6.3-6.3-11.1c0.5-2,0.3-3.4-1-5c-2.3-2.8-4.2-5.7-6.5-8.5c-1.1-1.3-1.8-3-4-4.1
			c0.5,1.7,0.8,3,1.1,4.2c2.8,10.1,4.9,20.3,4.9,30.8c0,2.4,0.7,3.4,2.5,3.8c4.4,0.3,17,0.6,29.8,2.1c15.8,1.8,32,4.7,33.3,4.9
			c1.3,0.1,2.1-0.5,2.4-1.9c2.2-10.9,6.8-20.8,12.1-30.4C1928.9,23.6,1929.7,22.6,1929.6,21.1z"/>
	</g>
	<g>
		<g>
			<path class="st2" d="M1515.1,233.8h11.5c2.9,0,5.2,0.8,6.7,2.3c1.1,1.1,1.7,2.5,1.7,4.3v0.1c0,3.1-1.8,4.7-3.7,5.7
				c3,1,5.1,2.8,5.1,6.2v0.1c0,4.6-3.8,7-9.5,7H1515v-25.7H1515.1z M1530.6,241c0-2-1.6-3.3-4.5-3.3h-6.5v6.8h6.2
				C1528.6,244.6,1530.6,243.4,1530.6,241L1530.6,241z M1526.7,248.4h-7.1v7h7.5c3.1,0,5-1.2,5-3.5v-0.1
				C1532,249.7,1530.3,248.4,1526.7,248.4z"/>
			<path class="st2" d="M1555.8,233.6h4.2l11.3,25.9h-4.8l-2.6-6.2h-12.1l-2.6,6.2h-4.6L1555.8,233.6z M1562.3,249.2l-4.4-10.3
				l-4.4,10.3H1562.3z"/>
			<path class="st2" d="M1580.9,233.8h11.4c3.2,0,5.8,1,7.4,2.6c1.4,1.4,2.1,3.3,2.1,5.5v0.1c0,4.2-2.5,6.7-6.1,7.8l6.9,9.7h-5.4
				l-6.3-8.9h-5.6v8.9h-4.5L1580.9,233.8L1580.9,233.8z M1592,246.5c3.2,0,5.3-1.7,5.3-4.3v-0.1c0-2.8-2-4.3-5.3-4.3h-6.6v8.6h6.6
				V246.5z"/>
			<path class="st2" d="M1612.5,233.8h11.5c2.9,0,5.2,0.8,6.7,2.3c1.1,1.1,1.7,2.5,1.7,4.3v0.1c0,3.1-1.8,4.7-3.7,5.7
				c3,1,5.1,2.8,5.1,6.2v0.1c0,4.6-3.8,7-9.5,7h-11.9v-25.7H1612.5z M1627.9,241c0-2-1.6-3.3-4.5-3.3h-6.5v6.8h6.2
				C1626,244.6,1627.9,243.4,1627.9,241L1627.9,241z M1624.1,248.4h-7.1v7h7.5c3.1,0,5-1.2,5-3.5v-0.1
				C1629.4,249.7,1627.6,248.4,1624.1,248.4z"/>
			<path class="st2" d="M1644.1,233.8h19v4h-14.5v6.7h12.9v4h-12.9v6.9h14.7v4h-19.2V233.8z"/>
			<path class="st2" d="M1682.9,233.6h4.2l11.3,25.9h-4.8l-2.6-6.2h-12.1l-2.6,6.2h-4.6L1682.9,233.6z M1689.4,249.2l-4.4-10.3
				l-4.4,10.3H1689.4z"/>
			<path class="st2" d="M1707.9,233.8h11.4c3.2,0,5.8,1,7.4,2.6c1.4,1.4,2.1,3.3,2.1,5.5v0.1c0,4.2-2.5,6.7-6.1,7.8l6.9,9.7h-5.4
				l-6.3-8.9h-5.6v8.9h-4.5L1707.9,233.8L1707.9,233.8z M1719,246.5c3.2,0,5.3-1.7,5.3-4.3v-0.1c0-2.8-2-4.3-5.3-4.3h-6.6v8.6h6.6
				V246.5z"/>
			<path class="st2" d="M1739.8,233.8h4.5v25.7h-4.5V233.8z"/>
			<path class="st2" d="M1765.4,233.6h4.2l11.3,25.9h-4.8l-2.6-6.2h-12.1l-2.6,6.2h-4.6L1765.4,233.6z M1771.9,249.2l-4.4-10.3
				l-4.4,10.3H1771.9z"/>
		</g>
		<rect x="1477.1" y="246.9" class="st2" width="19" height="4"/>
		<rect x="1797.1" y="246.9" class="st2" width="19" height="4"/>
	</g>
</g>
</svg>
