<?xml version="1.0" encoding="utf-8"?>
<!-- Generator: Adobe Illustrator 22.1.0, SVG Export Plug-In . SVG Version: 6.00 Build 0)  -->
<svg version="1.1" id="Camada_1" xmlns="http://www.w3.org/2000/svg" xmlns:xlink="http://www.w3.org/1999/xlink" x="0px" y="0px"
	 viewBox="0 0 512 512" style="enable-background:new 0 0 512 512;" xml:space="preserve">
<style type="text/css">
	.st0{fill:#25375B;}
</style>
<image style="overflow:visible;" width="1600" height="900" xlink:href="830693DE.jpg"  transform="matrix(1 0 0 1 -7592 -7592)">
</image>
<image style="overflow:visible;" width="1600" height="900" xlink:href="830693E2.jpg"  transform="matrix(1 0 0 1 -7592 -7592)">
</image>
<g>
	<g>
		<path class="st0" d="M512,64c0-12.8-8.5-21.3-21.3-21.3H21.3C8.5,42.7,0,51.2,0,64v42.7C0,119.5,8.5,128,21.3,128h469.3
			c12.8,0,21.3-8.5,21.3-21.3V64z"/>
		<path class="st0" d="M512,234.7c0-12.8-8.5-21.3-21.3-21.3H21.3C8.5,213.3,0,221.9,0,234.7v42.7c0,12.8,8.5,21.3,21.3,21.3h469.3
			c12.8,0,21.3-8.5,21.3-21.3V234.7z"/>
		<path class="st0" d="M512,405.3c0-12.8-8.5-21.3-21.3-21.3H21.3C8.5,384,0,392.5,0,405.3V448c0,12.8,8.5,21.3,21.3,21.3h469.3
			c12.8,0,21.3-8.5,21.3-21.3V405.3z"/>
	</g>
</g>
</svg>
