<?xml version="1.0" encoding="utf-8"?>
<!-- Generator: Adobe Illustrator 22.1.0, SVG Export Plug-In . SVG Version: 6.00 Build 0)  -->
<svg version="1.1" id="Camada_1" xmlns="http://www.w3.org/2000/svg" xmlns:xlink="http://www.w3.org/1999/xlink" x="0px" y="0px"
	 viewBox="0 0 11796.1 87.9" style="enable-background:new 0 0 11796.1 87.9;" xml:space="preserve">
<style type="text/css">
	.st0{fill:#EA3649;}
	.st1{fill:#F8ECCF;}
	.st2{fill:#13345C;}
	.st3{fill:#F7EDCF;}
</style>
<g>
	<polygon class="st0" points="4.7,88 187.4,88 370.1,1.3 187.4,1.3 	"/>
	<polygon class="st1" points="187.4,88 370.1,88 552.7,1.3 370.1,1.3 	"/>
	<polygon class="st2" points="370.1,88 552.7,88 735.4,1.3 552.7,1.3 	"/>
	<polygon class="st3" points="552.7,88 735.4,88 918.1,1.3 735.4,1.3 	"/>
	<polygon class="st0" points="735.4,88 918.1,88 1100.8,1.3 918.1,1.3 	"/>
	<polygon class="st1" points="918.1,88 1100.8,88 1283.5,1.3 1100.8,1.3 	"/>
	<polygon class="st2" points="1100.8,88 1283.5,88 1466.2,1.3 1283.5,1.3 	"/>
	<polygon class="st3" points="1283.5,88 1466.2,88 1648.8,1.3 1466.2,1.3 	"/>
	<polygon class="st0" points="1466.2,88 1648.8,88 1831.5,1.3 1648.8,1.3 	"/>
	<polygon class="st1" points="1648.8,88 1831.5,88 2014.2,1.3 1831.5,1.3 	"/>
	<polygon class="st2" points="1831.5,88 2014.2,88 2196.9,1.3 2014.2,1.3 	"/>
	<polygon class="st3" points="2014.2,88 2196.9,88 2379.6,1.3 2196.9,1.3 	"/>
	<polygon class="st0" points="2196.9,88 2379.6,88 2562.3,1.3 2379.6,1.3 	"/>
	<polygon class="st1" points="2379.6,88 2562.3,88 2745,1.3 2562.3,1.3 	"/>
	<polygon class="st2" points="2562.3,88 2745,88 2927.6,1.3 2745,1.3 	"/>
	<polygon class="st3" points="2745,88 2927.6,88 3110.3,1.3 2927.6,1.3 	"/>
	<polygon class="st0" points="2927.6,88 3110.3,88 3293,1.3 3110.3,1.3 	"/>
	<polygon class="st1" points="3110.3,88 3293,88 3475.7,1.3 3293,1.3 	"/>
	<polygon class="st2" points="3293,88 3475.7,88 3658.4,1.3 3475.7,1.3 	"/>
	<polygon class="st3" points="3475.7,88 3658.4,88 3841.1,1.3 3658.4,1.3 	"/>
	<polygon class="st0" points="3658.4,88 3841.1,88 4023.7,1.3 3841.1,1.3 	"/>
	<polygon class="st1" points="3841.1,88 4023.7,88 4206.4,1.3 4023.7,1.3 	"/>
	<polygon class="st2" points="4023.7,88 4206.4,88 4389.1,1.3 4206.4,1.3 	"/>
	<polygon class="st3" points="4206.4,88 4389.1,88 4571.8,1.3 4389.1,1.3 	"/>
	<polygon class="st0" points="4389.1,88 4571.8,88 4754.5,1.3 4571.8,1.3 	"/>
	<polygon class="st1" points="4571.8,88 4754.5,88 4937.2,1.3 4754.5,1.3 	"/>
	<polygon class="st2" points="4754.5,88 4937.2,88 5119.8,1.3 4937.2,1.3 	"/>
	<polygon class="st3" points="4937.2,88 5119.8,88 5302.5,1.3 5119.8,1.3 	"/>
	<polygon class="st0" points="5119.8,88 5302.5,88 5485.2,1.3 5302.5,1.3 	"/>
	<polygon class="st1" points="5302.5,88 5485.2,88 5667.9,1.3 5485.2,1.3 	"/>
	<polygon class="st2" points="5485.2,88 5667.9,88 5850.6,1.3 5667.9,1.3 	"/>
	<polygon class="st3" points="5667.9,88 5850.6,88 6033.3,1.3 5850.6,1.3 	"/>
	<polygon class="st0" points="5850.6,88 6033.3,88 6216,1.3 6033.3,1.3 	"/>
	<polygon class="st1" points="6033.3,88 6216,88 6398.6,1.3 6216,1.3 	"/>
	<polygon class="st2" points="6216,88 6398.6,88 6581.3,1.3 6398.6,1.3 	"/>
	<polygon class="st3" points="6398.6,88 6581.3,88 6764,1.3 6581.3,1.3 	"/>
	<polygon class="st0" points="6581.3,88 6764,88 6946.7,1.3 6764,1.3 	"/>
	<polygon class="st1" points="6764,88 6946.7,88 7129.4,1.3 6946.7,1.3 	"/>
	<polygon class="st2" points="6946.7,88 7129.4,88 7312.1,1.3 7129.4,1.3 	"/>
	<polygon class="st3" points="7129.4,88 7312.1,88 7494.7,1.3 7312.1,1.3 	"/>
	<polygon class="st0" points="7312.1,88 7494.7,88 7677.4,1.3 7494.7,1.3 	"/>
	<polygon class="st1" points="7494.7,88 7677.4,88 7860.1,1.3 7677.4,1.3 	"/>
	<polygon class="st2" points="7677.4,88 7860.1,88 8042.8,1.3 7860.1,1.3 	"/>
	<polygon class="st3" points="7860.1,88 8042.8,88 8225.5,1.3 8042.8,1.3 	"/>
	<polygon class="st0" points="8042.8,88 8225.5,88 8408.2,1.3 8225.5,1.3 	"/>
	<polygon class="st1" points="8225.5,88 8408.2,88 8590.9,1.3 8408.2,1.3 	"/>
	<polygon class="st2" points="8408.2,88 8590.9,88 8773.5,1.3 8590.9,1.3 	"/>
	<polygon class="st3" points="8590.9,88 8773.5,88 8956.2,1.3 8773.5,1.3 	"/>
	<polygon class="st0" points="8773.5,88 8956.2,88 9138.9,1.3 8956.2,1.3 	"/>
	<polygon class="st1" points="8956.2,88 9138.9,88 9321.6,1.3 9138.9,1.3 	"/>
	<polygon class="st2" points="9138.9,88 9321.6,88 9504.3,1.3 9321.6,1.3 	"/>
	<polygon class="st3" points="9321.6,88 9504.3,88 9687,1.3 9504.3,1.3 	"/>
	<polygon class="st0" points="9504.3,88 9687,88 9869.6,1.3 9687,1.3 	"/>
	<polygon class="st1" points="9687,88 9869.6,88 10052.3,1.3 9869.6,1.3 	"/>
	<polygon class="st2" points="9869.6,88 10052.3,88 10235,1.3 10052.3,1.3 	"/>
	<polygon class="st3" points="10052.3,88 10235,88 10417.7,1.3 10235,1.3 	"/>
	<polygon class="st0" points="10235,88 10417.7,88 10600.4,1.3 10417.7,1.3 	"/>
	<polygon class="st1" points="10417.7,88 10600.4,88 10783.1,1.3 10600.4,1.3 	"/>
	<polygon class="st2" points="10600.4,88 10783.1,88 10965.8,1.3 10783.1,1.3 	"/>
	<polygon class="st3" points="10783.1,88 10965.8,88 11148.4,1.3 10965.8,1.3 	"/>
	<polygon class="st0" points="10965.8,88 11148.4,88 11331.1,1.3 11148.4,1.3 	"/>
	<polygon class="st2" points="11331.1,88 11513.8,88 11696.5,1.3 11513.8,1.3 	"/>
	<polygon class="st1" points="11692.1,1.3 11512.8,88 11695.5,88 11874.8,1.3 	"/>
	<polygon class="st1" points="11330.1,0.3 11150.8,87 11333.5,87 11512.8,0.3 	"/>
	<polygon class="st1" points="11796.1,39.3 11796.1,88 11692.3,88 11733,21 	"/>
</g>
<polygon class="st3" points="5,88 187,1 0,1 0,88 "/>
</svg>
